Pretension2-ThinItalic.ufo
<glyph name="exclam" format="2">
  <advance width="586"/>
  <unicode hex="0021"/>
  <outline>
    <contour>
      <point x="251" y="442" type="line"/>
      <point x="424" y="1490" type="line"/>
      <point x="470" y="1490" type="line"/>
      <point x="297" y="442" type="line"/>
    </contour>
    <contour>
      <point x="203" y="-9" type="qcurve" smooth="yes"/>
      <point x="180" y="-9"/>
      <point x="151" y="25"/>
      <point x="155" y="47" type="qcurve" smooth="yes"/>
      <point x="159" y="68"/>
      <point x="193" y="97"/>
      <point x="213" y="97" type="qcurve" smooth="yes"/>
      <point x="236" y="97"/>
      <point x="264" y="64"/>
      <point x="261" y="41" type="qcurve"/>
      <point x="257" y="20"/>
      <point x="223" y="-9"/>
    </contour>
  </outline>
</glyph>
<glyph name="dollar" format="2">
  <advance width="1254"/>
  <unicode hex="0024"/>
  <anchor x="601" y="0" name="m.uni0326"/>
  <anchor x="876" y="1490" name="m.uni030F_1"/>
  <anchor x="599" y="0" name="m.uni0327_3"/>
  <outline>
    <contour>
      <point x="486" y="-186" type="line"/>
      <point x="794" y="1676" type="line"/>
      <point x="840" y="1676" type="line"/>
      <point x="532" y="-186" type="line"/>
    </contour>
    <contour>
      <point x="525" y="-22" type="curve" smooth="yes"/>
      <point x="435" y="-22"/>
      <point x="359" y="-6"/>
      <point x="296" y="25" type="curve" smooth="yes"/>
      <point x="171" y="88"/>
      <point x="108" y="203"/>
      <point x="123" y="350" type="curve"/>
      <point x="169" y="350" type="line"/>
      <point x="164" y="285"/>
      <point x="174" y="228"/>
      <point x="199" y="179" type="curve" smooth="yes"/>
      <point x="250" y="81"/>
      <point x="361" y="24"/>
      <point x="525" y="24" type="curve" smooth="yes"/>
      <point x="611" y="24"/>
      <point x="689" y="39"/>
      <point x="760" y="69" type="curve" smooth="yes"/>
      <point x="900" y="128"/>
      <point x="997" y="238"/>
      <point x="1020" y="378" type="curve" smooth="yes"/>
      <point x="1029" y="431"/>
      <point x="1025" y="478"/>
      <point x="1010" y="518" type="curve" smooth="yes"/>
      <point x="979" y="598"/>
      <point x="894" y="658"/>
      <point x="735" y="711" type="curve" smooth="yes"/>
      <point x="575" y="765" type="line" smooth="yes"/>
      <point x="464" y="802"/>
      <point x="384" y="851"/>
      <point x="336" y="910" type="curve" smooth="yes"/>
      <point x="288" y="969"/>
      <point x="271" y="1042"/>
      <point x="286" y="1128" type="curve" smooth="yes"/>
      <point x="298" y="1201"/>
      <point x="328" y="1267"/>
      <point x="376" y="1325" type="curve" smooth="yes"/>
      <point x="472" y="1441"/>
      <point x="622" y="1512"/>
      <point x="791" y="1512" type="curve" smooth="yes"/>
      <point x="876" y="1512"/>
      <point x="949" y="1495"/>
      <point x="1008" y="1461" type="curve" smooth="yes"/>
      <point x="1126" y="1393"/>
      <point x="1184" y="1271"/>
      <point x="1168" y="1118" type="curve"/>
      <point x="1122" y="1118" type="line"/>
      <point x="1131" y="1219"/>
      <point x="1108" y="1303"/>
      <point x="1051" y="1368" type="curve" smooth="yes"/>
      <point x="994" y="1433"/>
      <point x="907" y="1466"/>
      <point x="792" y="1466" type="curve" smooth="yes"/>
      <point x="717" y="1466"/>
      <point x="646" y="1452"/>
      <point x="580" y="1423" type="curve" smooth="yes"/>
      <point x="448" y="1365"/>
      <point x="353" y="1259"/>
      <point x="332" y="1128" type="curve" smooth="yes"/>
      <point x="324" y="1078"/>
      <point x="328" y="1033"/>
      <point x="344" y="993" type="curve" smooth="yes"/>
      <point x="360" y="953"/>
      <point x="389" y="918"/>
      <point x="431" y="887" type="curve" smooth="yes"/>
      <point x="472" y="856"/>
      <point x="526" y="830"/>
      <point x="593" y="807" type="curve" smooth="yes"/>
      <point x="754" y="753" type="line" smooth="yes"/>
      <point x="875" y="712"/>
      <point x="961" y="664"/>
      <point x="1013" y="604" type="curve" smooth="yes"/>
      <point x="1064" y="543"/>
      <point x="1081" y="470"/>
      <point x="1066" y="378" type="curve" smooth="yes"/>
      <point x="1053" y="301"/>
      <point x="1023" y="232"/>
      <point x="974" y="172" type="curve" smooth="yes"/>
      <point x="877" y="51"/>
      <point x="720" y="-22"/>
    </contour>
  </outline>
</glyph>
<glyph name="percent" format="2">
  <advance width="1720"/>
  <unicode hex="0025"/>
  <outline>
    <contour>
      <point x="287" y="1168" type="curve" smooth="yes"/>
      <point x="295" y="1214" type="line" smooth="yes"/>
      <point x="305" y="1273"/>
      <point x="324" y="1324"/>
      <point x="353" y="1368" type="curve" smooth="yes"/>
      <point x="410" y="1455"/>
      <point x="496" y="1506"/>
      <point x="588" y="1506" type="curve" smooth="yes"/>
      <point x="634" y="1506"/>
      <point x="673" y="1494"/>
      <point x="706" y="1470" type="curve" smooth="yes"/>
      <point x="771" y="1421"/>
      <point x="804" y="1331"/>
      <point x="784" y="1214" type="curve" smooth="yes"/>
      <point x="776" y="1168" type="line" smooth="yes"/>
      <point x="767" y="1111"/>
      <point x="748" y="1060"/>
      <point x="719" y="1017" type="curve" smooth="yes"/>
      <point x="661" y="929"/>
      <point x="576" y="878"/>
      <point x="484" y="878" type="curve" smooth="yes"/>
      <point x="438" y="878"/>
      <point x="399" y="890"/>
      <point x="366" y="915" type="curve" smooth="yes"/>
      <point x="300" y="963"/>
      <point x="268" y="1053"/>
    </contour>
    <contour>
      <point x="341" y="1214" type="curve" smooth="yes"/>
      <point x="333" y="1168" type="line" smooth="yes"/>
      <point x="321" y="1094"/>
      <point x="331" y="1035"/>
      <point x="362" y="991" type="curve" smooth="yes"/>
      <point x="393" y="946"/>
      <point x="436" y="924"/>
      <point x="492" y="924" type="curve" smooth="yes"/>
      <point x="547" y="924"/>
      <point x="598" y="946"/>
      <point x="644" y="991" type="curve" smooth="yes"/>
      <point x="689" y="1035"/>
      <point x="718" y="1094"/>
      <point x="730" y="1168" type="curve" smooth="yes"/>
      <point x="738" y="1214" type="line" smooth="yes"/>
      <point x="751" y="1289"/>
      <point x="742" y="1348"/>
      <point x="711" y="1393" type="curve" smooth="yes"/>
      <point x="680" y="1438"/>
      <point x="636" y="1460"/>
      <point x="581" y="1460" type="curve" smooth="yes"/>
      <point x="525" y="1460"/>
      <point x="474" y="1438"/>
      <point x="429" y="1393" type="curve" smooth="yes"/>
      <point x="383" y="1348"/>
      <point x="354" y="1289"/>
    </contour>
    <contour>
      <point x="997" y="274" type="curve" smooth="yes"/>
      <point x="1005" y="320" type="line" smooth="yes"/>
      <point x="1015" y="379"/>
      <point x="1034" y="430"/>
      <point x="1063" y="474" type="curve" smooth="yes"/>
      <point x="1120" y="561"/>
      <point x="1206" y="612"/>
      <point x="1298" y="612" type="curve" smooth="yes"/>
      <point x="1344" y="612"/>
      <point x="1383" y="600"/>
      <point x="1416" y="576" type="curve" smooth="yes"/>
      <point x="1481" y="527"/>
      <point x="1514" y="437"/>
      <point x="1494" y="320" type="curve" smooth="yes"/>
      <point x="1486" y="274" type="line" smooth="yes"/>
      <point x="1477" y="217"/>
      <point x="1458" y="166"/>
      <point x="1429" y="123" type="curve" smooth="yes"/>
      <point x="1371" y="35"/>
      <point x="1286" y="-16"/>
      <point x="1194" y="-16" type="curve" smooth="yes"/>
      <point x="1148" y="-16"/>
      <point x="1109" y="-4"/>
      <point x="1076" y="21" type="curve" smooth="yes"/>
      <point x="1010" y="69"/>
      <point x="978" y="159"/>
    </contour>
    <contour>
      <point x="1051" y="320" type="curve" smooth="yes"/>
      <point x="1043" y="274" type="line" smooth="yes"/>
      <point x="1031" y="200"/>
      <point x="1041" y="141"/>
      <point x="1072" y="97" type="curve" smooth="yes"/>
      <point x="1103" y="52"/>
      <point x="1146" y="30"/>
      <point x="1202" y="30" type="curve" smooth="yes"/>
      <point x="1257" y="30"/>
      <point x="1308" y="52"/>
      <point x="1354" y="97" type="curve" smooth="yes"/>
      <point x="1399" y="141"/>
      <point x="1428" y="200"/>
      <point x="1440" y="274" type="curve" smooth="yes"/>
      <point x="1448" y="320" type="line" smooth="yes"/>
      <point x="1461" y="395"/>
      <point x="1452" y="454"/>
      <point x="1421" y="499" type="curve" smooth="yes"/>
      <point x="1390" y="544"/>
      <point x="1346" y="566"/>
      <point x="1291" y="566" type="curve" smooth="yes"/>
      <point x="1235" y="566"/>
      <point x="1184" y="544"/>
      <point x="1139" y="499" type="curve" smooth="yes"/>
      <point x="1093" y="454"/>
      <point x="1064" y="395"/>
    </contour>
    <contour>
      <point x="229" y="0" type="line"/>
      <point x="1496" y="1490" type="line"/>
      <point x="1552" y="1490" type="line"/>
      <point x="283" y="0" type="line"/>
    </contour>
  </outline>
</glyph>
<glyph name="ampersand" format="2">
  <advance width="1195"/>
  <unicode hex="0026"/>
  <outline>
    <contour>
      <point x="455" y="-20" type="curve" smooth="yes"/>
      <point x="376" y="-20"/>
      <point x="308" y="-2"/>
      <point x="250" y="33" type="curve" smooth="yes"/>
      <point x="134" y="104"/>
      <point x="75" y="228"/>
      <point x="99" y="372" type="curve" smooth="yes"/>
      <point x="107" y="417"/>
      <point x="123" y="459"/>
      <point x="146" y="498" type="curve" smooth="yes"/>
      <point x="192" y="577"/>
      <point x="276" y="655"/>
      <point x="419" y="750" type="curve" smooth="yes"/>
      <point x="663" y="914" type="line" smooth="yes"/>
      <point x="744" y="967"/>
      <point x="803" y="1017"/>
      <point x="840" y="1062" type="curve" smooth="yes"/>
      <point x="877" y="1107"/>
      <point x="900" y="1155"/>
      <point x="909" y="1208" type="curve" smooth="yes"/>
      <point x="920" y="1282"/>
      <point x="909" y="1343"/>
      <point x="874" y="1391" type="curve" smooth="yes"/>
      <point x="839" y="1439"/>
      <point x="785" y="1463"/>
      <point x="713" y="1464" type="curve" smooth="yes"/>
      <point x="665" y="1464"/>
      <point x="618" y="1452"/>
      <point x="571" y="1427" type="curve" smooth="yes"/>
      <point x="524" y="1402"/>
      <point x="483" y="1369"/>
      <point x="450" y="1328" type="curve" smooth="yes"/>
      <point x="416" y="1287"/>
      <point x="395" y="1243"/>
      <point x="387" y="1196" type="curve" smooth="yes"/>
      <point x="382" y="1164"/>
      <point x="385" y="1133"/>
      <point x="394" y="1102" type="curve" smooth="yes"/>
      <point x="412" y="1041"/>
      <point x="458" y="968"/>
      <point x="529" y="852" type="curve" smooth="yes"/>
      <point x="1063" y="0" type="line"/>
      <point x="1005" y="0" type="line"/>
      <point x="489" y="824" type="line" smooth="yes"/>
      <point x="454" y="881"/>
      <point x="424" y="931"/>
      <point x="400" y="972" type="curve" smooth="yes"/>
      <point x="375" y="1013"/>
      <point x="358" y="1052"/>
      <point x="348" y="1087" type="curve"/>
      <point x="337" y="1122"/>
      <point x="335" y="1158"/>
      <point x="341" y="1196" type="curve" smooth="yes"/>
      <point x="350" y="1252"/>
      <point x="374" y="1304"/>
      <point x="411" y="1352" type="curve" smooth="yes"/>
      <point x="448" y="1399"/>
      <point x="493" y="1438"/>
      <point x="546" y="1467" type="curve" smooth="yes"/>
      <point x="599" y="1496"/>
      <point x="654" y="1510"/>
      <point x="711" y="1510" type="curve" smooth="yes"/>
      <point x="768" y="1510"/>
      <point x="816" y="1497"/>
      <point x="856" y="1471" type="curve" smooth="yes"/>
      <point x="935" y="1418"/>
      <point x="974" y="1324"/>
      <point x="955" y="1208" type="curve" smooth="yes"/>
      <point x="945" y="1148"/>
      <point x="920" y="1092"/>
      <point x="879" y="1040" type="curve" smooth="yes"/>
      <point x="838" y="988"/>
      <point x="774" y="933"/>
      <point x="687" y="876" type="curve" smooth="yes"/>
      <point x="443" y="712" type="line" smooth="yes"/>
      <point x="342" y="645"/>
      <point x="269" y="587"/>
      <point x="226" y="537" type="curve" smooth="yes"/>
      <point x="182" y="487"/>
      <point x="155" y="432"/>
      <point x="145" y="372" type="curve" smooth="yes"/>
      <point x="135" y="308"/>
      <point x="141" y="250"/>
      <point x="164" y="197" type="curve" smooth="yes"/>
      <point x="209" y="91"/>
      <point x="311" y="23"/>
      <point x="451" y="26" type="curve" smooth="yes"/>
      <point x="596" y="30"/>
      <point x="725" y="82"/>
      <point x="830" y="174" type="curve" smooth="yes"/>
      <point x="934" y="265"/>
      <point x="1016" y="391"/>
      <point x="1065" y="542" type="curve"/>
      <point x="1111" y="536" type="line"/>
      <point x="1098" y="494"/>
      <point x="1081" y="453"/>
      <point x="1060" y="412" type="curve" smooth="yes"/>
      <point x="1039" y="371"/>
      <point x="1017" y="332"/>
      <point x="992" y="295" type="curve" smooth="yes"/>
      <point x="967" y="258"/>
      <point x="942" y="223"/>
      <point x="917" y="192" type="curve" smooth="yes"/>
      <point x="904" y="176"/>
      <point x="892" y="161"/>
      <point x="877" y="148" type="curve" smooth="yes"/>
      <point x="816" y="97"/>
      <point x="749" y="57"/>
      <point x="675" y="26" type="curve" smooth="yes"/>
      <point x="601" y="-5"/>
      <point x="528" y="-20"/>
    </contour>
  </outline>
</glyph>
<glyph name="parenleft" format="2">
  <advance width="646"/>
  <unicode hex="0028"/>
  <outline>
    <contour>
      <point x="250" y="628" type="qcurve" smooth="yes"/>
      <point x="277" y="786"/>
      <point x="378" y="1102"/>
      <point x="526" y="1412"/>
      <point x="620" y="1560" type="qcurve"/>
      <point x="670" y="1560" type="line"/>
      <point x="572" y="1410"/>
      <point x="423" y="1099"/>
      <point x="323" y="784"/>
      <point x="296" y="628" type="qcurve" smooth="yes"/>
      <point x="270" y="471"/>
      <point x="268" y="157"/>
      <point x="314" y="-152"/>
      <point x="360" y="-302" type="qcurve"/>
      <point x="312" y="-302" type="line"/>
      <point x="244" y="-78"/>
      <point x="211" y="395"/>
    </contour>
  </outline>
</glyph>
<glyph name="parenright" format="2">
  <advance width="647"/>
  <unicode hex="0029"/>
  <outline>
    <contour>
      <point x="-1" y="-302" type="line"/>
      <point x="96" y="-152"/>
      <point x="245" y="157"/>
      <point x="346" y="471"/>
      <point x="371" y="628" type="qcurve"/>
      <point x="398" y="784"/>
      <point x="401" y="1098"/>
      <point x="356" y="1409"/>
      <point x="308" y="1560" type="qcurve"/>
      <point x="358" y="1560" type="line"/>
      <point x="404" y="1412"/>
      <point x="448" y="1102"/>
      <point x="445" y="786"/>
      <point x="419" y="628" type="qcurve" smooth="yes"/>
      <point x="380" y="395"/>
      <point x="192" y="-78"/>
      <point x="49" y="-302" type="qcurve"/>
    </contour>
  </outline>
</glyph>
<glyph name="comma.ss07" format="2">
  <advance width="555"/>
  <unicode hex="002C"/>
  <unicode hex="E2AB"/>
  <outline>
    <contour>
      <point x="65" y="-273" type="line"/>
      <point x="71" y="-233" type="line"/>
      <point x="80" y="-232" type="line"/>
      <point x="116" y="-227"/>
      <point x="171" y="-140"/>
      <point x="185" y="-55" type="qcurve" smooth="yes"/>
      <point x="197" y="18" type="line"/>
      <point x="209" y="0" type="line"/>
      <point x="140" y="0" type="line"/>
      <point x="155" y="90" type="line"/>
      <point x="245" y="90" type="line"/>
      <point x="222" y="-47" type="line" smooth="yes"/>
      <point x="205" y="-153"/>
      <point x="133" y="-265"/>
      <point x="74" y="-272" type="qcurve" smooth="yes"/>
    </contour>
  </outline>
</glyph>
<glyph name="period" format="2">
  <advance width="554"/>
  <unicode hex="002E"/>
  <outline>
    <contour>
      <point x="186" y="-9" type="qcurve" smooth="yes"/>
      <point x="164" y="-9"/>
      <point x="135" y="25"/>
      <point x="139" y="47" type="qcurve" smooth="yes"/>
      <point x="143" y="68"/>
      <point x="177" y="97"/>
      <point x="197" y="97" type="qcurve" smooth="yes"/>
      <point x="220" y="97"/>
      <point x="248" y="64"/>
      <point x="244" y="41" type="qcurve"/>
      <point x="241" y="20"/>
      <point x="207" y="-9"/>
    </contour>
  </outline>
</glyph>
<glyph name="zero" format="2">
  <advance width="1208"/>
  <unicode hex="0030"/>
  <outline>
    <contour>
      <point x="510" y="-20" type="qcurve" smooth="yes"/>
      <point x="368" y="-20"/>
      <point x="193" y="165"/>
      <point x="139" y="508"/>
      <point x="178" y="744" type="qcurve" smooth="yes"/>
      <point x="218" y="982"/>
      <point x="385" y="1325"/>
      <point x="621" y="1510"/>
      <point x="763" y="1510" type="qcurve" smooth="yes"/>
      <point x="905" y="1510"/>
      <point x="1078" y="1325"/>
      <point x="1132" y="982"/>
      <point x="1092" y="744" type="qcurve" smooth="yes"/>
      <point x="1053" y="508"/>
      <point x="886" y="165"/>
      <point x="652" y="-20"/>
    </contour>
    <contour>
      <point x="517" y="26" type="qcurve" smooth="yes"/>
      <point x="644" y="26"/>
      <point x="856" y="199"/>
      <point x="1009" y="521"/>
      <point x="1046" y="744" type="qcurve" smooth="yes"/>
      <point x="1102" y="1081"/>
      <point x="945" y="1464"/>
      <point x="755" y="1464" type="qcurve" smooth="yes"/>
      <point x="628" y="1464"/>
      <point x="414" y="1291"/>
      <point x="261" y="969"/>
      <point x="224" y="744" type="qcurve" smooth="yes"/>
      <point x="169" y="409"/>
      <point x="326" y="26"/>
    </contour>
  </outline>
</glyph>
<glyph name="one" format="2">
  <advance width="753"/>
  <unicode hex="0031"/>
  <outline>
    <contour>
      <point x="675" y="1490" type="line"/>
      <point x="428" y="0" type="line"/>
      <point x="382" y="0" type="line"/>
      <point x="620" y="1440" type="line"/>
      <point x="612" y="1440" type="line"/>
      <point x="253" y="1202" type="line"/>
      <point x="262" y="1258" type="line"/>
      <point x="611" y="1490" type="line"/>
    </contour>
  </outline>
</glyph>
<glyph name="one.ss01" format="2">
  <advance width="845"/>
  <unicode hex="0031"/>
  <unicode hex="E06C"/>
  <outline>
    <contour>
      <point x="474" y="0" type="line"/>
      <point x="700" y="1361" type="line"/>
      <point x="702" y="1359" type="line"/>
      <point x="636" y="1277"/>
      <point x="528" y="1228"/>
      <point x="369" y="1208" type="curve" smooth="yes"/>
      <point x="316" y="1201"/>
      <point x="289" y="1200"/>
      <point x="244" y="1198" type="curve"/>
      <point x="252" y="1244" type="line"/>
      <point x="294" y="1245"/>
      <point x="322" y="1249"/>
      <point x="364" y="1252" type="curve" smooth="yes"/>
      <point x="544" y="1265"/>
      <point x="676" y="1351"/>
      <point x="727" y="1490" type="curve"/>
      <point x="767" y="1490" type="line"/>
      <point x="520" y="0" type="line"/>
    </contour>
  </outline>
</glyph>
<glyph name="two" format="2">
  <advance width="1273"/>
  <unicode hex="0032"/>
  <anchor x="1019" y="1490" name="m.uni030F_1"/>
  <outline>
    <contour>
      <point x="98" y="0" type="line"/>
      <point x="104" y="38" type="line"/>
      <point x="674" y="602" type="line" smooth="yes"/>
      <point x="763" y="691"/>
      <point x="834" y="765"/>
      <point x="886" y="824" type="curve" smooth="yes"/>
      <point x="937" y="883"/>
      <point x="975" y="935"/>
      <point x="1000" y="982" type="curve" smooth="yes"/>
      <point x="1024" y="1029"/>
      <point x="1040" y="1077"/>
      <point x="1048" y="1126" type="curve" smooth="yes"/>
      <point x="1065" y="1223"/>
      <point x="1047" y="1304"/>
      <point x="996" y="1368" type="curve" smooth="yes"/>
      <point x="944" y="1432"/>
      <point x="868" y="1464"/>
      <point x="768" y="1464" type="curve" smooth="yes"/>
      <point x="699" y="1464"/>
      <point x="636" y="1448"/>
      <point x="578" y="1417" type="curve" smooth="yes"/>
      <point x="462" y="1354"/>
      <point x="380" y="1245"/>
      <point x="355" y="1118" type="curve"/>
      <point x="309" y="1118" type="line"/>
      <point x="321" y="1190"/>
      <point x="349" y="1256"/>
      <point x="392" y="1315" type="curve" smooth="yes"/>
      <point x="479" y="1434"/>
      <point x="613" y="1510"/>
      <point x="768" y="1510" type="curve" smooth="yes"/>
      <point x="843" y="1510"/>
      <point x="908" y="1493"/>
      <point x="961" y="1460" type="curve" smooth="yes"/>
      <point x="1067" y="1393"/>
      <point x="1119" y="1274"/>
      <point x="1094" y="1126" type="curve" smooth="yes"/>
      <point x="1081" y="1043"/>
      <point x="1054" y="974"/>
      <point x="998" y="894" type="curve" smooth="yes"/>
      <point x="942" y="813"/>
      <point x="852" y="714"/>
      <point x="709" y="574" type="curve" smooth="yes"/>
      <point x="182" y="52" type="line"/>
      <point x="181" y="46" type="line"/>
      <point x="1004" y="46" type="line"/>
      <point x="996" y="0" type="line"/>
    </contour>
  </outline>
</glyph>
<glyph name="three.ss01" format="2">
  <advance width="1258"/>
  <unicode hex="0033"/>
  <unicode hex="E06D"/>
  <anchor x="997" y="1490" name="m.uni030F_1"/>
  <outline>
    <contour>
      <point x="540" y="-20" type="curve" smooth="yes"/>
      <point x="456" y="-20"/>
      <point x="383" y="-3"/>
      <point x="322" y="31" type="curve" smooth="yes"/>
      <point x="261" y="64"/>
      <point x="215" y="111"/>
      <point x="186" y="170" type="curve" smooth="yes"/>
      <point x="157" y="229"/>
      <point x="148" y="297"/>
      <point x="161" y="372" type="curve"/>
      <point x="207" y="372" type="line"/>
      <point x="196" y="305"/>
      <point x="203" y="246"/>
      <point x="228" y="194" type="curve" smooth="yes"/>
      <point x="278" y="90"/>
      <point x="388" y="26"/>
      <point x="539" y="26" type="curve" smooth="yes"/>
      <point x="623" y="26"/>
      <point x="698" y="44"/>
      <point x="765" y="80" type="curve" smooth="yes"/>
      <point x="897" y="152"/>
      <point x="985" y="277"/>
      <point x="1008" y="414" type="curve" smooth="yes"/>
      <point x="1021" y="496"/>
      <point x="1013" y="566"/>
      <point x="983" y="625" type="curve" smooth="yes"/>
      <point x="952" y="683"/>
      <point x="905" y="728"/>
      <point x="840" y="759" type="curve" smooth="yes"/>
      <point x="775" y="790"/>
      <point x="697" y="805"/>
      <point x="606" y="805" type="curve" smooth="yes"/>
      <point x="537" y="805" type="line"/>
      <point x="545" y="850" type="line"/>
      <point x="1116" y="1443" type="line"/>
      <point x="1116" y="1444" type="line"/>
      <point x="400" y="1444" type="line"/>
      <point x="408" y="1490" type="line"/>
      <point x="1194" y="1490" type="line"/>
      <point x="1187" y="1452" type="line"/>
      <point x="575" y="817" type="line"/>
      <point x="579" y="839" type="line"/>
      <point x="689" y="846"/>
      <point x="782" y="833"/>
      <point x="858" y="798" type="curve" smooth="yes"/>
      <point x="934" y="763"/>
      <point x="989" y="713"/>
      <point x="1024" y="647" type="curve" smooth="yes"/>
      <point x="1059" y="580"/>
      <point x="1069" y="503"/>
      <point x="1054" y="414" type="curve" smooth="yes"/>
      <point x="1041" y="335"/>
      <point x="1011" y="263"/>
      <point x="964" y="197" type="curve" smooth="yes"/>
      <point x="871" y="65"/>
      <point x="723" y="-20"/>
    </contour>
  </outline>
</glyph>
<glyph name="five" format="2">
  <advance width="1169"/>
  <unicode hex="0035"/>
  <outline>
    <contour>
      <point x="468.364" y="-20.3636" type="curve" smooth="yes"/>
      <point x="391.273" y="-20.3636"/>
      <point x="325.818" y="-3.63636"/>
      <point x="272" y="29.8182" type="curve" smooth="yes"/>
      <point x="218.182" y="63.2727"/>
      <point x="179.636" y="109.818"/>
      <point x="155.636" y="168.727" type="curve" smooth="yes"/>
      <point x="131.636" y="227.636"/>
      <point x="126.545" y="296"/>
      <point x="139.636" y="372.364" type="curve"/>
      <point x="186.182" y="372.364" type="line"/>
      <point x="169.455" y="270.545"/>
      <point x="186.909" y="187.636"/>
      <point x="237.091" y="122.909" type="curve" smooth="yes"/>
      <point x="287.273" y="58.1818"/>
      <point x="364.364" y="26.1818"/>
      <point x="468.364" y="26.1818" type="curve" smooth="yes"/>
      <point x="546.182" y="26.1818"/>
      <point x="618.182" y="45.8182"/>
      <point x="685.818" y="84.3636" type="curve" smooth="yes"/>
      <point x="753.455" y="122.909"/>
      <point x="810.182" y="174.545"/>
      <point x="856.727" y="240.727" type="curve" smooth="yes"/>
      <point x="902.545" y="306.909"/>
      <point x="932.364" y="380.364"/>
      <point x="945.455" y="462.545" type="curve" smooth="yes"/>
      <point x="959.273" y="550.545"/>
      <point x="954.182" y="626.909"/>
      <point x="929.455" y="691.636" type="curve" smooth="yes"/>
      <point x="904.727" y="756.364"/>
      <point x="865.455" y="805.818"/>
      <point x="812.364" y="840.727" type="curve" smooth="yes"/>
      <point x="759.273" y="875.636"/>
      <point x="696.727" y="893.091"/>
      <point x="625.455" y="893.091" type="curve" smooth="yes"/>
      <point x="566.545" y="893.091"/>
      <point x="510.545" y="882.182"/>
      <point x="456" y="859.636" type="curve" smooth="yes"/>
      <point x="401.455" y="837.091"/>
      <point x="344.727" y="799.273"/>
      <point x="284.364" y="745.455" type="curve"/>
      <point x="234.182" y="745.455" type="line"/>
      <point x="450.909" y="1489.45" type="line"/>
      <point x="1111.27" y="1489.45" type="line"/>
      <point x="1102.55" y="1442.91" type="line"/>
      <point x="482.909" y="1442.91" type="line"/>
      <point x="305.455" y="826.182" type="line"/>
      <point x="311.273" y="826.182" type="line"/>
      <point x="354.182" y="861.091"/>
      <point x="402.909" y="888.727"/>
      <point x="456" y="909.091" type="curve" smooth="yes"/>
      <point x="509.091" y="929.455"/>
      <point x="565.091" y="939.636"/>
      <point x="625.455" y="939.636" type="curve" smooth="yes"/>
      <point x="705.455" y="939.636"/>
      <point x="776" y="920"/>
      <point x="837.818" y="880.727" type="curve" smooth="yes"/>
      <point x="899.636" y="840.727"/>
      <point x="944.727" y="785.455"/>
      <point x="973.818" y="714.182" type="curve" smooth="yes"/>
      <point x="1002.91" y="642.182"/>
      <point x="1008.73" y="558.545"/>
      <point x="992" y="462.545" type="curve" smooth="yes"/>
      <point x="976" y="370.182"/>
      <point x="943.273" y="288"/>
      <point x="893.091" y="215.273" type="curve" smooth="yes"/>
      <point x="842.909" y="142.545"/>
      <point x="781.091" y="85.0909"/>
      <point x="707.636" y="42.9091" type="curve" smooth="yes"/>
      <point x="634.182" y="0.727273"/>
      <point x="554.182" y="-20.3636"/>
    </contour>
  </outline>
</glyph>
<glyph name="eight" format="2">
  <advance width="1220"/>
  <unicode hex="0038"/>
  <outline>
    <contour>
      <point x="513" y="-20" type="curve" smooth="yes"/>
      <point x="428" y="-20"/>
      <point x="354" y="-2"/>
      <point x="290" y="35" type="curve" smooth="yes"/>
      <point x="225" y="71"/>
      <point x="177" y="120"/>
      <point x="146" y="181" type="curve" smooth="yes"/>
      <point x="115" y="242"/>
      <point x="105" y="309"/>
      <point x="118" y="384" type="curve" smooth="yes"/>
      <point x="128" y="443"/>
      <point x="151" y="500"/>
      <point x="186" y="553" type="curve" smooth="yes"/>
      <point x="257" y="659"/>
      <point x="368" y="740"/>
      <point x="495" y="768" type="curve"/>
      <point x="496" y="774" type="line"/>
      <point x="423" y="801"/>
      <point x="368" y="847"/>
      <point x="329" y="912" type="curve" smooth="yes"/>
      <point x="290" y="977"/>
      <point x="278" y="1050"/>
      <point x="291" y="1132" type="curve" smooth="yes"/>
      <point x="303" y="1203"/>
      <point x="332" y="1267"/>
      <point x="379" y="1324" type="curve" smooth="yes"/>
      <point x="425" y="1381"/>
      <point x="482" y="1426"/>
      <point x="550" y="1460" type="curve" smooth="yes"/>
      <point x="618" y="1493"/>
      <point x="690" y="1510"/>
      <point x="766" y="1510" type="curve" smooth="yes"/>
      <point x="841" y="1510"/>
      <point x="908" y="1493"/>
      <point x="965" y="1460" type="curve" smooth="yes"/>
      <point x="1022" y="1427"/>
      <point x="1065" y="1382"/>
      <point x="1093" y="1325" type="curve" smooth="yes"/>
      <point x="1121" y="1268"/>
      <point x="1129" y="1203"/>
      <point x="1117" y="1132" type="curve" smooth="yes"/>
      <point x="1108" y="1078"/>
      <point x="1089" y="1027"/>
      <point x="1059" y="979" type="curve" smooth="yes"/>
      <point x="998" y="883"/>
      <point x="905" y="809"/>
      <point x="794" y="774" type="curve"/>
      <point x="793" y="768" type="line"/>
      <point x="852" y="755"/>
      <point x="902" y="729"/>
      <point x="943" y="691" type="curve" smooth="yes"/>
      <point x="1025" y="614"/>
      <point x="1064" y="503"/>
      <point x="1044" y="384" type="curve" smooth="yes"/>
      <point x="1031" y="309"/>
      <point x="999" y="242"/>
      <point x="948" y="181" type="curve" smooth="yes"/>
      <point x="896" y="120"/>
      <point x="832" y="71"/>
      <point x="756" y="35" type="curve" smooth="yes"/>
      <point x="680" y="-2"/>
      <point x="599" y="-20"/>
    </contour>
    <contour>
      <point x="512" y="26" type="curve" smooth="yes"/>
      <point x="590" y="26"/>
      <point x="664" y="42"/>
      <point x="733" y="75" type="curve" smooth="yes"/>
      <point x="802" y="108"/>
      <point x="861" y="151"/>
      <point x="909" y="206" type="curve" smooth="yes"/>
      <point x="956" y="261"/>
      <point x="985" y="321"/>
      <point x="996" y="386" type="curve" smooth="yes"/>
      <point x="1007" y="453"/>
      <point x="1000" y="513"/>
      <point x="973" y="568" type="curve" smooth="yes"/>
      <point x="920" y="677"/>
      <point x="804" y="748"/>
      <point x="648" y="748" type="curve" smooth="yes"/>
      <point x="571" y="748"/>
      <point x="497" y="732"/>
      <point x="428" y="699" type="curve" smooth="yes"/>
      <point x="358" y="666"/>
      <point x="299" y="623"/>
      <point x="252" y="568" type="curve" smooth="yes"/>
      <point x="205" y="513"/>
      <point x="175" y="453"/>
      <point x="164" y="386" type="curve" smooth="yes"/>
      <point x="153" y="321"/>
      <point x="161" y="261"/>
      <point x="188" y="206" type="curve" smooth="yes"/>
      <point x="241" y="97"/>
      <point x="359" y="26"/>
    </contour>
    <contour>
      <point x="638" y="788" type="curve" smooth="yes"/>
      <point x="705" y="788"/>
      <point x="770" y="804"/>
      <point x="833" y="836" type="curve" smooth="yes"/>
      <point x="895" y="867"/>
      <point x="948" y="909"/>
      <point x="991" y="961" type="curve" smooth="yes"/>
      <point x="1034" y="1013"/>
      <point x="1061" y="1070"/>
      <point x="1071" y="1132" type="curve" smooth="yes"/>
      <point x="1082" y="1194"/>
      <point x="1075" y="1250"/>
      <point x="1052" y="1301" type="curve" smooth="yes"/>
      <point x="1004" y="1401"/>
      <point x="901" y="1464"/>
      <point x="766" y="1464" type="curve" smooth="yes"/>
      <point x="699" y="1464"/>
      <point x="635" y="1449"/>
      <point x="574" y="1420" type="curve" smooth="yes"/>
      <point x="512" y="1391"/>
      <point x="460" y="1351"/>
      <point x="417" y="1301" type="curve" smooth="yes"/>
      <point x="374" y="1250"/>
      <point x="348" y="1194"/>
      <point x="337" y="1132" type="curve" smooth="yes"/>
      <point x="327" y="1070"/>
      <point x="334" y="1013"/>
      <point x="357" y="961" type="curve" smooth="yes"/>
      <point x="403" y="857"/>
      <point x="505" y="788"/>
    </contour>
  </outline>
</glyph>
<glyph name="nine.ss01" format="2">
  <advance width="1154"/>
  <unicode hex="0039"/>
  <unicode hex="E070"/>
  <outline>
    <contour>
      <point x="734" y="1510" type="curve" smooth="yes"/>
      <point x="813" y="1510"/>
      <point x="882" y="1489"/>
      <point x="941" y="1448" type="curve" smooth="yes"/>
      <point x="999" y="1406"/>
      <point x="1042" y="1350"/>
      <point x="1069" y="1279" type="curve" smooth="yes"/>
      <point x="1096" y="1208"/>
      <point x="1102" y="1130"/>
      <point x="1087" y="1044" type="curve" smooth="yes"/>
      <point x="1081" y="1007"/>
      <point x="1071" y="971"/>
      <point x="1057" y="936" type="curve" smooth="yes"/>
      <point x="1029" y="867"/>
      <point x="988" y="804"/>
      <point x="940" y="748" type="curve" smooth="yes"/>
      <point x="300" y="0" type="line"/>
      <point x="240" y="0" type="line"/>
      <point x="825" y="682" type="line"/>
      <point x="839" y="682" type="line"/>
      <point x="828" y="667"/>
      <point x="810" y="652"/>
      <point x="786" y="637" type="curve" smooth="yes"/>
      <point x="737" y="605"/>
      <point x="667" y="580"/>
      <point x="580" y="580" type="curve" smooth="yes"/>
      <point x="501" y="580"/>
      <point x="432" y="601"/>
      <point x="374" y="643" type="curve" smooth="yes"/>
      <point x="316" y="684"/>
      <point x="274" y="740"/>
      <point x="247" y="811" type="curve" smooth="yes"/>
      <point x="220" y="881"/>
      <point x="213" y="959"/>
      <point x="227" y="1044" type="curve" smooth="yes"/>
      <point x="242" y="1130"/>
      <point x="274" y="1208"/>
      <point x="324" y="1279" type="curve" smooth="yes"/>
      <point x="374" y="1350"/>
      <point x="435" y="1406"/>
      <point x="507" y="1448" type="curve" smooth="yes"/>
      <point x="579" y="1489"/>
      <point x="655" y="1510"/>
    </contour>
    <contour>
      <point x="735" y="1464" type="curve" smooth="yes"/>
      <point x="665" y="1464"/>
      <point x="597" y="1445"/>
      <point x="531" y="1408" type="curve" smooth="yes"/>
      <point x="465" y="1370"/>
      <point x="409" y="1319"/>
      <point x="363" y="1256" type="curve" smooth="yes"/>
      <point x="316" y="1192"/>
      <point x="286" y="1121"/>
      <point x="273" y="1044" type="curve" smooth="yes"/>
      <point x="260" y="967"/>
      <point x="266" y="897"/>
      <point x="289" y="834" type="curve" smooth="yes"/>
      <point x="335" y="707"/>
      <point x="440" y="626"/>
      <point x="580" y="626" type="curve" smooth="yes"/>
      <point x="651" y="626"/>
      <point x="719" y="645"/>
      <point x="785" y="683" type="curve" smooth="yes"/>
      <point x="850" y="720"/>
      <point x="906" y="771"/>
      <point x="953" y="834" type="curve" smooth="yes"/>
      <point x="999" y="897"/>
      <point x="1028" y="967"/>
      <point x="1041" y="1044" type="curve" smooth="yes"/>
      <point x="1054" y="1121"/>
      <point x="1050" y="1192"/>
      <point x="1027" y="1256" type="curve" smooth="yes"/>
      <point x="982" y="1383"/>
      <point x="876" y="1464"/>
    </contour>
  </outline>
</glyph>
<glyph name="greater" format="2">
  <advance width="1303"/>
  <unicode hex="003E"/>
  <outline>
    <contour>
      <point x="1089" y="558" type="line"/>
      <point x="207" y="40" type="line"/>
      <point x="217" y="96" type="line"/>
      <point x="1049" y="584" type="line"/>
      <point x="1039" y="570" type="line"/>
      <point x="1043" y="594" type="line"/>
      <point x="1049" y="578" type="line"/>
      <point x="377" y="1068" type="line"/>
      <point x="385" y="1122" type="line"/>
      <point x="1097" y="606" type="line"/>
    </contour>
  </outline>
</glyph>
<glyph name="question" format="2">
  <advance width="981"/>
  <unicode hex="003F"/>
  <outline>
    <contour>
      <point x="405" y="442" type="line"/>
      <point x="422" y="544" type="line" smooth="yes"/>
      <point x="433" y="611"/>
      <point x="487" y="715"/>
      <point x="590" y="809"/>
      <point x="673" y="862" type="qcurve"/>
      <point x="797" y="939"/>
      <point x="904" y="1071"/>
      <point x="917" y="1150" type="qcurve" smooth="yes"/>
      <point x="932" y="1243"/>
      <point x="867" y="1384"/>
      <point x="730" y="1464"/>
      <point x="636" y="1464" type="qcurve" smooth="yes"/>
      <point x="537" y="1464"/>
      <point x="367" y="1373"/>
      <point x="252" y="1217"/>
      <point x="235" y="1118" type="qcurve"/>
      <point x="189" y="1118" type="line"/>
      <point x="208" y="1230"/>
      <point x="335" y="1407"/>
      <point x="525" y="1510"/>
      <point x="636" y="1510" type="qcurve" smooth="yes"/>
      <point x="743" y="1510"/>
      <point x="902" y="1416"/>
      <point x="980" y="1251"/>
      <point x="962" y="1146" type="qcurve" smooth="yes"/>
      <point x="946" y="1052"/>
      <point x="828" y="907"/>
      <point x="693" y="821" type="qcurve" smooth="yes"/>
      <point x="616" y="772"/>
      <point x="526" y="690"/>
      <point x="480" y="603"/>
      <point x="470" y="544" type="qcurve" smooth="yes"/>
      <point x="453" y="442" type="line"/>
    </contour>
    <contour>
      <point x="355" y="-9" type="qcurve" smooth="yes"/>
      <point x="333" y="-9"/>
      <point x="306" y="22"/>
      <point x="310" y="44" type="qcurve" smooth="yes"/>
      <point x="314" y="66"/>
      <point x="350" y="97"/>
      <point x="372" y="97" type="qcurve" smooth="yes"/>
      <point x="394" y="97"/>
      <point x="420" y="66"/>
      <point x="416" y="44" type="qcurve" smooth="yes"/>
      <point x="412" y="22"/>
      <point x="377" y="-9"/>
    </contour>
  </outline>
</glyph>
<glyph name="question.ss07" format="2">
  <advance width="981"/>
  <unicode hex="003F"/>
  <unicode hex="E2B0"/>
  <outline>
    <contour>
      <point x="405" y="442" type="line"/>
      <point x="422" y="544" type="line" smooth="yes"/>
      <point x="433" y="611"/>
      <point x="487" y="715"/>
      <point x="590" y="809"/>
      <point x="673" y="862" type="qcurve"/>
      <point x="797" y="939"/>
      <point x="903" y="1067"/>
      <point x="916" y="1146" type="qcurve" smooth="yes"/>
      <point x="931" y="1239"/>
      <point x="866" y="1382"/>
      <point x="730" y="1464"/>
      <point x="636" y="1464" type="qcurve" smooth="yes"/>
      <point x="537" y="1464"/>
      <point x="367" y="1373"/>
      <point x="252" y="1217"/>
      <point x="235" y="1118" type="qcurve"/>
      <point x="189" y="1118" type="line"/>
      <point x="208" y="1230"/>
      <point x="339" y="1407"/>
      <point x="533" y="1510"/>
      <point x="644" y="1510" type="qcurve" smooth="yes"/>
      <point x="751" y="1510"/>
      <point x="906" y="1416"/>
      <point x="979" y="1251"/>
      <point x="962" y="1146" type="qcurve"/>
      <point x="946" y="1054"/>
      <point x="826" y="909"/>
      <point x="692" y="824" type="qcurve" smooth="yes"/>
      <point x="615" y="774"/>
      <point x="525" y="691"/>
      <point x="480" y="603"/>
      <point x="470" y="544" type="qcurve" smooth="yes"/>
      <point x="453" y="442" type="line"/>
    </contour>
    <contour>
      <point x="311" y="0" type="line"/>
      <point x="326" y="90" type="line"/>
      <point x="416" y="90" type="line"/>
      <point x="401" y="0" type="line"/>
    </contour>
  </outline>
</glyph>
<glyph name="at" format="2">
  <advance width="2008"/>
  <unicode hex="0040"/>
  <outline>
    <contour>
      <point x="846" y="-396" type="curve" smooth="yes"/>
      <point x="609" y="-396"/>
      <point x="413" y="-296"/>
      <point x="284" y="-128" type="curve" smooth="yes"/>
      <point x="155" y="40"/>
      <point x="99" y="266"/>
      <point x="140" y="518" type="curve" smooth="yes"/>
      <point x="161" y="645"/>
      <point x="203" y="763"/>
      <point x="266" y="874" type="curve" smooth="yes"/>
      <point x="329" y="984"/>
      <point x="406" y="1081"/>
      <point x="499" y="1165" type="curve" smooth="yes"/>
      <point x="591" y="1248"/>
      <point x="693" y="1314"/>
      <point x="804" y="1361" type="curve" smooth="yes"/>
      <point x="915" y="1408"/>
      <point x="1030" y="1432"/>
      <point x="1149" y="1432" type="curve" smooth="yes"/>
      <point x="1385" y="1432"/>
      <point x="1580" y="1332"/>
      <point x="1710" y="1165" type="curve" smooth="yes"/>
      <point x="1840" y="997"/>
      <point x="1897" y="771"/>
      <point x="1854" y="518" type="curve" smooth="yes"/>
      <point x="1833" y="386"/>
      <point x="1777" y="271"/>
      <point x="1699" y="188" type="curve" smooth="yes"/>
      <point x="1621" y="104"/>
      <point x="1525" y="56"/>
      <point x="1421" y="56" type="curve" smooth="yes"/>
      <point x="1382" y="56"/>
      <point x="1353" y="63"/>
      <point x="1333" y="77" type="curve" smooth="yes"/>
      <point x="1292" y="105"/>
      <point x="1285" y="169"/>
      <point x="1302" y="280" type="curve"/>
      <point x="1296" y="280" type="line"/>
      <point x="1249" y="207"/>
      <point x="1191" y="148"/>
      <point x="1120" y="103" type="curve" smooth="yes"/>
      <point x="1049" y="57"/>
      <point x="975" y="34"/>
      <point x="898" y="34" type="curve" smooth="yes"/>
      <point x="821" y="34"/>
      <point x="755" y="56"/>
      <point x="700" y="99" type="curve" smooth="yes"/>
      <point x="645" y="142"/>
      <point x="605" y="201"/>
      <point x="580" y="274" type="curve" smooth="yes"/>
      <point x="555" y="347"/>
      <point x="550" y="429"/>
      <point x="565" y="518" type="curve" smooth="yes"/>
      <point x="580" y="607"/>
      <point x="612" y="688"/>
      <point x="661" y="761" type="curve" smooth="yes"/>
      <point x="710" y="834"/>
      <point x="769" y="892"/>
      <point x="839" y="935" type="curve" smooth="yes"/>
      <point x="908" y="978"/>
      <point x="981" y="1000"/>
      <point x="1058" y="1000" type="curve" smooth="yes"/>
      <point x="1135" y="1000"/>
      <point x="1202" y="978"/>
      <point x="1258" y="933" type="curve" smooth="yes"/>
      <point x="1313" y="888"/>
      <point x="1352" y="828"/>
      <point x="1375" y="754" type="curve"/>
      <point x="1381" y="754" type="line"/>
      <point x="1419" y="986" type="line"/>
      <point x="1465" y="986" type="line"/>
      <point x="1348" y="280" type="line" smooth="yes"/>
      <point x="1336" y="209"/>
      <point x="1334" y="161"/>
      <point x="1343" y="138" type="curve" smooth="yes"/>
      <point x="1352" y="114"/>
      <point x="1378" y="102"/>
      <point x="1421" y="102" type="curve" smooth="yes"/>
      <point x="1480" y="102"/>
      <point x="1537" y="120"/>
      <point x="1591" y="156" type="curve" smooth="yes"/>
      <point x="1699" y="228"/>
      <point x="1781" y="359"/>
      <point x="1808" y="518" type="curve" smooth="yes"/>
      <point x="1848" y="758"/>
      <point x="1795" y="973"/>
      <point x="1675" y="1132" type="curve" smooth="yes"/>
      <point x="1555" y="1291"/>
      <point x="1372" y="1386"/>
      <point x="1149" y="1386" type="curve" smooth="yes"/>
      <point x="1037" y="1386"/>
      <point x="928" y="1364"/>
      <point x="822" y="1319" type="curve" smooth="yes"/>
      <point x="715" y="1274"/>
      <point x="618" y="1211"/>
      <point x="529" y="1132" type="curve" smooth="yes"/>
      <point x="440" y="1053"/>
      <point x="366" y="961"/>
      <point x="306" y="856" type="curve" smooth="yes"/>
      <point x="246" y="751"/>
      <point x="206" y="638"/>
      <point x="186" y="518" type="curve" smooth="yes"/>
      <point x="146" y="278"/>
      <point x="198" y="63"/>
      <point x="318" y="-96" type="curve" smooth="yes"/>
      <point x="438" y="-255"/>
      <point x="622" y="-350"/>
      <point x="846" y="-350" type="curve" smooth="yes"/>
      <point x="899" y="-350"/>
      <point x="953" y="-345"/>
      <point x="1007" y="-334" type="curve" smooth="yes"/>
      <point x="1115" y="-312"/>
      <point x="1223" y="-269"/>
      <point x="1320" y="-206" type="curve"/>
      <point x="1344" y="-244" type="line"/>
      <point x="1292" y="-277"/>
      <point x="1238" y="-304"/>
      <point x="1183" y="-327" type="curve" smooth="yes"/>
      <point x="1072" y="-372"/>
      <point x="959" y="-396"/>
    </contour>
    <contour>
      <point x="897" y="80" type="curve" smooth="yes"/>
      <point x="964" y="80"/>
      <point x="1030" y="100"/>
      <point x="1093" y="139" type="curve" smooth="yes"/>
      <point x="1156" y="178"/>
      <point x="1210" y="231"/>
      <point x="1255" y="298" type="curve" smooth="yes"/>
      <point x="1300" y="364"/>
      <point x="1329" y="437"/>
      <point x="1342" y="518" type="curve" smooth="yes"/>
      <point x="1355" y="599"/>
      <point x="1352" y="672"/>
      <point x="1331" y="738" type="curve" smooth="yes"/>
      <point x="1290" y="869"/>
      <point x="1191" y="954"/>
      <point x="1058" y="954" type="curve" smooth="yes"/>
      <point x="991" y="954"/>
      <point x="926" y="934"/>
      <point x="863" y="895" type="curve" smooth="yes"/>
      <point x="799" y="856"/>
      <point x="744" y="803"/>
      <point x="699" y="738" type="curve" smooth="yes"/>
      <point x="654" y="672"/>
      <point x="624" y="599"/>
      <point x="611" y="518" type="curve" smooth="yes"/>
      <point x="598" y="437"/>
      <point x="602" y="364"/>
      <point x="623" y="298" type="curve" smooth="yes"/>
      <point x="665" y="165"/>
      <point x="764" y="80"/>
    </contour>
  </outline>
</glyph>
<glyph name="A" format="2">
  <advance width="1310"/>
  <unicode hex="0041"/>
  <anchor x="765" y="0" name="m.uni0326"/>
  <anchor x="1012" y="1490" name="m.uni030F_1"/>
  <anchor x="1562" y="0" name="m.uni0328_4"/>
  <outline>
    <contour>
      <point x="-27" y="0" type="line"/>
      <point x="777" y="1490" type="line"/>
      <point x="840" y="1490" type="line"/>
      <point x="1151" y="0" type="line"/>
      <point x="1102" y="0" type="line"/>
      <point x="861" y="1154" type="line"/>
      <point x="845" y="1234"/>
      <point x="812" y="1394"/>
      <point x="796" y="1474" type="qcurve"/>
      <point x="814" y="1474" type="line"/>
      <point x="771" y="1394"/>
      <point x="687" y="1234"/>
      <point x="643" y="1154" type="qcurve"/>
      <point x="22" y="0" type="line"/>
    </contour>
    <contour>
      <point x="274" y="496" type="line"/>
      <point x="282" y="542" type="line"/>
      <point x="1022" y="542" type="line"/>
      <point x="1014" y="496" type="line"/>
    </contour>
  </outline>
</glyph>
<glyph name="D" format="2">
  <advance width="1460"/>
  <unicode hex="0044"/>
  <anchor x="613" y="0" name="m.uni0326"/>
  <anchor x="802" y="1490" name="m.uni030F_1"/>
  <outline>
    <contour>
      <point x="529" y="0" type="qcurve" smooth="yes"/>
      <point x="163" y="0" type="line"/>
      <point x="171" y="46" type="line"/>
      <point x="529" y="46" type="line" smooth="yes"/>
      <point x="736" y="46"/>
      <point x="1056" y="214"/>
      <point x="1263" y="530"/>
      <point x="1299" y="750" type="qcurve" smooth="yes"/>
      <point x="1335" y="968"/>
      <point x="1248" y="1278"/>
      <point x="1008" y="1444"/>
      <point x="814" y="1444" type="qcurve" smooth="yes"/>
      <point x="402" y="1444" type="line"/>
      <point x="410" y="1490" type="line"/>
      <point x="814" y="1490" type="line" smooth="yes"/>
      <point x="1020" y="1490"/>
      <point x="1283" y="1313"/>
      <point x="1384" y="982"/>
      <point x="1345" y="750" type="qcurve" smooth="yes"/>
      <point x="1306" y="513"/>
      <point x="1087" y="177"/>
      <point x="748" y="0"/>
    </contour>
    <contour>
      <point x="432" y="1490" type="line"/>
      <point x="185" y="0" type="line"/>
      <point x="139" y="0" type="line"/>
      <point x="386" y="1490" type="line"/>
    </contour>
  </outline>
</glyph>
<glyph name="E" format="2">
  <advance width="1196"/>
  <unicode hex="0045"/>
  <anchor x="555" y="0" name="m.uni0326"/>
  <anchor x="802" y="1490" name="m.uni030F_1"/>
  <anchor x="508" y="0" name="m.uni0327_3"/>
  <anchor x="1042" y="0" name="m.uni0328_4"/>
  <outline>
    <contour>
      <point x="139" y="0" type="line"/>
      <point x="386" y="1490" type="line"/>
      <point x="1180" y="1490" type="line"/>
      <point x="1172" y="1442" type="line"/>
      <point x="426" y="1442" type="line"/>
      <point x="314" y="768" type="line"/>
      <point x="1018" y="768" type="line"/>
      <point x="1011" y="722" type="line"/>
      <point x="307" y="722" type="line"/>
      <point x="195" y="46" type="line"/>
      <point x="963" y="46" type="line"/>
      <point x="955" y="0" type="line"/>
    </contour>
  </outline>
</glyph>
<glyph name="G.1" format="2">
  <advance width="1512"/>
  <unicode hex="0047"/>
  <outline>
    <contour>
      <point x="674" y="-20" type="curve" smooth="yes"/>
      <point x="549" y="-20"/>
      <point x="445" y="12"/>
      <point x="362" y="76" type="curve" smooth="yes"/>
      <point x="279" y="140"/>
      <point x="222" y="230"/>
      <point x="190" y="345" type="curve" smooth="yes"/>
      <point x="157" y="460"/>
      <point x="153" y="593"/>
      <point x="178" y="744" type="curve" smooth="yes"/>
      <point x="217" y="973"/>
      <point x="309" y="1164"/>
      <point x="441" y="1300" type="curve" smooth="yes"/>
      <point x="572" y="1435"/>
      <point x="738" y="1510"/>
      <point x="923" y="1510" type="curve" smooth="yes"/>
      <point x="1096" y="1510"/>
      <point x="1219" y="1444"/>
      <point x="1298" y="1347" type="curve" smooth="yes"/>
      <point x="1377" y="1250"/>
      <point x="1413" y="1131"/>
      <point x="1413" y="1024" type="curve"/>
      <point x="1366" y="1024" type="line"/>
      <point x="1365" y="1125"/>
      <point x="1329" y="1233"/>
      <point x="1254" y="1320" type="curve" smooth="yes"/>
      <point x="1179" y="1407"/>
      <point x="1067" y="1464"/>
      <point x="915" y="1464" type="curve" smooth="yes"/>
      <point x="801" y="1464"/>
      <point x="696" y="1434"/>
      <point x="601" y="1374" type="curve" smooth="yes"/>
      <point x="505" y="1314"/>
      <point x="424" y="1230"/>
      <point x="359" y="1122" type="curve" smooth="yes"/>
      <point x="293" y="1014"/>
      <point x="248" y="888"/>
      <point x="224" y="744" type="curve" smooth="yes"/>
      <point x="201" y="603"/>
      <point x="204" y="478"/>
      <point x="233" y="370" type="curve" smooth="yes"/>
      <point x="292" y="154"/>
      <point x="448" y="26"/>
      <point x="681" y="26" type="curve" smooth="yes"/>
      <point x="790" y="26"/>
      <point x="888" y="51"/>
      <point x="976" y="101" type="curve" smooth="yes"/>
      <point x="1152" y="200"/>
      <point x="1274" y="387"/>
      <point x="1315" y="636" type="curve"/>
      <point x="1354" y="636" type="line"/>
      <point x="1353" y="628" type="line" smooth="yes"/>
      <point x="1329" y="431"/>
      <point x="1247" y="269"/>
      <point x="1126" y="156" type="curve" smooth="yes"/>
      <point x="1005" y="43"/>
      <point x="849" y="-20"/>
    </contour>
    <contour>
      <point x="1207" y="0" type="line"/>
      <point x="1253" y="279" type="line"/>
      <point x="1323" y="626" type="line"/>
      <point x="795" y="626" type="line"/>
      <point x="802" y="672" type="line"/>
      <point x="1364" y="672" type="line"/>
      <point x="1253" y="0" type="line"/>
    </contour>
  </outline>
</glyph>
<glyph name="H" format="2">
  <advance width="1506"/>
  <unicode hex="0048"/>
  <outline>
    <contour>
      <point x="139" y="0" type="line"/>
      <point x="386" y="1490" type="line"/>
      <point x="434" y="1490" type="line"/>
      <point x="317" y="784" type="line"/>
      <point x="1265" y="784" type="line"/>
      <point x="1382" y="1490" type="line"/>
      <point x="1428" y="1490" type="line"/>
      <point x="1181" y="0" type="line"/>
      <point x="1135" y="0" type="line"/>
      <point x="1257" y="738" type="line"/>
      <point x="309" y="738" type="line"/>
      <point x="187" y="0" type="line"/>
    </contour>
  </outline>
</glyph>
<glyph name="I" format="2">
  <advance width="510"/>
  <unicode hex="0049"/>
  <anchor x="243" y="0" name="m.uni0326"/>
  <anchor x="494" y="1490" name="m.uni030F_1"/>
  <anchor x="431" y="0" name="m.uni0328_4"/>
  <outline>
    <contour>
      <point x="432" y="1490" type="line"/>
      <point x="185" y="0" type="line"/>
      <point x="139" y="0" type="line"/>
      <point x="386" y="1490" type="line"/>
    </contour>
  </outline>
</glyph>
<glyph name="J" format="2">
  <advance width="1144"/>
  <unicode hex="004A"/>
  <anchor x="1198" y="1490" name="m.uni030F_1"/>
  <outline>
    <contour>
      <point x="464" y="-20" type="qcurve" smooth="yes"/>
      <point x="305" y="-20"/>
      <point x="126" y="154"/>
      <point x="126" y="307" type="qcurve" smooth="yes"/>
      <point x="126" y="321"/>
      <point x="128" y="356"/>
      <point x="136" y="415"/>
      <point x="144" y="464" type="qcurve"/>
      <point x="190" y="464" type="line"/>
      <point x="182" y="415"/>
      <point x="174" y="357"/>
      <point x="172" y="324"/>
      <point x="172" y="310" type="qcurve" smooth="yes"/>
      <point x="172" y="177"/>
      <point x="322" y="26"/>
      <point x="462" y="26" type="qcurve" smooth="yes"/>
      <point x="624" y="26"/>
      <point x="842" y="224"/>
      <point x="870" y="396" type="qcurve" smooth="yes"/>
      <point x="1051" y="1490" type="line"/>
      <point x="1098" y="1490" type="line"/>
      <point x="917" y="396" type="line"/>
      <point x="886" y="204"/>
      <point x="645" y="-20"/>
    </contour>
  </outline>
</glyph>
<glyph name="L" format="2">
  <advance width="1152"/>
  <unicode hex="004C"/>
  <outline>
    <contour>
      <point x="139" y="0" type="line"/>
      <point x="386" y="1490" type="line"/>
      <point x="434" y="1490" type="line"/>
      <point x="195" y="46" type="line"/>
      <point x="939" y="46" type="line"/>
      <point x="931" y="0" type="line"/>
    </contour>
  </outline>
</glyph>
<glyph name="M" format="2">
  <advance width="1832"/>
  <unicode hex="004D"/>
  <outline>
    <contour>
      <point x="139" y="0" type="line"/>
      <point x="386" y="1490" type="line"/>
      <point x="450" y="1490" type="line"/>
      <point x="768" y="304" type="line" smooth="yes"/>
      <point x="777" y="270"/>
      <point x="795" y="201"/>
      <point x="813" y="130"/>
      <point x="830" y="60"/>
      <point x="839" y="24" type="qcurve"/>
      <point x="815" y="24" type="line"/>
      <point x="836" y="60"/>
      <point x="877" y="130"/>
      <point x="918" y="201"/>
      <point x="959" y="270"/>
      <point x="979" y="304" type="qcurve" smooth="yes"/>
      <point x="1690" y="1490" type="line"/>
      <point x="1754" y="1490" type="line"/>
      <point x="1507" y="0" type="line"/>
      <point x="1461" y="0" type="line"/>
      <point x="1649" y="1136" type="line" smooth="yes"/>
      <point x="1656" y="1176"/>
      <point x="1670" y="1258"/>
      <point x="1684" y="1342"/>
      <point x="1698" y="1424"/>
      <point x="1704" y="1464" type="qcurve"/>
      <point x="1718" y="1464" type="line"/>
      <point x="1694" y="1422"/>
      <point x="1647" y="1339"/>
      <point x="1599" y="1257"/>
      <point x="1551" y="1176"/>
      <point x="1527" y="1136" type="qcurve" smooth="yes"/>
      <point x="846" y="0" type="line"/>
      <point x="800" y="0" type="line"/>
      <point x="495" y="1136" type="line" smooth="yes"/>
      <point x="481" y="1190"/>
      <point x="453" y="1298"/>
      <point x="426" y="1408"/>
      <point x="412" y="1464" type="qcurve"/>
      <point x="426" y="1464" type="line"/>
      <point x="420" y="1424"/>
      <point x="407" y="1342"/>
      <point x="393" y="1258"/>
      <point x="380" y="1176"/>
      <point x="373" y="1136" type="qcurve" smooth="yes"/>
      <point x="185" y="0" type="line"/>
    </contour>
  </outline>
</glyph>
<glyph name="N" format="2">
  <advance width="1580"/>
  <unicode hex="004E"/>
  <anchor x="821" y="0" name="m.uni0326"/>
  <anchor x="1068" y="1490" name="m.uni030F_1"/>
  <outline>
    <contour>
      <point x="139" y="0" type="line"/>
      <point x="386" y="1490" type="line"/>
      <point x="428" y="1490" type="line"/>
      <point x="1063" y="359" type="line" smooth="yes"/>
      <point x="1083" y="324"/>
      <point x="1102" y="290"/>
      <point x="1121" y="255" type="curve" smooth="yes"/>
      <point x="1158" y="186"/>
      <point x="1195" y="117"/>
      <point x="1234" y="48" type="curve"/>
      <point x="1221" y="48" type="line"/>
      <point x="1227" y="83"/>
      <point x="1232" y="117"/>
      <point x="1237" y="152" type="curve" smooth="yes"/>
      <point x="1242" y="186"/>
      <point x="1247" y="220"/>
      <point x="1252" y="255" type="curve" smooth="yes"/>
      <point x="1257" y="290"/>
      <point x="1263" y="324"/>
      <point x="1268" y="359" type="curve" smooth="yes"/>
      <point x="1456" y="1490" type="line"/>
      <point x="1502" y="1490" type="line"/>
      <point x="1255" y="0" type="line"/>
      <point x="1213" y="0" type="line"/>
      <point x="579" y="1129" type="line" smooth="yes"/>
      <point x="560" y="1164"/>
      <point x="541" y="1198"/>
      <point x="522" y="1233" type="curve" smooth="yes"/>
      <point x="484" y="1302"/>
      <point x="447" y="1372"/>
      <point x="408" y="1441" type="curve"/>
      <point x="420" y="1441" type="line"/>
      <point x="414" y="1406"/>
      <point x="409" y="1372"/>
      <point x="404" y="1337" type="curve" smooth="yes"/>
      <point x="394" y="1268"/>
      <point x="384" y="1198"/>
      <point x="372" y="1129" type="curve" smooth="yes"/>
      <point x="185" y="0" type="line"/>
    </contour>
  </outline>
</glyph>
<glyph name="P" format="2">
  <advance width="1241"/>
  <unicode hex="0050"/>
  <anchor x="854" y="1490" name="m.uni030F_1"/>
  <outline>
    <contour>
      <point x="139" y="0" type="line"/>
      <point x="386" y="1490" type="line"/>
      <point x="824" y="1490" type="line" smooth="yes"/>
      <point x="907" y="1490"/>
      <point x="978" y="1471"/>
      <point x="1036" y="1434" type="curve" smooth="yes"/>
      <point x="1151" y="1359"/>
      <point x="1206" y="1223"/>
      <point x="1177" y="1054" type="curve" smooth="yes"/>
      <point x="1163" y="969"/>
      <point x="1133" y="894"/>
      <point x="1086" y="829" type="curve" smooth="yes"/>
      <point x="992" y="698"/>
      <point x="847" y="620"/>
      <point x="680" y="620" type="curve" smooth="yes"/>
      <point x="266" y="620" type="line"/>
      <point x="273" y="666" type="line"/>
      <point x="687" y="666" type="line" smooth="yes"/>
      <point x="761" y="666"/>
      <point x="829" y="683"/>
      <point x="892" y="716" type="curve" smooth="yes"/>
      <point x="1017" y="782"/>
      <point x="1107" y="902"/>
      <point x="1131" y="1054" type="curve" smooth="yes"/>
      <point x="1144" y="1130"/>
      <point x="1139" y="1197"/>
      <point x="1116" y="1256" type="curve" smooth="yes"/>
      <point x="1071" y="1373"/>
      <point x="964" y="1444"/>
      <point x="816" y="1444" type="curve" smooth="yes"/>
      <point x="424" y="1444" type="line"/>
      <point x="185" y="0" type="line"/>
    </contour>
  </outline>
</glyph>
<glyph name="Q" format="2">
  <advance width="1530"/>
  <unicode hex="0051"/>
  <anchor x="656" y="0" name="m.uni0326"/>
  <anchor x="905" y="1490" name="m.uni030F_1"/>
  <anchor x="1426" y="961" name="m.uni0328_4"/>
  <outline>
    <contour>
      <point x="812" y="466" type="line"/>
      <point x="865" y="466" type="line"/>
      <point x="1052" y="146" type="line"/>
      <point x="1060" y="134" type="line"/>
      <point x="1221" y="-140" type="line"/>
      <point x="1168" y="-140" type="line"/>
      <point x="1021" y="110" type="line"/>
      <point x="1013" y="122" type="line"/>
    </contour>
    <contour>
      <point x="673" y="-20" type="qcurve" smooth="yes"/>
      <point x="514" y="-20"/>
      <point x="286" y="125"/>
      <point x="163" y="388"/>
      <point x="163" y="564" type="qcurve" smooth="yes"/>
      <point x="163" y="737"/>
      <point x="268" y="1073"/>
      <point x="466" y="1346"/>
      <point x="745" y="1510"/>
      <point x="920" y="1510" type="qcurve" smooth="yes"/>
      <point x="1078" y="1510"/>
      <point x="1306" y="1365"/>
      <point x="1428" y="1103"/>
      <point x="1428" y="926" type="qcurve" smooth="yes"/>
      <point x="1428" y="754"/>
      <point x="1324" y="417"/>
      <point x="1128" y="144"/>
      <point x="849" y="-20"/>
    </contour>
    <contour>
      <point x="675" y="26" type="qcurve" smooth="yes"/>
      <point x="839" y="26"/>
      <point x="1100" y="182"/>
      <point x="1284" y="443"/>
      <point x="1382" y="760"/>
      <point x="1382" y="922" type="qcurve" smooth="yes"/>
      <point x="1382" y="1087"/>
      <point x="1271" y="1330"/>
      <point x="1063" y="1464"/>
      <point x="919" y="1464" type="qcurve" smooth="yes"/>
      <point x="754" y="1464"/>
      <point x="492" y="1308"/>
      <point x="307" y="1047"/>
      <point x="209" y="729"/>
      <point x="209" y="567" type="qcurve" smooth="yes"/>
      <point x="209" y="404"/>
      <point x="320" y="160"/>
      <point x="529" y="26"/>
    </contour>
  </outline>
</glyph>
<glyph name="R" format="2">
  <advance width="1260"/>
  <unicode hex="0052"/>
  <outline>
    <contour>
      <point x="139" y="0" type="line"/>
      <point x="386" y="1490" type="line"/>
      <point x="824" y="1490" type="line" smooth="yes"/>
      <point x="949" y="1490"/>
      <point x="1123" y="1384"/>
      <point x="1201" y="1192"/>
      <point x="1179" y="1064" type="qcurve" smooth="yes"/>
      <point x="1158" y="938"/>
      <point x="1017" y="748"/>
      <point x="808" y="642"/>
      <point x="683" y="642" type="qcurve" smooth="yes"/>
      <point x="269" y="642" type="line"/>
      <point x="277" y="688" type="line"/>
      <point x="683" y="688" type="line" smooth="yes"/>
      <point x="794" y="688"/>
      <point x="985" y="782"/>
      <point x="1115" y="951"/>
      <point x="1133" y="1064" type="qcurve"/>
      <point x="1162" y="1236"/>
      <point x="991" y="1444"/>
      <point x="824" y="1444" type="qcurve" smooth="yes"/>
      <point x="424" y="1444" type="line"/>
      <point x="185" y="0" type="line"/>
    </contour>
    <contour>
      <point x="1024" y="0" type="line"/>
      <point x="770" y="678" type="line"/>
      <point x="819" y="678" type="line"/>
      <point x="1073" y="0" type="line"/>
    </contour>
  </outline>
</glyph>
<glyph name="S" format="2">
  <advance width="1254"/>
  <unicode hex="0053"/>
  <anchor x="598" y="0" name="m.uni0326"/>
  <anchor x="873" y="1490" name="m.uni030F_1"/>
  <anchor x="596" y="0" name="m.uni0327_3"/>
  <outline>
    <contour>
      <point x="525" y="-22" type="qcurve" smooth="yes"/>
      <point x="390" y="-22"/>
      <point x="202" y="72"/>
      <point x="112" y="240"/>
      <point x="123" y="350" type="qcurve"/>
      <point x="169" y="350" type="line"/>
      <point x="161" y="252"/>
      <point x="237" y="105"/>
      <point x="402" y="24"/>
      <point x="525" y="24" type="qcurve" smooth="yes"/>
      <point x="654" y="24"/>
      <point x="865" y="113"/>
      <point x="1003" y="273"/>
      <point x="1020" y="378" type="qcurve" smooth="yes"/>
      <point x="1033" y="458"/>
      <point x="987" y="578"/>
      <point x="854" y="671"/>
      <point x="735" y="711" type="qcurve" smooth="yes"/>
      <point x="575" y="765" type="line" smooth="yes"/>
      <point x="408" y="821"/>
      <point x="264" y="999"/>
      <point x="286" y="1128" type="qcurve" smooth="yes"/>
      <point x="304" y="1238"/>
      <point x="448" y="1412"/>
      <point x="664" y="1512"/>
      <point x="791" y="1512" type="qcurve" smooth="yes"/>
      <point x="919" y="1512"/>
      <point x="1096" y="1410"/>
      <point x="1180" y="1233"/>
      <point x="1168" y="1118" type="qcurve"/>
      <point x="1122" y="1118" type="line"/>
      <point x="1136" y="1270"/>
      <point x="965" y="1466"/>
      <point x="792" y="1466" type="qcurve" smooth="yes"/>
      <point x="679" y="1466"/>
      <point x="481" y="1379"/>
      <point x="348" y="1226"/>
      <point x="332" y="1128" type="qcurve" smooth="yes"/>
      <point x="323" y="1071"/>
      <point x="345" y="976"/>
      <point x="410" y="896"/>
      <point x="518" y="832"/>
      <point x="593" y="807" type="qcurve" smooth="yes"/>
      <point x="754" y="753" type="line" smooth="yes"/>
      <point x="845" y="722"/>
      <point x="974" y="649"/>
      <point x="1051" y="558"/>
      <point x="1077" y="447"/>
      <point x="1066" y="378" type="qcurve" smooth="yes"/>
      <point x="1047" y="262"/>
      <point x="901" y="81"/>
      <point x="671" y="-22"/>
    </contour>
  </outline>
</glyph>
<glyph name="T" format="2">
  <advance width="1263"/>
  <unicode hex="0054"/>
  <anchor x="657" y="0" name="m.uni0326"/>
  <anchor x="906" y="1490" name="m.uni030F_1"/>
  <anchor x="647" y="0" name="m.uni0327_3"/>
  <outline>
    <contour>
      <point x="275" y="1444" type="line"/>
      <point x="283" y="1490" type="line"/>
      <point x="1289" y="1490" type="line"/>
      <point x="1281" y="1444" type="line"/>
      <point x="801" y="1444" type="line"/>
      <point x="562" y="0" type="line"/>
      <point x="516" y="0" type="line"/>
      <point x="755" y="1444" type="line"/>
    </contour>
  </outline>
</glyph>
<glyph name="U" format="2">
  <advance width="1472"/>
  <unicode hex="0055"/>
  <outline>
    <contour>
      <point x="643" y="-22" type="qcurve" smooth="yes"/>
      <point x="489" y="-22"/>
      <point x="268" y="116"/>
      <point x="166" y="355"/>
      <point x="191" y="506" type="qcurve" smooth="yes"/>
      <point x="354" y="1490" type="line"/>
      <point x="400" y="1490" type="line"/>
      <point x="237" y="502" type="line" smooth="yes"/>
      <point x="214" y="364"/>
      <point x="305" y="148"/>
      <point x="505" y="24"/>
      <point x="644" y="24" type="qcurve" smooth="yes"/>
      <point x="786" y="24"/>
      <point x="1029" y="150"/>
      <point x="1194" y="368"/>
      <point x="1217" y="506" type="qcurve" smooth="yes"/>
      <point x="1380" y="1490" type="line"/>
      <point x="1426" y="1490" type="line"/>
      <point x="1263" y="502" type="line" smooth="yes"/>
      <point x="1238" y="351"/>
      <point x="1058" y="114"/>
      <point x="795" y="-22"/>
    </contour>
  </outline>
</glyph>
<glyph name="V" format="2">
  <advance width="1310"/>
  <unicode hex="0056"/>
  <anchor x="773" y="0" name="m.uni0326"/>
  <anchor x="1020" y="1490" name="m.uni030F_1"/>
  <outline>
    <contour>
      <point x="531" y="0" type="line"/>
      <point x="220" y="1490" type="line"/>
      <point x="266" y="1490" type="line"/>
      <point x="507" y="336" type="line" smooth="yes"/>
      <point x="518" y="283"/>
      <point x="529" y="229"/>
      <point x="540" y="176" type="curve" smooth="yes"/>
      <point x="551" y="123"/>
      <point x="561" y="69"/>
      <point x="572" y="16" type="curve"/>
      <point x="554" y="16" type="line"/>
      <point x="610" y="123"/>
      <point x="668" y="229"/>
      <point x="725" y="336" type="curve" smooth="yes"/>
      <point x="1346" y="1490" type="line"/>
      <point x="1398" y="1490" type="line"/>
      <point x="594" y="0" type="line"/>
    </contour>
  </outline>
</glyph>
<glyph name="W" format="2">
  <advance width="1902"/>
  <unicode hex="0057"/>
  <anchor x="1044" y="0" name="m.uni0326"/>
  <anchor x="1291" y="1490" name="m.uni030F_1"/>
  <outline>
    <contour>
      <point x="395" y="0" type="line"/>
      <point x="220" y="1490" type="line"/>
      <point x="268" y="1490" type="line"/>
      <point x="401" y="352" type="line" smooth="yes"/>
      <point x="406" y="315"/>
      <point x="410" y="277"/>
      <point x="414" y="240" type="curve" smooth="yes"/>
      <point x="422" y="165"/>
      <point x="430" y="91"/>
      <point x="438" y="16" type="curve"/>
      <point x="428" y="16" type="line"/>
      <point x="443" y="53"/>
      <point x="459" y="91"/>
      <point x="475" y="128" type="curve" smooth="yes"/>
      <point x="506" y="203"/>
      <point x="539" y="277"/>
      <point x="571" y="352" type="curve" smooth="yes"/>
      <point x="1070" y="1490" type="line"/>
      <point x="1140" y="1490" type="line"/>
      <point x="1261" y="352" type="line" smooth="yes"/>
      <point x="1265" y="315"/>
      <point x="1269" y="277"/>
      <point x="1273" y="240" type="curve" smooth="yes"/>
      <point x="1280" y="165"/>
      <point x="1287" y="91"/>
      <point x="1294" y="16" type="curve"/>
      <point x="1284" y="16" type="line"/>
      <point x="1300" y="53"/>
      <point x="1316" y="91"/>
      <point x="1333" y="128" type="curve"/>
      <point x="1365" y="203"/>
      <point x="1398" y="277"/>
      <point x="1431" y="352" type="curve" smooth="yes"/>
      <point x="1942" y="1490" type="line"/>
      <point x="1990" y="1490" type="line"/>
      <point x="1321" y="0" type="line"/>
      <point x="1251" y="0" type="line"/>
      <point x="1133" y="1104" type="line" smooth="yes"/>
      <point x="1126" y="1165"/>
      <point x="1120" y="1227"/>
      <point x="1114" y="1288" type="curve" smooth="yes"/>
      <point x="1108" y="1349"/>
      <point x="1102" y="1411"/>
      <point x="1097" y="1472" type="curve"/>
      <point x="1107" y="1472" type="line"/>
      <point x="1081" y="1411"/>
      <point x="1055" y="1349"/>
      <point x="1029" y="1288" type="curve" smooth="yes"/>
      <point x="1003" y="1227"/>
      <point x="976" y="1165"/>
      <point x="949" y="1104" type="curve" smooth="yes"/>
      <point x="465" y="0" type="line"/>
    </contour>
  </outline>
</glyph>
<glyph name="X" format="2">
  <advance width="1270"/>
  <unicode hex="0058"/>
  <anchor x="739" y="-6" name="m.uni0326"/>
  <anchor x="987" y="1490" name="m.uni030F_1"/>
  <outline>
    <contour>
      <point x="-27" y="0" type="line"/>
      <point x="654" y="773" type="line"/>
      <point x="649" y="741" type="line"/>
      <point x="236" y="1490" type="line"/>
      <point x="288" y="1490" type="line"/>
      <point x="545" y="1024" type="line" smooth="yes"/>
      <point x="560" y="997"/>
      <point x="575" y="970"/>
      <point x="590" y="943" type="curve" smooth="yes"/>
      <point x="619" y="889"/>
      <point x="649" y="834"/>
      <point x="677" y="775" type="curve"/>
      <point x="656" y="775" type="line"/>
      <point x="680" y="804"/>
      <point x="704" y="833"/>
      <point x="728" y="861" type="curve" smooth="yes"/>
      <point x="751" y="888"/>
      <point x="775" y="916"/>
      <point x="799" y="943" type="curve" smooth="yes"/>
      <point x="823" y="970"/>
      <point x="847" y="997"/>
      <point x="871" y="1024" type="curve" smooth="yes"/>
      <point x="1282" y="1490" type="line"/>
      <point x="1342" y="1490" type="line"/>
      <point x="680" y="739" type="line"/>
      <point x="686" y="773" type="line"/>
      <point x="1111" y="0" type="line"/>
      <point x="1059" y="0" type="line"/>
      <point x="786" y="496" type="line" smooth="yes"/>
      <point x="772" y="523"/>
      <point x="758" y="549"/>
      <point x="744" y="576" type="curve"/>
      <point x="715" y="628"/>
      <point x="686" y="682"/>
      <point x="658" y="738" type="curve"/>
      <point x="678" y="738" type="line"/>
      <point x="655" y="710"/>
      <point x="632" y="683"/>
      <point x="609" y="656" type="curve" smooth="yes"/>
      <point x="564" y="602"/>
      <point x="518" y="549"/>
      <point x="471" y="496" type="curve" smooth="yes"/>
      <point x="33" y="0" type="line"/>
    </contour>
  </outline>
</glyph>
<glyph name="Y" format="2">
  <advance width="1312"/>
  <unicode hex="0059"/>
  <anchor x="780" y="0" name="m.uni0326"/>
  <anchor x="1015" y="1490" name="m.uni030F_1"/>
  <anchor x="968" y="0" name="m.uni0328_4"/>
  <outline>
    <contour>
      <point x="541" y="0" type="line"/>
      <point x="658" y="706" type="line"/>
      <point x="220" y="1490" type="line"/>
      <point x="272" y="1490" type="line"/>
      <point x="550" y="992" type="line" smooth="yes"/>
      <point x="586" y="928"/>
      <point x="656" y="800"/>
      <point x="691" y="736" type="qcurve"/>
      <point x="673" y="736" type="line"/>
      <point x="729" y="800"/>
      <point x="842" y="928"/>
      <point x="898" y="992" type="qcurve" smooth="yes"/>
      <point x="1340" y="1490" type="line"/>
      <point x="1400" y="1490" type="line"/>
      <point x="704" y="706" type="line"/>
      <point x="587" y="0" type="line"/>
    </contour>
  </outline>
</glyph>
<glyph name="a" format="2">
  <advance width="1108"/>
  <unicode hex="0061"/>
  <anchor x="477" y="0" name="m.uniF6C3"/>
  <anchor x="695" y="1303" name="m.uni030F_1"/>
  <outline>
    <contour>
      <point x="381" y="-23" type="curve" smooth="yes"/>
      <point x="221" y="-23"/>
      <point x="88" y="70"/>
      <point x="88" y="240" type="curve" smooth="yes"/>
      <point x="88" y="520"/>
      <point x="339" y="584"/>
      <point x="567" y="614" type="curve" smooth="yes"/>
      <point x="877" y="655" type="line"/>
      <point x="888" y="722"/>
      <point x="903" y="788"/>
      <point x="903" y="856" type="curve" smooth="yes"/>
      <point x="903" y="1016"/>
      <point x="785" y="1088"/>
      <point x="637" y="1088" type="curve" smooth="yes"/>
      <point x="492" y="1088"/>
      <point x="340" y="1022"/>
      <point x="268" y="890" type="curve"/>
      <point x="227" y="908" type="line"/>
      <point x="307" y="1055"/>
      <point x="473" y="1135"/>
      <point x="637" y="1135" type="curve" smooth="yes"/>
      <point x="807" y="1135"/>
      <point x="951" y="1049"/>
      <point x="951" y="864" type="curve" smooth="yes"/>
      <point x="951" y="843"/>
      <point x="948" y="823"/>
      <point x="945" y="803" type="curve" smooth="yes"/>
      <point x="847" y="214" type="line" smooth="yes"/>
      <point x="837" y="149"/>
      <point x="843" y="43"/>
      <point x="976" y="43" type="curve" smooth="yes"/>
      <point x="997" y="43" type="line"/>
      <point x="992" y="0" type="line"/>
      <point x="960" y="0" type="line" smooth="yes"/>
      <point x="800" y="0"/>
      <point x="792" y="161"/>
      <point x="803" y="227" type="curve"/>
      <point x="802" y="227"/>
      <point x="798" y="227"/>
      <point x="797" y="227" type="curve"/>
      <point x="708" y="81"/>
      <point x="555" y="-23"/>
    </contour>
    <contour>
      <point x="381" y="23" type="curve" smooth="yes"/>
      <point x="627" y="23"/>
      <point x="808" y="249"/>
      <point x="844" y="477" type="curve" smooth="yes"/>
      <point x="863" y="605" type="line"/>
      <point x="579" y="570" type="line" smooth="yes"/>
      <point x="384" y="546"/>
      <point x="135" y="496"/>
      <point x="135" y="249" type="curve" smooth="yes"/>
      <point x="135" y="104"/>
      <point x="243" y="23"/>
    </contour>
  </outline>
</glyph>
<glyph name="d" format="2">
  <advance width="1190"/>
  <unicode hex="0064"/>
  <anchor x="784" y="0" name="m.uni0326"/>
  <anchor x="695" y="1430" name="m.uni030F_1"/>
  <outline>
    <contour>
      <point x="467" y="-24" type="curve" smooth="yes"/>
      <point x="355" y="-24"/>
      <point x="269" y="17"/>
      <point x="208" y="98" type="curve" smooth="yes"/>
      <point x="147" y="179"/>
      <point x="117" y="284"/>
      <point x="117" y="412" type="curve" smooth="yes"/>
      <point x="117" y="495"/>
      <point x="129" y="578"/>
      <point x="154" y="663" type="curve" smooth="yes"/>
      <point x="178" y="748"/>
      <point x="213" y="826"/>
      <point x="259" y="897" type="curve" smooth="yes"/>
      <point x="305" y="968"/>
      <point x="361" y="1026"/>
      <point x="427" y="1069" type="curve" smooth="yes"/>
      <point x="493" y="1112"/>
      <point x="568" y="1134"/>
      <point x="652" y="1134" type="curve" smooth="yes"/>
      <point x="712" y="1134"/>
      <point x="765" y="1122"/>
      <point x="812" y="1098" type="curve" smooth="yes"/>
      <point x="859" y="1073"/>
      <point x="897" y="1038"/>
      <point x="927" y="993" type="curve" smooth="yes"/>
      <point x="956" y="948"/>
      <point x="975" y="894"/>
      <point x="984" y="832" type="curve"/>
      <point x="991" y="832" type="line"/>
      <point x="1100" y="1490" type="line"/>
      <point x="1146" y="1490" type="line"/>
      <point x="899" y="0" type="line"/>
      <point x="853" y="0" type="line"/>
      <point x="900" y="280" type="line"/>
      <point x="894" y="280" type="line"/>
      <point x="864" y="218"/>
      <point x="827" y="164"/>
      <point x="783" y="119" type="curve" smooth="yes"/>
      <point x="739" y="73"/>
      <point x="690" y="38"/>
      <point x="637" y="13" type="curve" smooth="yes"/>
      <point x="583" y="-12"/>
      <point x="526" y="-24"/>
    </contour>
    <contour>
      <point x="468" y="22" type="curve" smooth="yes"/>
      <point x="545" y="22"/>
      <point x="613" y="43"/>
      <point x="674" y="84" type="curve" smooth="yes"/>
      <point x="735" y="125"/>
      <point x="786" y="178"/>
      <point x="829" y="245" type="curve" smooth="yes"/>
      <point x="871" y="312"/>
      <point x="903" y="385"/>
      <point x="925" y="464" type="curve" smooth="yes"/>
      <point x="947" y="543"/>
      <point x="958" y="620"/>
      <point x="958" y="696" type="curve" smooth="yes"/>
      <point x="958" y="811"/>
      <point x="932" y="906"/>
      <point x="879" y="979" type="curve" smooth="yes"/>
      <point x="826" y="1052"/>
      <point x="750" y="1088"/>
      <point x="651" y="1088" type="curve" smooth="yes"/>
      <point x="500" y="1088"/>
      <point x="378" y="1000"/>
      <point x="294" y="868" type="curve" smooth="yes"/>
      <point x="209" y="735"/>
      <point x="163" y="570"/>
      <point x="163" y="414" type="curve" smooth="yes"/>
      <point x="163" y="299"/>
      <point x="189" y="205"/>
      <point x="242" y="132" type="curve" smooth="yes"/>
      <point x="294" y="59"/>
      <point x="369" y="22"/>
    </contour>
  </outline>
</glyph>
<glyph name="e" format="2">
  <advance width="1181"/>
  <unicode hex="0065"/>
  <anchor x="521" y="0" name="m.uniF6C3"/>
  <anchor x="736" y="1303" name="m.uni030F_1"/>
  <outline>
    <contour>
      <point x="521" y="-23" type="curve" smooth="yes"/>
      <point x="257" y="-23"/>
      <point x="119" y="175"/>
      <point x="119" y="424" type="curve" smooth="yes"/>
      <point x="119" y="738"/>
      <point x="337" y="1135"/>
      <point x="689" y="1135" type="curve" smooth="yes"/>
      <point x="930" y="1135"/>
      <point x="1068" y="931"/>
      <point x="1068" y="706" type="curve" smooth="yes"/>
      <point x="1068" y="656"/>
      <point x="1060" y="608"/>
      <point x="1050" y="559" type="curve"/>
      <point x="154" y="559" type="line"/>
      <point x="163" y="605" type="line"/>
      <point x="1012" y="605" type="line"/>
      <point x="1017" y="638"/>
      <point x="1020" y="671"/>
      <point x="1020" y="704" type="curve" smooth="yes"/>
      <point x="1020" y="902"/>
      <point x="904" y="1088"/>
      <point x="689" y="1088" type="curve" smooth="yes"/>
      <point x="418" y="1088"/>
      <point x="222" y="806"/>
      <point x="177" y="564" type="curve"/>
      <point x="170" y="522"/>
      <point x="167" y="479"/>
      <point x="167" y="436" type="curve" smooth="yes"/>
      <point x="167" y="208"/>
      <point x="277" y="23"/>
      <point x="524" y="23" type="curve" smooth="yes"/>
      <point x="680" y="23"/>
      <point x="815" y="103"/>
      <point x="911" y="224" type="curve"/>
      <point x="943" y="198" type="line"/>
      <point x="844" y="62"/>
      <point x="689" y="-23"/>
    </contour>
  </outline>
</glyph>
<glyph name="f" format="2">
  <advance width="594"/>
  <unicode hex="0066"/>
  <anchor x="344" y="0" name="m.uni0326"/>
  <anchor x="852" y="1655" name="m.uni030F_1"/>
  <outline>
    <contour>
      <point x="641" y="1118" type="line"/>
      <point x="633" y="1072" type="line"/>
      <point x="95" y="1072" type="line"/>
      <point x="103" y="1118" type="line"/>
    </contour>
    <contour>
      <point x="136" y="0" type="line"/>
      <point x="351" y="1300" type="line" smooth="yes"/>
      <point x="360" y="1353"/>
      <point x="379" y="1398"/>
      <point x="409" y="1436" type="curve" smooth="yes"/>
      <point x="469" y="1512"/>
      <point x="557" y="1556"/>
      <point x="648" y="1556" type="curve" smooth="yes"/>
      <point x="684" y="1556"/>
      <point x="709" y="1551"/>
      <point x="736" y="1540" type="curve"/>
      <point x="712" y="1499" type="line"/>
      <point x="701" y="1503"/>
      <point x="691" y="1506"/>
      <point x="681" y="1508" type="curve"/>
      <point x="671" y="1509"/>
      <point x="658" y="1510"/>
      <point x="641" y="1510" type="curve" smooth="yes"/>
      <point x="586" y="1510"/>
      <point x="535" y="1491"/>
      <point x="487" y="1454" type="curve" smooth="yes"/>
      <point x="438" y="1417"/>
      <point x="408" y="1365"/>
      <point x="397" y="1300" type="curve" smooth="yes"/>
      <point x="182" y="0" type="line"/>
    </contour>
  </outline>
</glyph>
<glyph name="g" format="2">
  <advance width="1190"/>
  <unicode hex="0067"/>
  <anchor x="574" y="-420" name="m.uni0326"/>
  <anchor x="890" y="1242" name="m.uni030F_1"/>
  <outline>
    <contour>
      <point x="413" y="-442" type="qcurve" smooth="yes"/>
      <point x="319" y="-442"/>
      <point x="167" y="-392"/>
      <point x="68" y="-291"/>
      <point x="52" y="-217" type="qcurve"/>
      <point x="98" y="-201" type="line"/>
      <point x="112" y="-267"/>
      <point x="199" y="-353"/>
      <point x="332" y="-396"/>
      <point x="415" y="-396" type="qcurve" smooth="yes"/>
      <point x="591" y="-396"/>
      <point x="819" y="-209"/>
      <point x="850" y="-22" type="qcurve" smooth="yes"/>
      <point x="900" y="280" type="line"/>
      <point x="894" y="280" type="line"/>
      <point x="849" y="187"/>
      <point x="714" y="62"/>
      <point x="555" y="0"/>
      <point x="473" y="0" type="qcurve" smooth="yes"/>
      <point x="361" y="0"/>
      <point x="202" y="104"/>
      <point x="118" y="293"/>
      <point x="118" y="419" type="qcurve" smooth="yes"/>
      <point x="118" y="542"/>
      <point x="191" y="793"/>
      <point x="329" y="1005"/>
      <point x="528" y="1134"/>
      <point x="654" y="1134" type="qcurve" smooth="yes"/>
      <point x="722" y="1134"/>
      <point x="834" y="1092"/>
      <point x="919" y="1013"/>
      <point x="974" y="902"/>
      <point x="985" y="832" type="qcurve"/>
      <point x="991" y="832" type="line"/>
      <point x="1039" y="1118" type="line"/>
      <point x="1085" y="1118" type="line"/>
      <point x="895" y="-26" type="line" smooth="yes"/>
      <point x="872" y="-163"/>
      <point x="742" y="-349"/>
      <point x="542" y="-442"/>
    </contour>
    <contour>
      <point x="474" y="46" type="qcurve" smooth="yes"/>
      <point x="591" y="46"/>
      <point x="771" y="161"/>
      <point x="895" y="351"/>
      <point x="958" y="582"/>
      <point x="958" y="698" type="qcurve" smooth="yes"/>
      <point x="958" y="870"/>
      <point x="801" y="1088"/>
      <point x="653" y="1088" type="qcurve" smooth="yes"/>
      <point x="539" y="1088"/>
      <point x="358" y="967"/>
      <point x="230" y="770"/>
      <point x="163" y="534"/>
      <point x="163" y="420" type="qcurve" smooth="yes"/>
      <point x="163" y="249"/>
      <point x="326" y="46"/>
    </contour>
  </outline>
</glyph>
<glyph name="h" format="2">
  <advance width="1196"/>
  <unicode hex="0068"/>
  <anchor x="689" y="0" name="m.uni0326"/>
  <anchor x="505" y="1490" name="m.uni030F_1"/>
  <anchor x="267" y="0" name="m.uni0327_3"/>
  <outline>
    <contour>
      <point x="275" y="750" type="curve" smooth="yes"/>
      <point x="151" y="0" type="line"/>
      <point x="105" y="0" type="line"/>
      <point x="352" y="1490" type="line"/>
      <point x="398" y="1490" type="line"/>
      <point x="296" y="878" type="line"/>
      <point x="284" y="878" type="line"/>
      <point x="310" y="935"/>
      <point x="344" y="983"/>
      <point x="387" y="1021" type="curve" smooth="yes"/>
      <point x="472" y="1096"/>
      <point x="582" y="1134"/>
      <point x="695" y="1134" type="curve" smooth="yes"/>
      <point x="772" y="1134"/>
      <point x="837" y="1118"/>
      <point x="892" y="1086" type="curve" smooth="yes"/>
      <point x="1000" y="1021"/>
      <point x="1054" y="903"/>
      <point x="1029" y="750" type="curve" smooth="yes"/>
      <point x="905" y="0" type="line"/>
      <point x="859" y="0" type="line"/>
      <point x="983" y="750" type="line" smooth="yes"/>
      <point x="1000" y="851"/>
      <point x="982" y="933"/>
      <point x="928" y="995" type="curve" smooth="yes"/>
      <point x="874" y="1057"/>
      <point x="796" y="1088"/>
      <point x="695" y="1088" type="curve" smooth="yes"/>
      <point x="626" y="1088"/>
      <point x="561" y="1074"/>
      <point x="502" y="1045" type="curve" smooth="yes"/>
      <point x="382" y="987"/>
      <point x="296" y="881"/>
    </contour>
  </outline>
</glyph>
<glyph name="l.ss02" format="2">
  <advance width="471"/>
  <unicode hex="006C"/>
  <unicode hex="E050"/>
  <anchor x="327" y="0" name="m.uni0326"/>
  <anchor x="515" y="1490" name="m.uni030F_1"/>
  <outline>
    <contour>
      <point x="331" y="2" type="curve"/>
      <point x="260" y="-12"/>
      <point x="207" y="-5"/>
      <point x="171" y="23" type="curve"/>
      <point x="134" y="50"/>
      <point x="122" y="103"/>
      <point x="135" y="180" type="curve" smooth="yes"/>
      <point x="352" y="1490" type="line"/>
      <point x="398" y="1490" type="line"/>
      <point x="181" y="180" type="line" smooth="yes"/>
      <point x="161" y="56"/>
      <point x="204" y="21"/>
      <point x="337" y="50" type="curve"/>
      <point x="344" y="50"/>
      <point x="346" y="52"/>
      <point x="346" y="52" type="curve"/>
      <point x="350" y="8" type="line"/>
      <point x="350" y="9"/>
      <point x="339" y="5"/>
    </contour>
  </outline>
</glyph>
<glyph name="m" format="2">
  <advance width="1774"/>
  <unicode hex="006D"/>
  <anchor x="975" y="0" name="m.uni0326"/>
  <anchor x="1181" y="1242" name="m.uni030F_1"/>
  <outline>
    <contour>
      <point x="105" y="0" type="line"/>
      <point x="291" y="1118" type="line"/>
      <point x="337" y="1118" type="line"/>
      <point x="293" y="854" type="line"/>
      <point x="277" y="856" type="line"/>
      <point x="303" y="922"/>
      <point x="337" y="975"/>
      <point x="380" y="1016" type="curve" smooth="yes"/>
      <point x="465" y="1097"/>
      <point x="571" y="1134"/>
      <point x="668" y="1134" type="curve" smooth="yes"/>
      <point x="724" y="1134"/>
      <point x="773" y="1122"/>
      <point x="814" y="1099" type="curve" smooth="yes"/>
      <point x="897" y="1051"/>
      <point x="944" y="961"/>
      <point x="943" y="836" type="curve"/>
      <point x="925" y="840" type="line"/>
      <point x="948" y="903"/>
      <point x="981" y="956"/>
      <point x="1022" y="1000" type="curve" smooth="yes"/>
      <point x="1104" y="1087"/>
      <point x="1212" y="1134"/>
      <point x="1328" y="1134" type="curve" smooth="yes"/>
      <point x="1399" y="1134"/>
      <point x="1457" y="1118"/>
      <point x="1503" y="1087" type="curve" smooth="yes"/>
      <point x="1595" y="1024"/>
      <point x="1634" y="907"/>
      <point x="1607" y="748" type="curve" smooth="yes"/>
      <point x="1483" y="0" type="line"/>
      <point x="1437" y="0" type="line"/>
      <point x="1562" y="752" type="line" smooth="yes"/>
      <point x="1574" y="824"/>
      <point x="1572" y="885"/>
      <point x="1557" y="935" type="curve" smooth="yes"/>
      <point x="1526" y="1035"/>
      <point x="1446" y="1088"/>
      <point x="1327" y="1088" type="curve" smooth="yes"/>
      <point x="1266" y="1088"/>
      <point x="1209" y="1075"/>
      <point x="1155" y="1048" type="curve" smooth="yes"/>
      <point x="1046" y="995"/>
      <point x="965" y="892"/>
      <point x="941" y="748" type="curve" smooth="yes"/>
      <point x="817" y="0" type="line"/>
      <point x="771" y="0" type="line"/>
      <point x="896" y="752" type="line" smooth="yes"/>
      <point x="914" y="860"/>
      <point x="902" y="943"/>
      <point x="860" y="1001" type="curve" smooth="yes"/>
      <point x="818" y="1059"/>
      <point x="754" y="1088"/>
      <point x="667" y="1088" type="curve" smooth="yes"/>
      <point x="604" y="1088"/>
      <point x="544" y="1073"/>
      <point x="489" y="1044" type="curve" smooth="yes"/>
      <point x="378" y="985"/>
      <point x="298" y="880"/>
      <point x="275" y="748" type="curve" smooth="yes"/>
      <point x="151" y="0" type="line"/>
    </contour>
  </outline>
</glyph>
<glyph name="o" format="2">
  <advance width="1186"/>
  <unicode hex="006F"/>
  <anchor x="643" y="0" name="m.uni0326"/>
  <anchor x="853" y="1242" name="m.uni030F_1"/>
  <anchor x="1373" y="616" name="m.uni0328_4"/>
  <outline>
    <contour>
      <point x="501" y="-24" type="qcurve" smooth="yes"/>
      <point x="386" y="-24"/>
      <point x="214" y="93"/>
      <point x="119" y="299"/>
      <point x="119" y="432" type="qcurve" smooth="yes"/>
      <point x="119" y="560"/>
      <point x="203" y="809"/>
      <point x="356" y="1012"/>
      <point x="563" y="1134"/>
      <point x="686" y="1134" type="qcurve" smooth="yes"/>
      <point x="801" y="1134"/>
      <point x="971" y="1017"/>
      <point x="1066" y="812"/>
      <point x="1066" y="679" type="qcurve" smooth="yes"/>
      <point x="1066" y="552"/>
      <point x="982" y="302"/>
      <point x="830" y="98"/>
      <point x="623" y="-24"/>
    </contour>
    <contour>
      <point x="502" y="22" type="qcurve" smooth="yes"/>
      <point x="615" y="22"/>
      <point x="804" y="138"/>
      <point x="943" y="329"/>
      <point x="1020" y="561"/>
      <point x="1020" y="677" type="qcurve" smooth="yes"/>
      <point x="1020" y="798"/>
      <point x="938" y="983"/>
      <point x="787" y="1088"/>
      <point x="685" y="1088" type="qcurve" smooth="yes"/>
      <point x="577" y="1088"/>
      <point x="389" y="978"/>
      <point x="246" y="790"/>
      <point x="165" y="557"/>
      <point x="165" y="434" type="qcurve" smooth="yes"/>
      <point x="165" y="252"/>
      <point x="348" y="22"/>
    </contour>
  </outline>
</glyph>
<glyph name="p" format="2">
  <advance width="1191"/>
  <unicode hex="0070"/>
  <anchor x="204" y="-402" name="m.uni0326"/>
  <anchor x="762" y="1242" name="m.uni030F_1"/>
  <outline>
    <contour>
      <point x="36" y="-418" type="line"/>
      <point x="291" y="1118" type="line"/>
      <point x="337" y="1118" type="line"/>
      <point x="289" y="832" type="line"/>
      <point x="294" y="832" type="line"/>
      <point x="338" y="925"/>
      <point x="471" y="1061"/>
      <point x="634" y="1134"/>
      <point x="722" y="1134" type="qcurve" smooth="yes"/>
      <point x="834" y="1134"/>
      <point x="990" y="1022"/>
      <point x="1072" y="826"/>
      <point x="1072" y="698" type="qcurve" smooth="yes"/>
      <point x="1072" y="574"/>
      <point x="999" y="319"/>
      <point x="860" y="106"/>
      <point x="662" y="-24"/>
      <point x="537" y="-24" type="qcurve" smooth="yes"/>
      <point x="446" y="-24"/>
      <point x="306" y="50"/>
      <point x="218" y="187"/>
      <point x="204" y="280" type="qcurve"/>
      <point x="198" y="280" type="line"/>
      <point x="82" y="-418" type="line"/>
    </contour>
    <contour>
      <point x="538" y="22" type="qcurve" smooth="yes"/>
      <point x="652" y="22"/>
      <point x="832" y="144"/>
      <point x="959" y="343"/>
      <point x="1026" y="581"/>
      <point x="1026" y="697" type="qcurve" smooth="yes"/>
      <point x="1026" y="870"/>
      <point x="868" y="1088"/>
      <point x="721" y="1088" type="qcurve" smooth="yes"/>
      <point x="607" y="1088"/>
      <point x="426" y="967"/>
      <point x="298" y="768"/>
      <point x="231" y="530"/>
      <point x="231" y="414" type="qcurve" smooth="yes"/>
      <point x="231" y="242"/>
      <point x="390" y="22"/>
    </contour>
  </outline>
</glyph>
<glyph name="r" format="2">
  <advance width="667"/>
  <unicode hex="0072"/>
  <anchor x="272" y="0" name="m.uni0326"/>
  <anchor x="797" y="1242" name="m.uni030F_1"/>
  <outline>
    <contour>
      <point x="106" y="0" type="line"/>
      <point x="291" y="1118" type="line"/>
      <point x="337" y="1118" type="line"/>
      <point x="308" y="940" type="line"/>
      <point x="314" y="940" type="line"/>
      <point x="368" y="1027"/>
      <point x="564" y="1132"/>
      <point x="679" y="1132" type="qcurve" smooth="yes"/>
      <point x="688" y="1132"/>
      <point x="694" y="1132"/>
      <point x="703" y="1132" type="qcurve"/>
      <point x="696" y="1086" type="line"/>
      <point x="691" y="1086"/>
      <point x="681" y="1086"/>
      <point x="672" y="1086" type="qcurve" smooth="yes"/>
      <point x="574" y="1086"/>
      <point x="405" y="999"/>
      <point x="292" y="848"/>
      <point x="276" y="750" type="qcurve" smooth="yes"/>
      <point x="152" y="0" type="line"/>
    </contour>
  </outline>
</glyph>
<glyph name="t" format="2">
  <advance width="494"/>
  <unicode hex="0074"/>
  <anchor x="289" y="0" name="m.uni0326"/>
  <anchor x="415" y="1464" name="m.uni030F_1"/>
  <anchor x="376" y="0" name="m.uni0327_3"/>
  <outline>
    <contour>
      <point x="545" y="1118" type="line"/>
      <point x="537" y="1072" type="line"/>
      <point x="95" y="1072" type="line"/>
      <point x="103" y="1118" type="line"/>
    </contour>
    <contour>
      <point x="312" y="1384" type="line"/>
      <point x="358" y="1384" type="line"/>
      <point x="164" y="213" type="line" smooth="yes"/>
      <point x="141" y="76"/>
      <point x="202" y="9"/>
      <point x="323" y="40" type="curve"/>
      <point x="328" y="41"/>
      <point x="334" y="43"/>
      <point x="341" y="45" type="curve"/>
      <point x="347" y="46"/>
      <point x="353" y="48"/>
      <point x="358" y="49" type="curve"/>
      <point x="362" y="4" type="line"/>
      <point x="349" y="1"/>
      <point x="336" y="-2"/>
      <point x="323" y="-5" type="curve" smooth="yes"/>
      <point x="246" y="-23"/>
      <point x="189" y="-11"/>
      <point x="153" y="33" type="curve" smooth="yes"/>
      <point x="117" y="76"/>
      <point x="105" y="136"/>
      <point x="118" y="213" type="curve" smooth="yes"/>
    </contour>
  </outline>
</glyph>
<glyph name="u" format="2">
  <advance width="1197"/>
  <unicode hex="0075"/>
  <anchor x="701" y="0" name="m.uni0326"/>
  <anchor x="898" y="1242" name="m.uni030F_1"/>
  <anchor x="1314" y="0" name="m.uni0328_4"/>
  <outline>
    <contour>
      <point x="501" y="-16" type="curve" smooth="yes"/>
      <point x="425" y="-16"/>
      <point x="360" y="0"/>
      <point x="305" y="33" type="curve" smooth="yes"/>
      <point x="196" y="97"/>
      <point x="142" y="216"/>
      <point x="167" y="368" type="curve" smooth="yes"/>
      <point x="291" y="1118" type="line"/>
      <point x="337" y="1118" type="line"/>
      <point x="213" y="368" type="line" smooth="yes"/>
      <point x="196" y="267"/>
      <point x="215" y="185"/>
      <point x="269" y="123" type="curve" smooth="yes"/>
      <point x="322" y="61"/>
      <point x="400" y="30"/>
      <point x="501" y="30" type="curve" smooth="yes"/>
      <point x="570" y="30"/>
      <point x="635" y="45"/>
      <point x="695" y="74" type="curve" smooth="yes"/>
      <point x="814" y="132"/>
      <point x="900" y="237"/>
      <point x="921" y="368" type="curve" smooth="yes"/>
      <point x="1045" y="1118" type="line"/>
      <point x="1091" y="1118" type="line"/>
      <point x="906" y="0" type="line"/>
      <point x="860" y="0" type="line"/>
      <point x="900" y="240" type="line"/>
      <point x="912" y="240" type="line"/>
      <point x="873" y="155"/>
      <point x="817" y="91"/>
      <point x="742" y="48" type="curve" smooth="yes"/>
      <point x="667" y="5"/>
      <point x="586" y="-16"/>
    </contour>
  </outline>
</glyph>
<glyph name="v" format="2">
  <advance width="1114"/>
  <unicode hex="0076"/>
  <anchor x="686" y="0" name="m.uni0326"/>
  <anchor x="880" y="1242" name="m.uni030F_1"/>
  <outline>
    <contour>
      <point x="435" y="0" type="line"/>
      <point x="193" y="1118" type="line"/>
      <point x="239" y="1118" type="line"/>
      <point x="409" y="336" type="line" smooth="yes"/>
      <point x="432" y="235"/>
      <point x="450" y="131"/>
      <point x="474" y="30" type="curve"/>
      <point x="461" y="30" type="line"/>
      <point x="520" y="131"/>
      <point x="572" y="235"/>
      <point x="628" y="336" type="curve" smooth="yes"/>
      <point x="1056" y="1118" type="line"/>
      <point x="1107" y="1118" type="line"/>
      <point x="495" y="0" type="line"/>
    </contour>
  </outline>
</glyph>
<glyph name="w" format="2">
  <advance width="1656"/>
  <unicode hex="0077"/>
  <anchor x="1009" y="0" name="m.uni0326"/>
  <anchor x="1222" y="1242" name="m.uni030F_1"/>
  <outline>
    <contour>
      <point x="323" y="0" type="line"/>
      <point x="182" y="1118" type="line"/>
      <point x="229" y="1118" type="line"/>
      <point x="334" y="288" type="line" smooth="yes"/>
      <point x="345" y="197"/>
      <point x="355" y="115"/>
      <point x="364" y="24" type="curve"/>
      <point x="354" y="24" type="line"/>
      <point x="397" y="115"/>
      <point x="437" y="199"/>
      <point x="482" y="288" type="curve" smooth="yes"/>
      <point x="891" y="1118" type="line"/>
      <point x="951" y="1118" type="line"/>
      <point x="1086" y="288" type="line" smooth="yes"/>
      <point x="1101" y="199"/>
      <point x="1113" y="115"/>
      <point x="1126" y="24" type="curve"/>
      <point x="1116" y="24" type="line"/>
      <point x="1156" y="115"/>
      <point x="1193" y="197"/>
      <point x="1234" y="288" type="curve" smooth="yes"/>
      <point x="1613" y="1118" type="line"/>
      <point x="1660" y="1118" type="line"/>
      <point x="1149" y="0" type="line"/>
      <point x="1085" y="0" type="line"/>
      <point x="945" y="864" type="line" smooth="yes"/>
      <point x="941" y="891"/>
      <point x="937" y="917"/>
      <point x="933" y="943" type="curve" smooth="yes"/>
      <point x="929" y="968"/>
      <point x="925" y="994"/>
      <point x="921" y="1020" type="curve" smooth="yes"/>
      <point x="917" y="1045"/>
      <point x="913" y="1071"/>
      <point x="909" y="1098" type="curve"/>
      <point x="927" y="1098" type="line"/>
      <point x="914" y="1071"/>
      <point x="902" y="1045"/>
      <point x="889" y="1020" type="curve" smooth="yes"/>
      <point x="876" y="994"/>
      <point x="864" y="968"/>
      <point x="852" y="943" type="curve" smooth="yes"/>
      <point x="839" y="917"/>
      <point x="826" y="891"/>
      <point x="813" y="864" type="curve" smooth="yes"/>
      <point x="387" y="0" type="line"/>
    </contour>
  </outline>
</glyph>
<glyph name="x" format="2">
  <advance width="1024"/>
  <unicode hex="0078"/>
  <anchor x="576" y="0" name="m.uni0326"/>
  <anchor x="781" y="1242" name="m.uni030F_1"/>
  <outline>
    <contour>
      <point x="-33" y="0" type="line"/>
      <point x="500" y="589" type="line"/>
      <point x="494" y="555" type="line"/>
      <point x="171" y="1118" type="line"/>
      <point x="224" y="1118" type="line"/>
      <point x="406" y="800" type="line" smooth="yes"/>
      <point x="446" y="731"/>
      <point x="484" y="662"/>
      <point x="524" y="591" type="curve"/>
      <point x="502" y="591" type="line"/>
      <point x="533" y="626"/>
      <point x="564" y="661"/>
      <point x="595" y="696" type="curve" smooth="yes"/>
      <point x="626" y="731"/>
      <point x="657" y="765"/>
      <point x="689" y="800" type="curve" smooth="yes"/>
      <point x="976" y="1118" type="line"/>
      <point x="1037" y="1118" type="line"/>
      <point x="527" y="555" type="line"/>
      <point x="533" y="589" type="line"/>
      <point x="871" y="0" type="line"/>
      <point x="818" y="0" type="line"/>
      <point x="607" y="368" type="line" smooth="yes"/>
      <point x="571" y="431"/>
      <point x="539" y="492"/>
      <point x="504" y="553" type="curve"/>
      <point x="526" y="553" type="line"/>
      <point x="497" y="522"/>
      <point x="470" y="492"/>
      <point x="443" y="461" type="curve" smooth="yes"/>
      <point x="416" y="430"/>
      <point x="388" y="399"/>
      <point x="360" y="368" type="curve" smooth="yes"/>
      <point x="28" y="0" type="line"/>
    </contour>
  </outline>
</glyph>
<glyph name="y" format="2">
  <advance width="1114"/>
  <unicode hex="0079"/>
  <anchor x="1004" y="0" name="m.uni0326"/>
  <anchor x="898" y="1242" name="m.uni030F_1"/>
  <anchor x="938" y="0" name="m.uni0328_4"/>
  <outline>
    <contour>
      <point x="-24" y="-398" type="curve"/>
      <point x="1" y="-358" type="line"/>
      <point x="10" y="-362" type="line" smooth="yes"/>
      <point x="53" y="-381"/>
      <point x="94" y="-387"/>
      <point x="133" y="-380" type="curve" smooth="yes"/>
      <point x="211" y="-366"/>
      <point x="280" y="-302"/>
      <point x="339" y="-195" type="curve" smooth="yes"/>
      <point x="438" y="-14" type="line"/>
      <point x="193" y="1118" type="line"/>
      <point x="240" y="1118" type="line"/>
      <point x="408" y="336" type="line" smooth="yes"/>
      <point x="419" y="283"/>
      <point x="430" y="229"/>
      <point x="440" y="176" type="curve" smooth="yes"/>
      <point x="450" y="123"/>
      <point x="460" y="69"/>
      <point x="469" y="16" type="curve"/>
      <point x="457" y="16" type="line"/>
      <point x="513" y="123"/>
      <point x="568" y="229"/>
      <point x="627" y="336" type="curve" smooth="yes"/>
      <point x="1055" y="1118" type="line"/>
      <point x="1107" y="1118" type="line"/>
      <point x="379" y="-212" type="line" smooth="yes"/>
      <point x="354" y="-259"/>
      <point x="326" y="-298"/>
      <point x="296" y="-330" type="curve" smooth="yes"/>
      <point x="236" y="-393"/>
      <point x="168" y="-426"/>
      <point x="95" y="-426" type="curve" smooth="yes"/>
      <point x="58" y="-426"/>
      <point x="16" y="-417"/>
    </contour>
  </outline>
</glyph>
<glyph name="z" format="2">
  <advance width="1072"/>
  <unicode hex="007A"/>
  <anchor x="633" y="0" name="m.uni0326"/>
  <anchor x="860" y="1242" name="m.uni030F_1"/>
  <outline>
    <contour>
      <point x="65" y="0" type="line"/>
      <point x="73" y="46" type="line"/>
      <point x="906" y="1066" type="line"/>
      <point x="907" y="1072" type="line"/>
      <point x="284" y="1072" type="line"/>
      <point x="292" y="1118" type="line"/>
      <point x="976" y="1118" type="line"/>
      <point x="968" y="1070" type="line"/>
      <point x="136" y="52" type="line"/>
      <point x="135" y="46" type="line"/>
      <point x="829" y="46" type="line"/>
      <point x="821" y="0" type="line"/>
    </contour>
  </outline>
</glyph>
<glyph name="braceleft" format="2">
  <advance width="810"/>
  <unicode hex="007B"/>
  <outline>
    <contour>
      <point x="184" y="629" type="curve"/>
      <point x="191" y="675" type="line"/>
      <point x="275" y="675"/>
      <point x="335" y="690"/>
      <point x="370" y="720" type="curve" smooth="yes"/>
      <point x="405" y="750"/>
      <point x="430" y="806"/>
      <point x="443" y="889" type="curve" smooth="yes"/>
      <point x="506" y="1271" type="line" smooth="yes"/>
      <point x="515" y="1324"/>
      <point x="528" y="1370"/>
      <point x="545" y="1409" type="curve" smooth="yes"/>
      <point x="562" y="1448"/>
      <point x="583" y="1480"/>
      <point x="609" y="1506" type="curve" smooth="yes"/>
      <point x="635" y="1531"/>
      <point x="666" y="1550"/>
      <point x="701" y="1563" type="curve" smooth="yes"/>
      <point x="736" y="1576"/>
      <point x="776" y="1582"/>
      <point x="821" y="1582" type="curve"/>
      <point x="814" y="1536" type="line"/>
      <point x="738" y="1536"/>
      <point x="679" y="1515"/>
      <point x="638" y="1474" type="curve" smooth="yes"/>
      <point x="597" y="1432"/>
      <point x="568" y="1364"/>
      <point x="553" y="1271" type="curve" smooth="yes"/>
      <point x="490" y="889" type="line" smooth="yes"/>
      <point x="474" y="793"/>
      <point x="446" y="728"/>
      <point x="398" y="688" type="curve" smooth="yes"/>
      <point x="350" y="647"/>
      <point x="281" y="629"/>
    </contour>
    <contour>
      <point x="513" y="-280" type="line"/>
      <point x="468" y="-280"/>
      <point x="430" y="-274"/>
      <point x="399" y="-261" type="curve" smooth="yes"/>
      <point x="368" y="-248"/>
      <point x="343" y="-229"/>
      <point x="326" y="-204" type="curve" smooth="yes"/>
      <point x="309" y="-178"/>
      <point x="298" y="-146"/>
      <point x="294" y="-107" type="curve" smooth="yes"/>
      <point x="290" y="-68"/>
      <point x="292" y="-22"/>
      <point x="301" y="31" type="curve" smooth="yes"/>
      <point x="364" y="413" type="line" smooth="yes"/>
      <point x="377" y="496"/>
      <point x="372" y="553"/>
      <point x="347" y="584" type="curve" smooth="yes"/>
      <point x="322" y="614"/>
      <point x="268" y="629"/>
      <point x="184" y="629" type="curve"/>
      <point x="191" y="675" type="line"/>
      <point x="240" y="675"/>
      <point x="280" y="670"/>
      <point x="312" y="661" type="curve" smooth="yes"/>
      <point x="344" y="652"/>
      <point x="369" y="637"/>
      <point x="386" y="616" type="curve" smooth="yes"/>
      <point x="403" y="595"/>
      <point x="413" y="568"/>
      <point x="417" y="535" type="curve" smooth="yes"/>
      <point x="421" y="502"/>
      <point x="419" y="461"/>
      <point x="411" y="413" type="curve" smooth="yes"/>
      <point x="348" y="31" type="line" smooth="yes"/>
      <point x="333" y="-62"/>
      <point x="339" y="-129"/>
      <point x="366" y="-171" type="curve" smooth="yes"/>
      <point x="393" y="-213"/>
      <point x="445" y="-234"/>
      <point x="521" y="-234" type="curve"/>
    </contour>
    <contour>
      <point x="184" y="629" type="line"/>
      <point x="191" y="675" type="line"/>
      <point x="347" y="675" type="line"/>
      <point x="340" y="629" type="line"/>
    </contour>
  </outline>
</glyph>
<glyph name="asciitilde" format="2">
  <advance width="1304"/>
  <unicode hex="007E"/>
  <outline>
    <contour>
      <point x="180" y="488" type="line"/>
      <point x="193" y="531"/>
      <point x="214" y="567"/>
      <point x="242" y="597" type="curve" smooth="yes"/>
      <point x="297" y="657"/>
      <point x="378" y="690"/>
      <point x="474" y="690" type="curve"/>
      <point x="525" y="689"/>
      <point x="568" y="679"/>
      <point x="601" y="660" type="curve" smooth="yes"/>
      <point x="634" y="641"/>
      <point x="663" y="621"/>
      <point x="690" y="602" type="curve" smooth="yes"/>
      <point x="716" y="583"/>
      <point x="741" y="567"/>
      <point x="766" y="552" type="curve" smooth="yes"/>
      <point x="791" y="537"/>
      <point x="821" y="529"/>
      <point x="856" y="530" type="curve"/>
      <point x="907" y="529"/>
      <point x="953" y="544"/>
      <point x="995" y="573" type="curve" smooth="yes"/>
      <point x="1036" y="602"/>
      <point x="1067" y="639"/>
      <point x="1088" y="686" type="curve"/>
      <point x="1132" y="674" type="line"/>
      <point x="1115" y="634"/>
      <point x="1093" y="600"/>
      <point x="1066" y="571" type="curve"/>
      <point x="1010" y="514"/>
      <point x="937" y="483"/>
      <point x="850" y="482" type="curve"/>
      <point x="806" y="483"/>
      <point x="769" y="492"/>
      <point x="740" y="511" type="curve" smooth="yes"/>
      <point x="710" y="530"/>
      <point x="683" y="549"/>
      <point x="658" y="568" type="curve" smooth="yes"/>
      <point x="631" y="588"/>
      <point x="604" y="606"/>
      <point x="576" y="621" type="curve" smooth="yes"/>
      <point x="548" y="636"/>
      <point x="512" y="643"/>
      <point x="468" y="642" type="curve"/>
      <point x="410" y="643"/>
      <point x="359" y="628"/>
      <point x="315" y="598" type="curve" smooth="yes"/>
      <point x="271" y="568"/>
      <point x="241" y="529"/>
      <point x="226" y="482" type="curve"/>
    </contour>
  </outline>
</glyph>
<glyph name="exclamdown" format="2">
  <advance width="538"/>
  <unicode hex="00A1"/>
  <outline>
    <contour>
      <point x="313" y="684" type="line"/>
      <point x="138" y="-372" type="line"/>
      <point x="92" y="-372" type="line"/>
      <point x="267" y="684" type="line"/>
    </contour>
    <contour>
      <point x="407" y="1118" type="line"/>
      <point x="392" y="1028" type="line"/>
      <point x="302" y="1028" type="line"/>
      <point x="317" y="1118" type="line"/>
    </contour>
  </outline>
</glyph>
<glyph name="cent" format="2">
  <advance width="1095"/>
  <unicode hex="00A2"/>
  <anchor x="659" y="140" name="m.uni0326"/>
  <anchor x="901" y="1382" name="m.uni030F_1"/>
  <anchor x="667" y="140" name="m.uni0327_3"/>
  <outline>
    <contour>
      <point x="458" y="0" type="line"/>
      <point x="705" y="1490" type="line"/>
      <point x="751" y="1490" type="line"/>
      <point x="504" y="0" type="line"/>
    </contour>
    <contour>
      <point x="533" y="174" type="curve" smooth="yes"/>
      <point x="456" y="174"/>
      <point x="389" y="193"/>
      <point x="332" y="232" type="curve" smooth="yes"/>
      <point x="217" y="308"/>
      <point x="151" y="449"/>
      <point x="151" y="625" type="curve" smooth="yes"/>
      <point x="151" y="796"/>
      <point x="210" y="968"/>
      <point x="312" y="1103" type="curve" smooth="yes"/>
      <point x="414" y="1238"/>
      <point x="553" y="1324"/>
      <point x="717" y="1324" type="curve" smooth="yes"/>
      <point x="842" y="1324"/>
      <point x="925" y="1273"/>
      <point x="977" y="1213" type="curve" smooth="yes"/>
      <point x="1029" y="1153"/>
      <point x="1053" y="1097"/>
      <point x="1057" y="1088" type="curve"/>
      <point x="1015" y="1068" type="line"/>
      <point x="1011" y="1079"/>
      <point x="989" y="1129"/>
      <point x="944" y="1181" type="curve" smooth="yes"/>
      <point x="899" y="1233"/>
      <point x="826" y="1278"/>
      <point x="717" y="1278" type="curve" smooth="yes"/>
      <point x="560" y="1278"/>
      <point x="431" y="1195"/>
      <point x="340" y="1067" type="curve" smooth="yes"/>
      <point x="248" y="939"/>
      <point x="197" y="777"/>
      <point x="197" y="618" type="curve" smooth="yes"/>
      <point x="197" y="537"/>
      <point x="211" y="467"/>
      <point x="238" y="408" type="curve" smooth="yes"/>
      <point x="293" y="288"/>
      <point x="396" y="220"/>
      <point x="533" y="220" type="curve" smooth="yes"/>
      <point x="645" y="220"/>
      <point x="737" y="266"/>
      <point x="802" y="321" type="curve" smooth="yes"/>
      <point x="867" y="376"/>
      <point x="906" y="427"/>
      <point x="913" y="436" type="curve"/>
      <point x="950" y="409" type="line"/>
      <point x="943" y="400"/>
      <point x="901" y="344"/>
      <point x="829" y="285" type="curve" smooth="yes"/>
      <point x="757" y="225"/>
      <point x="657" y="174"/>
    </contour>
  </outline>
</glyph>
<glyph name="sterling" format="2">
  <advance width="1224"/>
  <unicode hex="00A3"/>
  <outline>
    <contour>
      <point x="47" y="8" type="qcurve"/>
      <point x="54" y="46" type="line"/>
      <point x="152" y="46"/>
      <point x="270" y="185"/>
      <point x="285" y="315" type="qcurve" smooth="yes"/>
      <point x="371" y="1055" type="line" smooth="yes"/>
      <point x="387" y="1188"/>
      <point x="516" y="1391"/>
      <point x="720" y="1506"/>
      <point x="847" y="1506" type="qcurve" smooth="yes"/>
      <point x="965" y="1506"/>
      <point x="1123" y="1406"/>
      <point x="1191" y="1231"/>
      <point x="1172" y="1118" type="qcurve"/>
      <point x="1126" y="1118" type="line"/>
      <point x="1151" y="1269"/>
      <point x="1006" y="1460"/>
      <point x="848" y="1460" type="qcurve" smooth="yes"/>
      <point x="738" y="1460"/>
      <point x="552" y="1359"/>
      <point x="431" y="1178"/>
      <point x="417" y="1057" type="qcurve" smooth="yes"/>
      <point x="331" y="317" type="line" smooth="yes"/>
      <point x="324" y="259"/>
      <point x="292" y="163"/>
      <point x="241" y="87"/>
      <point x="175" y="35"/>
      <point x="94" y="8"/>
    </contour>
    <contour>
      <point x="38" y="0" type="line"/>
      <point x="46" y="46" type="line"/>
      <point x="790" y="46" type="line" smooth="yes"/>
      <point x="874" y="46"/>
      <point x="961" y="121"/>
      <point x="975" y="205" type="qcurve" smooth="yes"/>
      <point x="983" y="252" type="line"/>
      <point x="1029" y="252" type="line"/>
      <point x="1021" y="205" type="line" smooth="yes"/>
      <point x="1004" y="102"/>
      <point x="885" y="0"/>
      <point x="782" y="0" type="qcurve" smooth="yes"/>
    </contour>
    <contour>
      <point x="158" y="722" type="line"/>
      <point x="165" y="768" type="line"/>
      <point x="950" y="768" type="line"/>
      <point x="943" y="722" type="line"/>
    </contour>
  </outline>
</glyph>
<glyph name="currency" format="2">
  <advance width="1394"/>
  <unicode hex="00A4"/>
  <outline>
    <contour>
      <point x="600" y="-20" type="curve" smooth="yes"/>
      <point x="439" y="-20"/>
      <point x="305" y="48"/>
      <point x="218" y="163" type="curve" smooth="yes"/>
      <point x="130" y="278"/>
      <point x="93" y="433"/>
      <point x="122" y="608" type="curve" smooth="yes"/>
      <point x="153" y="789"/>
      <point x="240" y="944"/>
      <point x="362" y="1057" type="curve" smooth="yes"/>
      <point x="484" y="1169"/>
      <point x="636" y="1234"/>
      <point x="800" y="1234" type="curve" smooth="yes"/>
      <point x="965" y="1234"/>
      <point x="1098" y="1166"/>
      <point x="1185" y="1053" type="curve" smooth="yes"/>
      <point x="1272" y="940"/>
      <point x="1308" y="784"/>
      <point x="1280" y="608" type="curve" smooth="yes"/>
      <point x="1251" y="429"/>
      <point x="1164" y="273"/>
      <point x="1041" y="160" type="curve" smooth="yes"/>
      <point x="917" y="47"/>
      <point x="764" y="-20"/>
    </contour>
    <contour>
      <point x="600" y="26" type="curve" smooth="yes"/>
      <point x="751" y="26"/>
      <point x="894" y="88"/>
      <point x="1010" y="195" type="curve" smooth="yes"/>
      <point x="1125" y="302"/>
      <point x="1206" y="445"/>
      <point x="1234" y="608" type="curve" smooth="yes"/>
      <point x="1253" y="719"/>
      <point x="1246" y="819"/>
      <point x="1214" y="906" type="curve" smooth="yes"/>
      <point x="1181" y="993"/>
      <point x="1129" y="1062"/>
      <point x="1057" y="1112" type="curve" smooth="yes"/>
      <point x="985" y="1162"/>
      <point x="899" y="1187"/>
      <point x="798" y="1186" type="curve"/>
      <point x="699" y="1187"/>
      <point x="604" y="1162"/>
      <point x="515" y="1111" type="curve" smooth="yes"/>
      <point x="426" y="1060"/>
      <point x="350" y="991"/>
      <point x="289" y="904" type="curve" smooth="yes"/>
      <point x="227" y="817"/>
      <point x="187" y="718"/>
      <point x="168" y="608" type="curve" smooth="yes"/>
      <point x="150" y="497"/>
      <point x="157" y="398"/>
      <point x="190" y="311" type="curve" smooth="yes"/>
      <point x="222" y="223"/>
      <point x="274" y="154"/>
      <point x="345" y="103" type="curve" smooth="yes"/>
      <point x="416" y="52"/>
      <point x="501" y="26"/>
    </contour>
    <contour>
      <point x="1182" y="1000" type="line"/>
      <point x="1154" y="1038" type="line"/>
      <point x="1360" y="1218" type="line"/>
      <point x="1388" y="1182" type="line"/>
    </contour>
    <contour>
      <point x="1160" y="0" type="line"/>
      <point x="1014" y="180" type="line"/>
      <point x="1048" y="212" type="line"/>
      <point x="1192" y="32" type="line"/>
    </contour>
    <contour>
      <point x="40" y="0" type="line"/>
      <point x="14" y="36" type="line"/>
      <point x="216" y="216" type="line"/>
      <point x="244" y="180" type="line"/>
    </contour>
    <contour>
      <point x="352" y="1004" type="line"/>
      <point x="208" y="1184" type="line"/>
      <point x="242" y="1216" type="line"/>
      <point x="386" y="1036" type="line"/>
    </contour>
  </outline>
</glyph>
<glyph name="section" format="2">
  <advance width="1086"/>
  <unicode hex="00A7"/>
  <outline>
    <contour>
      <point x="972" y="1190" type="curve"/>
      <point x="926" y="1190" type="line"/>
      <point x="935" y="1273"/>
      <point x="918" y="1340"/>
      <point x="876" y="1391" type="curve" smooth="yes"/>
      <point x="833" y="1441"/>
      <point x="773" y="1466"/>
      <point x="696" y="1466" type="curve" smooth="yes"/>
      <point x="645" y="1466"/>
      <point x="597" y="1455"/>
      <point x="551" y="1432" type="curve" smooth="yes"/>
      <point x="459" y="1387"/>
      <point x="392" y="1306"/>
      <point x="376" y="1210" type="curve" smooth="yes"/>
      <point x="370" y="1176"/>
      <point x="372" y="1143"/>
      <point x="383" y="1112" type="curve" smooth="yes"/>
      <point x="404" y="1048"/>
      <point x="460" y="987"/>
      <point x="552" y="926" type="curve" smooth="yes"/>
      <point x="662" y="852" type="line" smooth="yes"/>
      <point x="774" y="777"/>
      <point x="849" y="716"/>
      <point x="893" y="661" type="curve" smooth="yes"/>
      <point x="937" y="605"/>
      <point x="951" y="552"/>
      <point x="942" y="496" type="curve" smooth="yes"/>
      <point x="935" y="453"/>
      <point x="918" y="415"/>
      <point x="890" y="382" type="curve" smooth="yes"/>
      <point x="862" y="348"/>
      <point x="827" y="322"/>
      <point x="785" y="303" type="curve" smooth="yes"/>
      <point x="743" y="284"/>
      <point x="697" y="274"/>
      <point x="648" y="274" type="curve"/>
      <point x="648" y="270" type="line"/>
      <point x="779" y="173"/>
      <point x="815" y="83"/>
      <point x="798" y="-16" type="curve" smooth="yes"/>
      <point x="789" y="-71"/>
      <point x="766" y="-121"/>
      <point x="730" y="-164" type="curve" smooth="yes"/>
      <point x="657" y="-251"/>
      <point x="543" y="-302"/>
      <point x="408" y="-302" type="curve" smooth="yes"/>
      <point x="337" y="-302"/>
      <point x="277" y="-288"/>
      <point x="227" y="-261" type="curve" smooth="yes"/>
      <point x="126" y="-206"/>
      <point x="75" y="-105"/>
      <point x="88" y="24" type="curve"/>
      <point x="136" y="24" type="line"/>
      <point x="127" y="-63"/>
      <point x="147" y="-131"/>
      <point x="196" y="-181" type="curve" smooth="yes"/>
      <point x="244" y="-231"/>
      <point x="313" y="-256"/>
      <point x="402" y="-256" type="curve" smooth="yes"/>
      <point x="493" y="-256"/>
      <point x="572" y="-233"/>
      <point x="637" y="-186" type="curve" smooth="yes"/>
      <point x="702" y="-139"/>
      <point x="741" y="-80"/>
      <point x="752" y="-10" type="curve" smooth="yes"/>
      <point x="757" y="20"/>
      <point x="756" y="50"/>
      <point x="748" y="79" type="curve" smooth="yes"/>
      <point x="731" y="138"/>
      <point x="677" y="201"/>
      <point x="562" y="274" type="curve" smooth="yes"/>
      <point x="430" y="360" type="line" smooth="yes"/>
      <point x="325" y="428"/>
      <point x="252" y="487"/>
      <point x="209" y="544" type="curve" smooth="yes"/>
      <point x="165" y="600"/>
      <point x="151" y="658"/>
      <point x="160" y="722" type="curve"/>
      <point x="168" y="767"/>
      <point x="186" y="806"/>
      <point x="213" y="839" type="curve" smooth="yes"/>
      <point x="240" y="872"/>
      <point x="275" y="897"/>
      <point x="318" y="914" type="curve" smooth="yes"/>
      <point x="361" y="931"/>
      <point x="408" y="937"/>
      <point x="460" y="934" type="curve"/>
      <point x="460" y="940" type="line"/>
      <point x="359" y="1009"/>
      <point x="313" y="1109"/>
      <point x="330" y="1218" type="curve" smooth="yes"/>
      <point x="339" y="1273"/>
      <point x="362" y="1323"/>
      <point x="397" y="1367" type="curve" smooth="yes"/>
      <point x="468" y="1455"/>
      <point x="576" y="1510"/>
      <point x="696" y="1510" type="curve" smooth="yes"/>
      <point x="757" y="1510"/>
      <point x="810" y="1497"/>
      <point x="854" y="1470" type="curve" smooth="yes"/>
      <point x="941" y="1416"/>
      <point x="985" y="1317"/>
    </contour>
    <contour>
      <point x="894" y="502" type="curve"/>
      <point x="900" y="533"/>
      <point x="896" y="564"/>
      <point x="882" y="594" type="curve" smooth="yes"/>
      <point x="853" y="653"/>
      <point x="779" y="719"/>
      <point x="642" y="808" type="curve" smooth="yes"/>
      <point x="508" y="898" type="line"/>
      <point x="456" y="903"/>
      <point x="409" y="898"/>
      <point x="366" y="884" type="curve" smooth="yes"/>
      <point x="280" y="855"/>
      <point x="221" y="796"/>
      <point x="206" y="716" type="curve" smooth="yes"/>
      <point x="197" y="663"/>
      <point x="212" y="613"/>
      <point x="249" y="566" type="curve" smooth="yes"/>
      <point x="286" y="518"/>
      <point x="351" y="463"/>
      <point x="446" y="402" type="curve" smooth="yes"/>
      <point x="584" y="314" type="line"/>
      <point x="637" y="310"/>
      <point x="685" y="316"/>
      <point x="730" y="331" type="curve" smooth="yes"/>
      <point x="775" y="346"/>
      <point x="812" y="368"/>
      <point x="841" y="398" type="curve" smooth="yes"/>
      <point x="870" y="428"/>
      <point x="888" y="463"/>
    </contour>
  </outline>
</glyph>
<glyph name="copyright" format="2">
  <advance width="1874"/>
  <unicode hex="00A9"/>
  <outline>
    <contour>
      <point x="557" y="744" type="qcurve"/>
      <point x="576" y="864"/>
      <point x="724" y="1060"/>
      <point x="939" y="1177"/>
      <point x="1058" y="1176" type="qcurve"/>
      <point x="1145" y="1177"/>
      <point x="1278" y="1114"/>
      <point x="1363" y="1003"/>
      <point x="1378" y="930" type="qcurve"/>
      <point x="1326" y="930" type="line"/>
      <point x="1304" y="1020"/>
      <point x="1168" y="1130"/>
      <point x="1058" y="1130" type="qcurve" smooth="yes"/>
      <point x="953" y="1130"/>
      <point x="757" y="1027"/>
      <point x="621" y="852"/>
      <point x="602" y="744" type="qcurve"/>
      <point x="585" y="638"/>
      <point x="655" y="463"/>
      <point x="808" y="360"/>
      <point x="914" y="360" type="qcurve"/>
      <point x="1023" y="359"/>
      <point x="1212" y="469"/>
      <point x="1266" y="558" type="qcurve"/>
      <point x="1318" y="558" type="line"/>
      <point x="1278" y="486"/>
      <point x="1155" y="375"/>
      <point x="1002" y="313"/>
      <point x="916" y="312" type="qcurve"/>
      <point x="797" y="313"/>
      <point x="620" y="429"/>
      <point x="536" y="625"/>
    </contour>
    <contour>
      <point x="845" y="-24" type="qcurve" smooth="yes"/>
      <point x="687" y="-24"/>
      <point x="428" y="96"/>
      <point x="251" y="307"/>
      <point x="178" y="585"/>
      <point x="204" y="744" type="qcurve" smooth="yes"/>
      <point x="231" y="903"/>
      <point x="398" y="1182"/>
      <point x="644" y="1393"/>
      <point x="941" y="1512"/>
      <point x="1099" y="1512" type="qcurve" smooth="yes"/>
      <point x="1259" y="1512"/>
      <point x="1518" y="1393"/>
      <point x="1693" y="1182"/>
      <point x="1766" y="903"/>
      <point x="1740" y="744" type="qcurve" smooth="yes"/>
      <point x="1715" y="585"/>
      <point x="1550" y="307"/>
      <point x="1304" y="96"/>
      <point x="1005" y="-24"/>
    </contour>
    <contour>
      <point x="853" y="24" type="qcurve" smooth="yes"/>
      <point x="1003" y="24"/>
      <point x="1284" y="135"/>
      <point x="1516" y="333"/>
      <point x="1670" y="595"/>
      <point x="1694" y="744" type="qcurve" smooth="yes"/>
      <point x="1719" y="894"/>
      <point x="1650" y="1156"/>
      <point x="1484" y="1354"/>
      <point x="1241" y="1466"/>
      <point x="1092" y="1466" type="qcurve" smooth="yes"/>
      <point x="943" y="1466"/>
      <point x="664" y="1354"/>
      <point x="433" y="1155"/>
      <point x="277" y="894"/>
      <point x="252" y="744" type="qcurve" smooth="yes"/>
      <point x="227" y="596"/>
      <point x="295" y="334"/>
      <point x="461" y="136"/>
      <point x="704" y="24"/>
    </contour>
  </outline>
</glyph>
<glyph name="ordfeminine" format="2">
  <advance width="738"/>
  <unicode hex="00AA"/>
  <outline>
    <contour>
      <point x="338" y="690" type="curve" smooth="yes"/>
      <point x="300" y="690"/>
      <point x="265" y="698"/>
      <point x="232" y="714" type="curve" smooth="yes"/>
      <point x="167" y="745"/>
      <point x="127" y="809"/>
      <point x="142" y="906" type="curve" smooth="yes"/>
      <point x="148" y="944"/>
      <point x="162" y="977"/>
      <point x="184" y="1006" type="curve" smooth="yes"/>
      <point x="206" y="1034"/>
      <point x="240" y="1058"/>
      <point x="285" y="1077" type="curve" smooth="yes"/>
      <point x="330" y="1096"/>
      <point x="389" y="1109"/>
      <point x="462" y="1118" type="curve" smooth="yes"/>
      <point x="664" y="1143" type="line"/>
      <point x="678" y="1234" type="line" smooth="yes"/>
      <point x="695" y="1343"/>
      <point x="637" y="1418"/>
      <point x="508" y="1418" type="curve" smooth="yes"/>
      <point x="404" y="1418"/>
      <point x="314" y="1365"/>
      <point x="270" y="1290" type="curve"/>
      <point x="230" y="1304" type="line"/>
      <point x="257" y="1355"/>
      <point x="297" y="1394"/>
      <point x="350" y="1421" type="curve" smooth="yes"/>
      <point x="403" y="1448"/>
      <point x="457" y="1461"/>
      <point x="512" y="1462" type="curve"/>
      <point x="559" y="1462"/>
      <point x="600" y="1453"/>
      <point x="634" y="1435" type="curve" smooth="yes"/>
      <point x="668" y="1416"/>
      <point x="693" y="1390"/>
      <point x="709" y="1356" type="curve" smooth="yes"/>
      <point x="725" y="1322"/>
      <point x="729" y="1281"/>
      <point x="722" y="1232" type="curve"/>
      <point x="634" y="704" type="line"/>
      <point x="590" y="704" type="line"/>
      <point x="614" y="848" type="line"/>
      <point x="610" y="848" type="line"/>
      <point x="581" y="801"/>
      <point x="543" y="763"/>
      <point x="495" y="734" type="curve" smooth="yes"/>
      <point x="447" y="705"/>
      <point x="395" y="690"/>
    </contour>
    <contour>
      <point x="340" y="730" type="curve"/>
      <point x="388" y="731"/>
      <point x="433" y="743"/>
      <point x="475" y="768" type="curve" smooth="yes"/>
      <point x="559" y="816"/>
      <point x="622" y="907"/>
      <point x="640" y="1014" type="curve" smooth="yes"/>
      <point x="655" y="1101" type="line"/>
      <point x="462" y="1078" type="line" smooth="yes"/>
      <point x="377" y="1068"/>
      <point x="312" y="1048"/>
      <point x="267" y="1021" type="curve" smooth="yes"/>
      <point x="222" y="993"/>
      <point x="195" y="957"/>
      <point x="188" y="914" type="curve" smooth="yes"/>
      <point x="178" y="853"/>
      <point x="189" y="808"/>
      <point x="220" y="777" type="curve" smooth="yes"/>
      <point x="251" y="746"/>
      <point x="291" y="731"/>
    </contour>
    <contour>
      <point x="634" y="522" type="line"/>
      <point x="626" y="476" type="line"/>
      <point x="83" y="476" type="line"/>
      <point x="91" y="522" type="line"/>
    </contour>
  </outline>
</glyph>
<glyph name="registered" format="2">
  <advance width="1374"/>
  <unicode hex="00AE"/>
  <outline>
    <contour>
      <point x="516" y="666" type="line"/>
      <point x="606" y="1202" type="line"/>
      <point x="834" y="1202" type="line"/>
      <point x="871" y="1203"/>
      <point x="902" y="1196"/>
      <point x="925" y="1183" type="curve" smooth="yes"/>
      <point x="972" y="1155"/>
      <point x="991" y="1105"/>
      <point x="980" y="1042" type="curve" smooth="yes"/>
      <point x="975" y="1011"/>
      <point x="964" y="984"/>
      <point x="947" y="960" type="curve" smooth="yes"/>
      <point x="912" y="911"/>
      <point x="855" y="880"/>
      <point x="782" y="880" type="curve" smooth="yes"/>
      <point x="578" y="880" type="line"/>
      <point x="584" y="926" type="line"/>
      <point x="788" y="926" type="line"/>
      <point x="830" y="927"/>
      <point x="864" y="938"/>
      <point x="889" y="959" type="curve" smooth="yes"/>
      <point x="914" y="980"/>
      <point x="929" y="1007"/>
      <point x="934" y="1042" type="curve" smooth="yes"/>
      <point x="939" y="1078"/>
      <point x="933" y="1106"/>
      <point x="916" y="1126" type="curve"/>
      <point x="898" y="1146"/>
      <point x="868" y="1156"/>
      <point x="826" y="1156" type="curve" smooth="yes"/>
      <point x="644" y="1156" type="line"/>
      <point x="562" y="666" type="line"/>
    </contour>
    <contour>
      <point x="848" y="908" type="line"/>
      <point x="940" y="666" type="line"/>
      <point x="886" y="666" type="line"/>
      <point x="798" y="908" type="line"/>
    </contour>
    <contour>
      <point x="748" y="346" type="curve" smooth="yes"/>
      <point x="587" y="346"/>
      <point x="443" y="410"/>
      <point x="337" y="517" type="curve" smooth="yes"/>
      <point x="231" y="624"/>
      <point x="166" y="768"/>
      <point x="166" y="928" type="curve" smooth="yes"/>
      <point x="166" y="1088"/>
      <point x="230" y="1232"/>
      <point x="336" y="1339" type="curve" smooth="yes"/>
      <point x="442" y="1446"/>
      <point x="587" y="1510"/>
      <point x="748" y="1510" type="curve" smooth="yes"/>
      <point x="908" y="1510"/>
      <point x="1052" y="1446"/>
      <point x="1159" y="1339" type="curve" smooth="yes"/>
      <point x="1266" y="1232"/>
      <point x="1330" y="1088"/>
      <point x="1330" y="928" type="curve" smooth="yes"/>
      <point x="1330" y="768"/>
      <point x="1266" y="624"/>
      <point x="1159" y="517" type="curve" smooth="yes"/>
      <point x="1052" y="410"/>
      <point x="908" y="346"/>
    </contour>
    <contour>
      <point x="748" y="392" type="curve" smooth="yes"/>
      <point x="896" y="392"/>
      <point x="1029" y="452"/>
      <point x="1127" y="550" type="curve" smooth="yes"/>
      <point x="1225" y="648"/>
      <point x="1283" y="780"/>
      <point x="1282" y="928" type="curve" smooth="yes"/>
      <point x="1282" y="1027"/>
      <point x="1258" y="1117"/>
      <point x="1210" y="1198" type="curve" smooth="yes"/>
      <point x="1162" y="1279"/>
      <point x="1098" y="1343"/>
      <point x="1017" y="1392" type="curve" smooth="yes"/>
      <point x="936" y="1440"/>
      <point x="847" y="1464"/>
      <point x="748" y="1464" type="curve" smooth="yes"/>
      <point x="600" y="1464"/>
      <point x="466" y="1405"/>
      <point x="369" y="1307" type="curve" smooth="yes"/>
      <point x="272" y="1209"/>
      <point x="212" y="1076"/>
      <point x="212" y="928" type="curve" smooth="yes"/>
      <point x="212" y="829"/>
      <point x="236" y="740"/>
      <point x="284" y="659" type="curve" smooth="yes"/>
      <point x="332" y="578"/>
      <point x="397" y="513"/>
      <point x="478" y="465" type="curve" smooth="yes"/>
      <point x="559" y="417"/>
      <point x="649" y="393"/>
    </contour>
  </outline>
</glyph>
<glyph name="degree" format="2">
  <advance width="930"/>
  <unicode hex="00B0"/>
  <outline>
    <contour>
      <point x="572" y="904" type="curve"/>
      <point x="516" y="905"/>
      <point x="465" y="919"/>
      <point x="420" y="946" type="curve" smooth="yes"/>
      <point x="328" y="1000"/>
      <point x="270" y="1096"/>
      <point x="270" y="1208" type="curve" smooth="yes"/>
      <point x="270" y="1264"/>
      <point x="284" y="1315"/>
      <point x="311" y="1361" type="curve" smooth="yes"/>
      <point x="338" y="1406"/>
      <point x="374" y="1443"/>
      <point x="420" y="1470" type="curve" smooth="yes"/>
      <point x="465" y="1497"/>
      <point x="516" y="1510"/>
      <point x="572" y="1510" type="curve" smooth="yes"/>
      <point x="628" y="1510"/>
      <point x="679" y="1497"/>
      <point x="725" y="1470" type="curve" smooth="yes"/>
      <point x="770" y="1443"/>
      <point x="807" y="1406"/>
      <point x="834" y="1361" type="curve" smooth="yes"/>
      <point x="861" y="1315"/>
      <point x="874" y="1264"/>
      <point x="874" y="1208" type="curve" smooth="yes"/>
      <point x="874" y="1152"/>
      <point x="861" y="1101"/>
      <point x="834" y="1055" type="curve" smooth="yes"/>
      <point x="780" y="963"/>
      <point x="684" y="905"/>
    </contour>
    <contour>
      <point x="572" y="952" type="curve" smooth="yes"/>
      <point x="619" y="952"/>
      <point x="662" y="963"/>
      <point x="701" y="986" type="curve" smooth="yes"/>
      <point x="778" y="1031"/>
      <point x="828" y="1113"/>
      <point x="828" y="1208" type="curve" smooth="yes"/>
      <point x="828" y="1255"/>
      <point x="817" y="1298"/>
      <point x="794" y="1337" type="curve" smooth="yes"/>
      <point x="748" y="1413"/>
      <point x="667" y="1464"/>
      <point x="572" y="1464" type="curve" smooth="yes"/>
      <point x="525" y="1464"/>
      <point x="482" y="1452"/>
      <point x="443" y="1429" type="curve" smooth="yes"/>
      <point x="366" y="1382"/>
      <point x="316" y="1303"/>
      <point x="316" y="1208" type="curve" smooth="yes"/>
      <point x="316" y="1161"/>
      <point x="328" y="1118"/>
      <point x="351" y="1079" type="curve" smooth="yes"/>
      <point x="397" y="1001"/>
      <point x="477" y="952"/>
    </contour>
  </outline>
</glyph>
<glyph name="two.sups" format="2">
  <advance width="880"/>
  <unicode hex="00B2"/>
  <anchor x="622" y="1683" name="t.uni030F_1"/>
  <outline>
    <contour>
      <point x="203" y="916" type="line"/>
      <point x="209" y="951" type="line"/>
      <point x="568" y="1241" type="line" smooth="yes"/>
      <point x="647" y="1305"/>
      <point x="740" y="1391"/>
      <point x="784" y="1459"/>
      <point x="790" y="1495" type="qcurve" smooth="yes"/>
      <point x="801" y="1563"/>
      <point x="701" y="1649"/>
      <point x="610" y="1649" type="qcurve" smooth="yes"/>
      <point x="514" y="1649"/>
      <point x="376" y="1555"/>
      <point x="362" y="1487" type="qcurve"/>
      <point x="315" y="1487" type="line"/>
      <point x="330" y="1575"/>
      <point x="497" y="1694"/>
      <point x="611" y="1694" type="qcurve" smooth="yes"/>
      <point x="721" y="1694"/>
      <point x="851" y="1580"/>
      <point x="837" y="1494" type="qcurve" smooth="yes"/>
      <point x="832" y="1463"/>
      <point x="806" y="1406"/>
      <point x="754" y="1343"/>
      <point x="664" y="1262"/>
      <point x="593" y="1207" type="qcurve" smooth="yes"/>
      <point x="285" y="966" type="line"/>
      <point x="284" y="961" type="line"/>
      <point x="807" y="961" type="line"/>
      <point x="799" y="916" type="line"/>
    </contour>
  </outline>
</glyph>
<glyph name="twosuperior" format="2">
  <advance width="880"/>
  <unicode hex="00B2"/>
  <anchor x="490" y="1606" name="m.uni030F_1"/>
  <outline>
    <contour>
      <point x="204" y="916" type="line"/>
      <point x="209" y="951" type="line"/>
      <point x="569" y="1242" type="line" smooth="yes"/>
      <point x="649" y="1307"/>
      <point x="742" y="1393"/>
      <point x="785" y="1459"/>
      <point x="790" y="1494" type="qcurve" smooth="yes"/>
      <point x="801" y="1562"/>
      <point x="695" y="1649"/>
      <point x="604" y="1649" type="qcurve" smooth="yes"/>
      <point x="509" y="1649"/>
      <point x="374" y="1555"/>
      <point x="363" y="1487" type="qcurve"/>
      <point x="315" y="1487" type="line"/>
      <point x="329" y="1574"/>
      <point x="497" y="1694"/>
      <point x="612" y="1694" type="qcurve" smooth="yes"/>
      <point x="723" y="1694"/>
      <point x="851" y="1580"/>
      <point x="837" y="1494" type="qcurve" smooth="yes"/>
      <point x="832" y="1462"/>
      <point x="803" y="1403"/>
      <point x="747" y="1338"/>
      <point x="657" y="1259"/>
      <point x="591" y="1207" type="qcurve" smooth="yes"/>
      <point x="284" y="966" type="line"/>
      <point x="283" y="961" type="line"/>
      <point x="807" y="961" type="line"/>
      <point x="800" y="916" type="line"/>
    </contour>
  </outline>
</glyph>
<glyph name="three.sups.ss01" format="2">
  <advance width="857"/>
  <unicode hex="00B3"/>
  <anchor x="627" y="1683" name="t.uni030F_1"/>
  <outline>
    <contour>
      <point x="503" y="906" type="qcurve" smooth="yes"/>
      <point x="422" y="906"/>
      <point x="295" y="955"/>
      <point x="228" y="1045"/>
      <point x="237" y="1105" type="qcurve"/>
      <point x="286" y="1105" type="line"/>
      <point x="276" y="1037"/>
      <point x="397" y="950"/>
      <point x="503" y="950" type="qcurve" smooth="yes"/>
      <point x="616" y="950"/>
      <point x="774" y="1050"/>
      <point x="787" y="1128" type="qcurve" smooth="yes"/>
      <point x="801" y="1211"/>
      <point x="659" y="1313"/>
      <point x="528" y="1313" type="qcurve" smooth="yes"/>
      <point x="473" y="1313" type="line"/>
      <point x="481" y="1354" type="line"/>
      <point x="822" y="1636" type="line"/>
      <point x="822" y="1639" type="line"/>
      <point x="367" y="1639" type="line"/>
      <point x="375" y="1683" type="line"/>
      <point x="901" y="1683" type="line"/>
      <point x="894" y="1647" type="line"/>
      <point x="515" y="1331" type="line"/>
      <point x="518" y="1344" type="line"/>
      <point x="625" y="1352"/>
      <point x="776" y="1298"/>
      <point x="847" y="1194"/>
      <point x="835" y="1126" type="qcurve" smooth="yes"/>
      <point x="824" y="1064"/>
      <point x="734" y="964"/>
      <point x="593" y="906"/>
    </contour>
  </outline>
</glyph>
<glyph name="threesuperior" format="2">
  <advance width="836"/>
  <unicode hex="00B3"/>
  <anchor x="492" y="1606" name="m.uni030F_1"/>
  <outline>
    <contour>
      <point x="480" y="906" type="qcurve" smooth="yes"/>
      <point x="398" y="906"/>
      <point x="272" y="956"/>
      <point x="208" y="1046"/>
      <point x="216" y="1105" type="qcurve"/>
      <point x="265" y="1105" type="line"/>
      <point x="255" y="1036"/>
      <point x="384" y="950"/>
      <point x="488" y="950" type="qcurve" smooth="yes"/>
      <point x="605" y="950"/>
      <point x="753" y="1053"/>
      <point x="766" y="1128" type="qcurve" smooth="yes"/>
      <point x="780" y="1211"/>
      <point x="631" y="1313"/>
      <point x="500" y="1313" type="qcurve" smooth="yes"/>
      <point x="457" y="1313" type="line"/>
      <point x="464" y="1354" type="line"/>
      <point x="806" y="1636" type="line"/>
      <point x="806" y="1639" type="line"/>
      <point x="345" y="1639" type="line"/>
      <point x="353" y="1683" type="line"/>
      <point x="880" y="1683" type="line"/>
      <point x="874" y="1647" type="line"/>
      <point x="494" y="1331" type="line"/>
      <point x="496" y="1344" type="line"/>
      <point x="604" y="1352"/>
      <point x="755" y="1297"/>
      <point x="826" y="1194"/>
      <point x="815" y="1128" type="qcurve" smooth="yes"/>
      <point x="805" y="1067"/>
      <point x="716" y="966"/>
      <point x="572" y="906"/>
    </contour>
  </outline>
</glyph>
<glyph name="micro" format="2">
  <advance width="1201"/>
  <unicode hex="00B5"/>
  <outline>
    <contour>
      <point x="37" y="-418" type="line"/>
      <point x="291" y="1118" type="line"/>
      <point x="337" y="1118" type="line"/>
      <point x="213" y="368" type="line" smooth="yes"/>
      <point x="202" y="304"/>
      <point x="208" y="247"/>
      <point x="231" y="196" type="curve" smooth="yes"/>
      <point x="275" y="94"/>
      <point x="376" y="30"/>
      <point x="511" y="30" type="curve" smooth="yes"/>
      <point x="579" y="30"/>
      <point x="642" y="45"/>
      <point x="700" y="75" type="curve" smooth="yes"/>
      <point x="816" y="134"/>
      <point x="900" y="240"/>
      <point x="921" y="368" type="curve" smooth="yes"/>
      <point x="1045" y="1118" type="line"/>
      <point x="1091" y="1118" type="line"/>
      <point x="939" y="198" type="line" smooth="yes"/>
      <point x="922" y="89"/>
      <point x="956" y="46"/>
      <point x="1052" y="46" type="curve" smooth="yes"/>
      <point x="1076" y="46" type="line"/>
      <point x="1068" y="0" type="line"/>
      <point x="1044" y="0" type="line" smooth="yes"/>
      <point x="921" y="0"/>
      <point x="872" y="62"/>
      <point x="893" y="198" type="curve" smooth="yes"/>
      <point x="921" y="368" type="line"/>
      <point x="957" y="368" type="line"/>
      <point x="933" y="227"/>
      <point x="866" y="130"/>
      <point x="779" y="70" type="curve" smooth="yes"/>
      <point x="692" y="10"/>
      <point x="594" y="-16"/>
      <point x="511" y="-16" type="curve" smooth="yes"/>
      <point x="428" y="-16"/>
      <point x="335" y="10"/>
      <point x="264" y="70" type="curve" smooth="yes"/>
      <point x="193" y="130"/>
      <point x="153" y="227"/>
      <point x="177" y="368" type="curve"/>
      <point x="213" y="368" type="line"/>
      <point x="83" y="-418" type="line"/>
    </contour>
  </outline>
</glyph>
<glyph name="one.sups.ss01" format="2">
  <advance width="551"/>
  <unicode hex="00B9"/>
  <outline>
    <contour>
      <point x="384" y="886" type="line"/>
      <point x="494" y="1548" type="line"/>
      <point x="497" y="1542" type="line"/>
      <point x="469" y="1522"/>
      <point x="402" y="1498"/>
      <point x="328" y="1489"/>
      <point x="271" y="1489" type="qcurve"/>
      <point x="278" y="1531" type="line"/>
      <point x="303" y="1531" type="line" smooth="yes"/>
      <point x="367" y="1531"/>
      <point x="491" y="1586"/>
      <point x="517" y="1653" type="qcurve"/>
      <point x="558" y="1653" type="line"/>
      <point x="431" y="886" type="line"/>
    </contour>
  </outline>
</glyph>
<glyph name="ordmasculine" format="2">
  <advance width="800"/>
  <unicode hex="00BA"/>
  <outline>
    <contour>
      <point x="423" y="690" type="curve" smooth="yes"/>
      <point x="364" y="690"/>
      <point x="313" y="707"/>
      <point x="271" y="740" type="curve" smooth="yes"/>
      <point x="187" y="807"/>
      <point x="148" y="928"/>
      <point x="173" y="1080" type="curve" smooth="yes"/>
      <point x="186" y="1155"/>
      <point x="210" y="1221"/>
      <point x="247" y="1278" type="curve" smooth="yes"/>
      <point x="320" y="1393"/>
      <point x="429" y="1462"/>
      <point x="541" y="1462" type="curve" smooth="yes"/>
      <point x="604" y="1462"/>
      <point x="656" y="1445"/>
      <point x="699" y="1410" type="curve" smooth="yes"/>
      <point x="783" y="1341"/>
      <point x="821" y="1219"/>
      <point x="797" y="1074" type="curve" smooth="yes"/>
      <point x="786" y="1001"/>
      <point x="762" y="936"/>
      <point x="726" y="878" type="curve" smooth="yes"/>
      <point x="654" y="762"/>
      <point x="546" y="690"/>
    </contour>
    <contour>
      <point x="425" y="730" type="curve"/>
      <point x="479" y="731"/>
      <point x="529" y="746"/>
      <point x="575" y="777" type="curve" smooth="yes"/>
      <point x="666" y="838"/>
      <point x="734" y="949"/>
      <point x="755" y="1082" type="curve" smooth="yes"/>
      <point x="764" y="1141"/>
      <point x="762" y="1197"/>
      <point x="749" y="1248" type="curve" smooth="yes"/>
      <point x="721" y="1350"/>
      <point x="652" y="1418"/>
      <point x="545" y="1418" type="curve" smooth="yes"/>
      <point x="493" y="1418"/>
      <point x="444" y="1403"/>
      <point x="398" y="1372" type="curve" smooth="yes"/>
      <point x="306" y="1310"/>
      <point x="238" y="1200"/>
      <point x="217" y="1068" type="curve" smooth="yes"/>
      <point x="206" y="1005"/>
      <point x="208" y="949"/>
      <point x="222" y="898" type="curve" smooth="yes"/>
      <point x="250" y="796"/>
      <point x="322" y="731"/>
    </contour>
    <contour>
      <point x="665" y="522" type="line"/>
      <point x="657" y="476" type="line"/>
      <point x="114" y="476" type="line"/>
      <point x="122" y="522" type="line"/>
    </contour>
  </outline>
</glyph>
<glyph name="questiondown" format="2">
  <advance width="981"/>
  <unicode hex="00BF"/>
  <outline>
    <contour>
      <point x="576" y="676" type="line"/>
      <point x="559" y="574" type="line" smooth="yes"/>
      <point x="552" y="529"/>
      <point x="539" y="490"/>
      <point x="521" y="455" type="curve" smooth="yes"/>
      <point x="503" y="420"/>
      <point x="477" y="387"/>
      <point x="442" y="356" type="curve" smooth="yes"/>
      <point x="408" y="325"/>
      <point x="363" y="291"/>
      <point x="308" y="256" type="curve" smooth="yes"/>
      <point x="225" y="205"/>
      <point x="166" y="158"/>
      <point x="131" y="115" type="curve" smooth="yes"/>
      <point x="96" y="72"/>
      <point x="74" y="25"/>
      <point x="65" y="-28" type="curve" smooth="yes"/>
      <point x="55" y="-90"/>
      <point x="61" y="-145"/>
      <point x="82" y="-193" type="curve" smooth="yes"/>
      <point x="126" y="-288"/>
      <point x="220" y="-346"/>
      <point x="345" y="-346" type="curve" smooth="yes"/>
      <point x="411" y="-346"/>
      <point x="472" y="-331"/>
      <point x="529" y="-301" type="curve" smooth="yes"/>
      <point x="642" y="-240"/>
      <point x="723" y="-132"/>
      <point x="746" y="0" type="curve"/>
      <point x="792" y="0" type="line"/>
      <point x="779" y="-75"/>
      <point x="751" y="-142"/>
      <point x="707" y="-201" type="curve" smooth="yes"/>
      <point x="664" y="-260"/>
      <point x="610" y="-306"/>
      <point x="545" y="-341" type="curve" smooth="yes"/>
      <point x="480" y="-375"/>
      <point x="411" y="-392"/>
      <point x="337" y="-392" type="curve" smooth="yes"/>
      <point x="266" y="-392"/>
      <point x="204" y="-376"/>
      <point x="152" y="-345" type="curve" smooth="yes"/>
      <point x="49" y="-282"/>
      <point x="-4" y="-168"/>
      <point x="19" y="-28" type="curve" smooth="yes"/>
      <point x="30" y="33"/>
      <point x="55" y="88"/>
      <point x="95" y="136" type="curve" smooth="yes"/>
      <point x="135" y="185"/>
      <point x="200" y="237"/>
      <point x="289" y="294" type="curve" smooth="yes"/>
      <point x="340" y="327"/>
      <point x="381" y="358"/>
      <point x="411" y="385" type="curve" smooth="yes"/>
      <point x="441" y="413"/>
      <point x="463" y="442"/>
      <point x="478" y="471" type="curve" smooth="yes"/>
      <point x="493" y="500"/>
      <point x="504" y="535"/>
      <point x="511" y="574" type="curve" smooth="yes"/>
      <point x="528" y="676" type="line"/>
    </contour>
    <contour>
      <point x="670" y="1118" type="line"/>
      <point x="655" y="1028" type="line"/>
      <point x="565" y="1028" type="line"/>
      <point x="580" y="1118" type="line"/>
    </contour>
  </outline>
</glyph>
<glyph name="Thorn" format="2">
  <advance width="1210"/>
  <unicode hex="00DE"/>
  <outline>
    <contour>
      <point x="366" y="1490" type="line"/>
      <point x="410" y="1490" type="line"/>
      <point x="162" y="0" type="line"/>
      <point x="120" y="0" type="line"/>
    </contour>
    <contour>
      <point x="328" y="1132" type="line"/>
      <point x="710" y="1132" type="line" smooth="yes"/>
      <point x="803" y="1132"/>
      <point x="878" y="1115"/>
      <point x="937" y="1080" type="curve" smooth="yes"/>
      <point x="1053" y="1011"/>
      <point x="1101" y="888"/>
      <point x="1078" y="748" type="curve" smooth="yes"/>
      <point x="1066" y="672"/>
      <point x="1040" y="605"/>
      <point x="999" y="547" type="curve" smooth="yes"/>
      <point x="917" y="430"/>
      <point x="778" y="361"/>
      <point x="582" y="360" type="curve"/>
      <point x="200" y="360" type="line"/>
      <point x="212" y="408" type="line"/>
      <point x="594" y="408" type="line" smooth="yes"/>
      <point x="672" y="408"/>
      <point x="741" y="421"/>
      <point x="802" y="446" type="curve" smooth="yes"/>
      <point x="923" y="496"/>
      <point x="1005" y="596"/>
      <point x="1030" y="744" type="curve" smooth="yes"/>
      <point x="1043" y="817"/>
      <point x="1038" y="879"/>
      <point x="1014" y="930" type="curve" smooth="yes"/>
      <point x="966" y="1031"/>
      <point x="854" y="1086"/>
      <point x="698" y="1086" type="curve" smooth="yes"/>
      <point x="318" y="1086" type="line"/>
    </contour>
  </outline>
</glyph>
<glyph name="germandbls" format="2">
  <advance width="1178"/>
  <unicode hex="00DF"/>
  <outline>
    <contour>
      <point x="139" y="0" type="line"/>
      <point x="330" y="1152" type="line" smooth="yes"/>
      <point x="343" y="1226"/>
      <point x="368" y="1290"/>
      <point x="406" y="1343" type="curve" smooth="yes"/>
      <point x="481" y="1450"/>
      <point x="601" y="1510"/>
      <point x="749" y="1510" type="curve" smooth="yes"/>
      <point x="823" y="1510"/>
      <point x="885" y="1496"/>
      <point x="934" y="1467" type="curve" smooth="yes"/>
      <point x="983" y="1438"/>
      <point x="1017" y="1396"/>
      <point x="1038" y="1343" type="curve" smooth="yes"/>
      <point x="1059" y="1290"/>
      <point x="1063" y="1226"/>
      <point x="1050" y="1152" type="curve" smooth="yes"/>
      <point x="1034" y="1056"/>
      <point x="997" y="975"/>
      <point x="939" y="910" type="curve" smooth="yes"/>
      <point x="880" y="844"/>
      <point x="803" y="799"/>
      <point x="708" y="775" type="curve"/>
      <point x="707" y="771" type="line"/>
      <point x="808" y="754"/>
      <point x="885" y="712"/>
      <point x="938" y="643" type="curve" smooth="yes"/>
      <point x="991" y="574"/>
      <point x="1008" y="488"/>
      <point x="991" y="386" type="curve" smooth="yes"/>
      <point x="978" y="309"/>
      <point x="949" y="242"/>
      <point x="904" y="184" type="curve" smooth="yes"/>
      <point x="812" y="68"/>
      <point x="667" y="0"/>
      <point x="495" y="0" type="curve" smooth="yes"/>
      <point x="393" y="0" type="line"/>
      <point x="401" y="46" type="line"/>
      <point x="503" y="46" type="line" smooth="yes"/>
      <point x="580" y="46"/>
      <point x="650" y="60"/>
      <point x="713" y="89" type="curve" smooth="yes"/>
      <point x="838" y="145"/>
      <point x="924" y="250"/>
      <point x="945" y="386" type="curve"/>
      <point x="964" y="496"/>
      <point x="937" y="584"/>
      <point x="865" y="650" type="curve" smooth="yes"/>
      <point x="793" y="716"/>
      <point x="686" y="749"/>
      <point x="545" y="749" type="curve" smooth="yes"/>
      <point x="523" y="749" type="line"/>
      <point x="530" y="791" type="line"/>
      <point x="552" y="791" type="line" smooth="yes"/>
      <point x="633" y="791"/>
      <point x="706" y="806"/>
      <point x="769" y="835" type="curve" smooth="yes"/>
      <point x="896" y="893"/>
      <point x="980" y="1003"/>
      <point x="1004" y="1152" type="curve" smooth="yes"/>
      <point x="1021" y="1250"/>
      <point x="1006" y="1327"/>
      <point x="960" y="1382" type="curve" smooth="yes"/>
      <point x="913" y="1437"/>
      <point x="841" y="1464"/>
      <point x="742" y="1464" type="curve" smooth="yes"/>
      <point x="643" y="1464"/>
      <point x="562" y="1437"/>
      <point x="498" y="1382" type="curve" smooth="yes"/>
      <point x="433" y="1327"/>
      <point x="393" y="1250"/>
      <point x="376" y="1152" type="curve" smooth="yes"/>
      <point x="185" y="0" type="line"/>
    </contour>
  </outline>
</glyph>
<glyph name="ae" format="2">
  <advance width="1888"/>
  <unicode hex="00E6"/>
  <anchor x="1047" y="1303" name="m.uni030F_1"/>
  <outline>
    <contour>
      <point x="381" y="-23" type="curve" smooth="yes"/>
      <point x="320" y="-23"/>
      <point x="266" y="-11"/>
      <point x="219" y="15" type="curve" smooth="yes"/>
      <point x="125" y="65"/>
      <point x="72" y="163"/>
      <point x="93" y="303" type="curve"/>
      <point x="106" y="378"/>
      <point x="138" y="446"/>
      <point x="209" y="500" type="curve" smooth="yes"/>
      <point x="280" y="554"/>
      <point x="394" y="587"/>
      <point x="567" y="614" type="curve" smooth="yes"/>
      <point x="875" y="661" type="line"/>
      <point x="899" y="803" type="line" smooth="yes"/>
      <point x="914" y="890"/>
      <point x="896" y="959"/>
      <point x="847" y="1011" type="curve" smooth="yes"/>
      <point x="797" y="1062"/>
      <point x="724" y="1088"/>
      <point x="628" y="1088" type="curve" smooth="yes"/>
      <point x="550" y="1088"/>
      <point x="479" y="1071"/>
      <point x="415" y="1036" type="curve" smooth="yes"/>
      <point x="350" y="1001"/>
      <point x="301" y="953"/>
      <point x="268" y="890" type="curve"/>
      <point x="227" y="908" type="line"/>
      <point x="252" y="954"/>
      <point x="286" y="994"/>
      <point x="328" y="1028" type="curve" smooth="yes"/>
      <point x="412" y="1096"/>
      <point x="521" y="1135"/>
      <point x="637" y="1135" type="curve" smooth="yes"/>
      <point x="750" y="1135"/>
      <point x="836" y="1099"/>
      <point x="889" y="1040" type="curve" smooth="yes"/>
      <point x="941" y="980"/>
      <point x="962" y="898"/>
      <point x="945" y="803" type="curve" smooth="yes"/>
      <point x="870" y="349" type="line"/>
      <point x="861" y="349" type="line"/>
      <point x="824" y="260"/>
      <point x="779" y="188"/>
      <point x="726" y="134" type="curve" smooth="yes"/>
      <point x="618" y="25"/>
      <point x="493" y="-23"/>
    </contour>
    <contour>
      <point x="390" y="23" type="curve" smooth="yes"/>
      <point x="461" y="23"/>
      <point x="528" y="42"/>
      <point x="592" y="80" type="curve" smooth="yes"/>
      <point x="719" y="156"/>
      <point x="815" y="297"/>
      <point x="844" y="477" type="curve" smooth="yes"/>
      <point x="867" y="614" type="line"/>
      <point x="579" y="570" type="line" smooth="yes"/>
      <point x="478" y="555"/>
      <point x="396" y="536"/>
      <point x="335" y="514" type="curve" smooth="yes"/>
      <point x="212" y="470"/>
      <point x="157" y="398"/>
      <point x="140" y="303" type="curve"/>
      <point x="127" y="218"/>
      <point x="144" y="151"/>
      <point x="193" y="100" type="curve" smooth="yes"/>
      <point x="241" y="49"/>
      <point x="307" y="23"/>
    </contour>
    <contour>
      <point x="1228" y="-23" type="curve" smooth="yes"/>
      <point x="1116" y="-23"/>
      <point x="1026" y="10"/>
      <point x="958" y="76" type="curve" smooth="yes"/>
      <point x="890" y="142"/>
      <point x="848" y="228"/>
      <point x="832" y="335" type="curve"/>
      <point x="928" y="817" type="line"/>
      <point x="981" y="913"/>
      <point x="1048" y="990"/>
      <point x="1131" y="1048" type="curve" smooth="yes"/>
      <point x="1214" y="1106"/>
      <point x="1302" y="1135"/>
      <point x="1396" y="1135" type="curve" smooth="yes"/>
      <point x="1527" y="1135"/>
      <point x="1630" y="1075"/>
      <point x="1696" y="978" type="curve" smooth="yes"/>
      <point x="1762" y="881"/>
      <point x="1789" y="749"/>
      <point x="1766" y="605" type="curve"/>
      <point x="1757" y="559" type="line"/>
      <point x="870" y="559" type="line"/>
      <point x="879" y="605" type="line"/>
      <point x="1719" y="605" type="line"/>
      <point x="1734" y="694"/>
      <point x="1729" y="776"/>
      <point x="1704" y="849" type="curve" smooth="yes"/>
      <point x="1679" y="922"/>
      <point x="1639" y="980"/>
      <point x="1584" y="1023" type="curve" smooth="yes"/>
      <point x="1529" y="1066"/>
      <point x="1463" y="1088"/>
      <point x="1388" y="1088" type="curve" smooth="yes"/>
      <point x="1311" y="1088"/>
      <point x="1238" y="1065"/>
      <point x="1168" y="1020" type="curve" smooth="yes"/>
      <point x="1098" y="974"/>
      <point x="1038" y="912"/>
      <point x="988" y="834" type="curve" smooth="yes"/>
      <point x="937" y="755"/>
      <point x="903" y="666"/>
      <point x="884" y="567" type="curve"/>
      <point x="884" y="561" type="line"/>
      <point x="868" y="464"/>
      <point x="870" y="374"/>
      <point x="891" y="293" type="curve" smooth="yes"/>
      <point x="912" y="211"/>
      <point x="951" y="146"/>
      <point x="1009" y="97" type="curve" smooth="yes"/>
      <point x="1066" y="48"/>
      <point x="1142" y="23"/>
      <point x="1236" y="23" type="curve" smooth="yes"/>
      <point x="1305" y="23"/>
      <point x="1365" y="35"/>
      <point x="1416" y="60" type="curve" smooth="yes"/>
      <point x="1466" y="84"/>
      <point x="1508" y="112"/>
      <point x="1541" y="144" type="curve" smooth="yes"/>
      <point x="1574" y="175"/>
      <point x="1600" y="202"/>
      <point x="1617" y="224" type="curve"/>
      <point x="1649" y="198" type="line"/>
      <point x="1629" y="170"/>
      <point x="1600" y="139"/>
      <point x="1562" y="104" type="curve" smooth="yes"/>
      <point x="1523" y="69"/>
      <point x="1476" y="40"/>
      <point x="1421" y="15" type="curve" smooth="yes"/>
      <point x="1365" y="-11"/>
      <point x="1301" y="-23"/>
    </contour>
  </outline>
</glyph>
<glyph name="eth" format="2">
  <advance width="1214"/>
  <unicode hex="00F0"/>
  <outline>
    <contour>
      <point x="1132" y="1458" type="line"/>
      <point x="518" y="1200" type="line"/>
      <point x="512" y="1248" type="line"/>
      <point x="1126" y="1506" type="line"/>
    </contour>
    <contour>
      <point x="512" y="-24" type="curve" smooth="yes"/>
      <point x="424" y="-23"/>
      <point x="348" y="1"/>
      <point x="283" y="50" type="curve" smooth="yes"/>
      <point x="218" y="98"/>
      <point x="172" y="163"/>
      <point x="143" y="246" type="curve" smooth="yes"/>
      <point x="114" y="328"/>
      <point x="107" y="419"/>
      <point x="124" y="520" type="curve" smooth="yes"/>
      <point x="141" y="623"/>
      <point x="178" y="715"/>
      <point x="233" y="797" type="curve" smooth="yes"/>
      <point x="288" y="878"/>
      <point x="356" y="943"/>
      <point x="436" y="991" type="curve" smooth="yes"/>
      <point x="515" y="1038"/>
      <point x="600" y="1062"/>
      <point x="690" y="1062" type="curve" smooth="yes"/>
      <point x="745" y="1062"/>
      <point x="795" y="1053"/>
      <point x="840" y="1034" type="curve" smooth="yes"/>
      <point x="931" y="997"/>
      <point x="1001" y="924"/>
      <point x="1042" y="820" type="curve"/>
      <point x="1048" y="820" type="line"/>
      <point x="1033" y="920"/>
      <point x="1006" y="1014"/>
      <point x="965" y="1103" type="curve" smooth="yes"/>
      <point x="924" y="1192"/>
      <point x="872" y="1273"/>
      <point x="807" y="1347" type="curve" smooth="yes"/>
      <point x="742" y="1420"/>
      <point x="665" y="1483"/>
      <point x="576" y="1536" type="curve"/>
      <point x="598" y="1582" type="line"/>
      <point x="690" y="1528"/>
      <point x="770" y="1463"/>
      <point x="839" y="1388" type="curve" smooth="yes"/>
      <point x="907" y="1313"/>
      <point x="962" y="1230"/>
      <point x="1004" y="1139" type="curve" smooth="yes"/>
      <point x="1045" y="1048"/>
      <point x="1073" y="953"/>
      <point x="1087" y="853" type="curve" smooth="yes"/>
      <point x="1100" y="753"/>
      <point x="1099" y="651"/>
      <point x="1082" y="548" type="curve" smooth="yes"/>
      <point x="1063" y="431"/>
      <point x="1026" y="330"/>
      <point x="970" y="245" type="curve" smooth="yes"/>
      <point x="857" y="74"/>
      <point x="692" y="-23"/>
    </contour>
    <contour>
      <point x="520" y="24" type="curve" smooth="yes"/>
      <point x="600" y="24"/>
      <point x="676" y="46"/>
      <point x="748" y="91" type="curve" smooth="yes"/>
      <point x="820" y="135"/>
      <point x="882" y="195"/>
      <point x="933" y="270" type="curve" smooth="yes"/>
      <point x="984" y="345"/>
      <point x="1017" y="428"/>
      <point x="1032" y="520" type="curve" smooth="yes"/>
      <point x="1048" y="614"/>
      <point x="1043" y="698"/>
      <point x="1018" y="773" type="curve" smooth="yes"/>
      <point x="992" y="848"/>
      <point x="950" y="907"/>
      <point x="893" y="951" type="curve" smooth="yes"/>
      <point x="835" y="994"/>
      <point x="765" y="1016"/>
      <point x="684" y="1016" type="curve" smooth="yes"/>
      <point x="605" y="1016"/>
      <point x="529" y="994"/>
      <point x="456" y="949" type="curve" smooth="yes"/>
      <point x="383" y="904"/>
      <point x="321" y="845"/>
      <point x="270" y="770" type="curve" smooth="yes"/>
      <point x="219" y="695"/>
      <point x="185" y="611"/>
      <point x="170" y="520" type="curve" smooth="yes"/>
      <point x="155" y="425"/>
      <point x="160" y="341"/>
      <point x="185" y="266" type="curve" smooth="yes"/>
      <point x="236" y="116"/>
      <point x="356" y="24"/>
    </contour>
  </outline>
</glyph>
<glyph name="divide" format="2">
  <advance width="1304"/>
  <unicode hex="00F7"/>
  <outline>
    <contour>
      <point x="1082" y="606" type="line"/>
      <point x="1074" y="558" type="line"/>
      <point x="230" y="558" type="line"/>
      <point x="238" y="606" type="line"/>
    </contour>
    <contour>
      <point x="600" y="198" type="curve" smooth="yes"/>
      <point x="585" y="198"/>
      <point x="573" y="203"/>
      <point x="563" y="213" type="curve"/>
      <point x="552" y="223"/>
      <point x="547" y="235"/>
      <point x="546" y="250" type="curve"/>
      <point x="547" y="260"/>
      <point x="549" y="269"/>
      <point x="554" y="277" type="curve"/>
      <point x="563" y="293"/>
      <point x="580" y="303"/>
      <point x="600" y="302" type="curve"/>
      <point x="614" y="303"/>
      <point x="626" y="298"/>
      <point x="637" y="288" type="curve"/>
      <point x="647" y="277"/>
      <point x="652" y="265"/>
      <point x="652" y="250" type="curve" smooth="yes"/>
      <point x="652" y="235"/>
      <point x="647" y="223"/>
      <point x="637" y="213" type="curve"/>
      <point x="626" y="203"/>
      <point x="614" y="198"/>
    </contour>
    <contour>
      <point x="710" y="862" type="curve"/>
      <point x="701" y="862"/>
      <point x="692" y="864"/>
      <point x="684" y="869" type="curve"/>
      <point x="668" y="877"/>
      <point x="658" y="894"/>
      <point x="658" y="914" type="curve"/>
      <point x="657" y="929"/>
      <point x="662" y="941"/>
      <point x="673" y="951" type="curve"/>
      <point x="683" y="961"/>
      <point x="695" y="966"/>
      <point x="710" y="966" type="curve" smooth="yes"/>
      <point x="725" y="966"/>
      <point x="737" y="961"/>
      <point x="747" y="951" type="curve" smooth="yes"/>
      <point x="757" y="941"/>
      <point x="762" y="929"/>
      <point x="762" y="914" type="curve" smooth="yes"/>
      <point x="762" y="899"/>
      <point x="757" y="887"/>
      <point x="747" y="877" type="curve"/>
      <point x="737" y="866"/>
      <point x="725" y="861"/>
    </contour>
  </outline>
</glyph>
<glyph name="thorn" format="2">
  <advance width="1190"/>
  <unicode hex="00FE"/>
  <outline>
    <contour>
      <point x="533" y="-24" type="qcurve" smooth="yes"/>
      <point x="443" y="-24"/>
      <point x="305" y="50"/>
      <point x="218" y="187"/>
      <point x="204" y="280" type="qcurve"/>
      <point x="198" y="280" type="line"/>
      <point x="82" y="-418" type="line"/>
      <point x="36" y="-418" type="line"/>
      <point x="352" y="1490" type="line"/>
      <point x="398" y="1490" type="line"/>
      <point x="289" y="832" type="line"/>
      <point x="295" y="832" type="line"/>
      <point x="339" y="925"/>
      <point x="472" y="1061"/>
      <point x="636" y="1134"/>
      <point x="725" y="1134" type="qcurve" smooth="yes"/>
      <point x="856" y="1134"/>
      <point x="1024" y="982"/>
      <point x="1087" y="720"/>
      <point x="1060" y="556" type="qcurve" smooth="yes"/>
      <point x="1033" y="391"/>
      <point x="883" y="128"/>
      <point x="665" y="-24"/>
    </contour>
    <contour>
      <point x="541" y="22" type="qcurve" smooth="yes"/>
      <point x="659" y="22"/>
      <point x="855" y="163"/>
      <point x="989" y="405"/>
      <point x="1014" y="556" type="qcurve" smooth="yes"/>
      <point x="1039" y="707"/>
      <point x="984" y="948"/>
      <point x="836" y="1088"/>
      <point x="718" y="1088" type="qcurve" smooth="yes"/>
      <point x="600" y="1088"/>
      <point x="403" y="948"/>
      <point x="269" y="707"/>
      <point x="244" y="556" type="qcurve" smooth="yes"/>
      <point x="219" y="405"/>
      <point x="272" y="163"/>
      <point x="422" y="22"/>
    </contour>
  </outline>
</glyph>
<glyph name="Hbar" format="2">
  <advance width="1532"/>
  <unicode hex="0126"/>
  <anchor x="847" y="0" name="m.uni0326"/>
  <anchor x="1094" y="1490" name="m.uni030F_1"/>
  <anchor x="380" y="0" name="m.uni0327_3"/>
  <outline>
    <contour>
      <point x="1490" y="1080" type="line"/>
      <point x="1480" y="1032" type="line"/>
      <point x="206" y="1032" type="line"/>
      <point x="216" y="1080" type="line"/>
    </contour>
    <contour>
      <point x="151" y="0" type="line"/>
      <point x="398" y="1490" type="line"/>
      <point x="446" y="1490" type="line"/>
      <point x="329" y="784" type="line"/>
      <point x="1277" y="784" type="line"/>
      <point x="1394" y="1490" type="line"/>
      <point x="1440" y="1490" type="line"/>
      <point x="1193" y="0" type="line"/>
      <point x="1147" y="0" type="line"/>
      <point x="1269" y="738" type="line"/>
      <point x="321" y="738" type="line"/>
      <point x="199" y="0" type="line"/>
    </contour>
  </outline>
</glyph>
<glyph name="dotlessi" format="2">
  <advance width="443"/>
  <unicode hex="0131"/>
  <anchor x="267" y="0" name="m.uni0326"/>
  <anchor x="468" y="1242" name="m.uni030F_1"/>
  <anchor x="456" y="0" name="m.uni0328_4"/>
  <outline>
    <contour>
      <point x="106" y="0" type="line"/>
      <point x="291" y="1118" type="line"/>
      <point x="337" y="1118" type="line"/>
      <point x="152" y="0" type="line"/>
    </contour>
  </outline>
</glyph>
<glyph name="Eng" format="2">
  <advance width="1580"/>
  <unicode hex="014A"/>
  <anchor x="821" y="0" name="m.uni0326"/>
  <anchor x="1068" y="1490" name="m.uni030F_1"/>
  <outline>
    <contour>
      <point x="930" y="-418" type="curve"/>
      <point x="937" y="-372" type="line"/>
      <point x="962" y="-372"/>
      <point x="992" y="-372"/>
      <point x="1009" y="-372" type="curve" smooth="yes"/>
      <point x="1057" y="-372"/>
      <point x="1094" y="-360"/>
      <point x="1121" y="-337" type="curve" smooth="yes"/>
      <point x="1147" y="-314"/>
      <point x="1164" y="-275"/>
      <point x="1173" y="-220" type="curve" smooth="yes"/>
      <point x="1230" y="128" type="line"/>
      <point x="1276" y="128" type="line"/>
      <point x="1219" y="-220" type="line" smooth="yes"/>
      <point x="1196" y="-356"/>
      <point x="1125" y="-418"/>
      <point x="1002" y="-418" type="curve" smooth="yes"/>
      <point x="985" y="-418"/>
      <point x="953" y="-418"/>
    </contour>
    <contour>
      <point x="139" y="0" type="line"/>
      <point x="386" y="1490" type="line"/>
      <point x="428" y="1490" type="line"/>
      <point x="1063" y="359" type="line" smooth="yes"/>
      <point x="1083" y="324"/>
      <point x="1102" y="290"/>
      <point x="1121" y="255" type="curve" smooth="yes"/>
      <point x="1158" y="186"/>
      <point x="1195" y="117"/>
      <point x="1234" y="48" type="curve"/>
      <point x="1221" y="48" type="line"/>
      <point x="1227" y="83"/>
      <point x="1232" y="117"/>
      <point x="1237" y="152" type="curve" smooth="yes"/>
      <point x="1242" y="186"/>
      <point x="1247" y="220"/>
      <point x="1252" y="255" type="curve" smooth="yes"/>
      <point x="1257" y="290"/>
      <point x="1263" y="324"/>
      <point x="1268" y="359" type="curve" smooth="yes"/>
      <point x="1456" y="1490" type="line"/>
      <point x="1502" y="1490" type="line"/>
      <point x="1255" y="0" type="line"/>
      <point x="1213" y="0" type="line"/>
      <point x="579" y="1129" type="line" smooth="yes"/>
      <point x="560" y="1164"/>
      <point x="541" y="1198"/>
      <point x="522" y="1233" type="curve" smooth="yes"/>
      <point x="484" y="1302"/>
      <point x="447" y="1372"/>
      <point x="408" y="1441" type="curve"/>
      <point x="420" y="1441" type="line"/>
      <point x="414" y="1406"/>
      <point x="409" y="1372"/>
      <point x="404" y="1337" type="curve" smooth="yes"/>
      <point x="394" y="1268"/>
      <point x="384" y="1198"/>
      <point x="372" y="1129" type="curve" smooth="yes"/>
      <point x="185" y="0" type="line"/>
    </contour>
  </outline>
</glyph>
<glyph name="OE" format="2">
  <advance width="1886"/>
  <unicode hex="0152"/>
  <anchor x="1076" y="0" name="m.uni0326"/>
  <anchor x="1323" y="1490" name="m.uni030F_1"/>
  <anchor x="1029" y="0" name="m.uni0327_3"/>
  <anchor x="1563" y="0" name="m.uni0328_4"/>
  <outline>
    <contour>
      <point x="670" y="0" type="line" smooth="yes"/>
      <point x="547" y="0"/>
      <point x="445" y="31"/>
      <point x="364" y="94" type="curve" smooth="yes"/>
      <point x="282" y="157"/>
      <point x="225" y="244"/>
      <point x="192" y="356" type="curve" smooth="yes"/>
      <point x="159" y="468"/>
      <point x="154" y="597"/>
      <point x="178" y="744" type="curve" smooth="yes"/>
      <point x="203" y="894"/>
      <point x="250" y="1025"/>
      <point x="319" y="1137" type="curve" smooth="yes"/>
      <point x="388" y="1248"/>
      <point x="474" y="1335"/>
      <point x="577" y="1397" type="curve" smooth="yes"/>
      <point x="679" y="1459"/>
      <point x="792" y="1490"/>
      <point x="916" y="1490" type="curve" smooth="yes"/>
      <point x="1100" y="1490" type="line"/>
      <point x="1090" y="1442" type="line"/>
      <point x="908" y="1442" type="line"/>
      <point x="796" y="1443"/>
      <point x="693" y="1415"/>
      <point x="598" y="1356" type="curve" smooth="yes"/>
      <point x="503" y="1297"/>
      <point x="423" y="1216"/>
      <point x="358" y="1111" type="curve" smooth="yes"/>
      <point x="293" y="1006"/>
      <point x="248" y="883"/>
      <point x="224" y="744" type="curve" smooth="yes"/>
      <point x="201" y="604"/>
      <point x="204" y="482"/>
      <point x="233" y="377" type="curve" smooth="yes"/>
      <point x="262" y="272"/>
      <point x="314" y="191"/>
      <point x="390" y="134" type="curve" smooth="yes"/>
      <point x="465" y="76"/>
      <point x="561" y="47"/>
      <point x="678" y="46" type="curve"/>
      <point x="862" y="46" type="line"/>
      <point x="852" y="0" type="line"/>
    </contour>
    <contour>
      <point x="829" y="0" type="line"/>
      <point x="1076" y="1490" type="line"/>
      <point x="1870" y="1490" type="line"/>
      <point x="1862" y="1442" type="line"/>
      <point x="1116" y="1442" type="line"/>
      <point x="1004" y="768" type="line"/>
      <point x="1708" y="768" type="line"/>
      <point x="1701" y="722" type="line"/>
      <point x="997" y="722" type="line"/>
      <point x="885" y="46" type="line"/>
      <point x="1653" y="46" type="line"/>
      <point x="1645" y="0" type="line"/>
    </contour>
  </outline>
</glyph>
<glyph name="tbar" format="2">
  <advance width="495"/>
  <unicode hex="0167"/>
  <anchor x="290" y="0" name="m.uni0326"/>
  <anchor x="416" y="1464" name="m.uni030F_1"/>
  <anchor x="377" y="0" name="m.uni0327_3"/>
  <outline>
    <contour>
      <point x="483" y="745" type="line"/>
      <point x="476" y="699" type="line"/>
      <point x="34" y="699" type="line"/>
      <point x="41" y="745" type="line"/>
    </contour>
    <contour>
      <point x="313" y="1384" type="line"/>
      <point x="359" y="1384" type="line"/>
      <point x="165" y="213" type="line" smooth="yes"/>
      <point x="148" y="110"/>
      <point x="233" y="17"/>
      <point x="324" y="40" type="qcurve" smooth="yes"/>
      <point x="332" y="42"/>
      <point x="351" y="47"/>
      <point x="359" y="49" type="qcurve"/>
      <point x="363" y="4" type="line"/>
      <point x="353" y="2"/>
      <point x="334" y="-3"/>
      <point x="324" y="-5" type="qcurve"/>
      <point x="208" y="-32"/>
      <point x="100" y="97"/>
      <point x="119" y="213" type="qcurve" smooth="yes"/>
    </contour>
    <contour>
      <point x="546" y="1118" type="line"/>
      <point x="538" y="1072" type="line"/>
      <point x="96" y="1072" type="line"/>
      <point x="104" y="1118" type="line"/>
    </contour>
  </outline>
</glyph>
<glyph name="Bhook" format="2">
  <advance width="1470"/>
  <unicode hex="0181"/>
  <outline>
    <contour>
      <point x="176" y="1118" type="line"/>
      <point x="203" y="1280" type="line" smooth="yes"/>
      <point x="220" y="1382"/>
      <point x="339" y="1490"/>
      <point x="434" y="1490" type="qcurve" smooth="yes"/>
      <point x="544" y="1490" type="line"/>
      <point x="536" y="1444" type="line"/>
      <point x="430" y="1444" type="line" smooth="yes"/>
      <point x="351" y="1444"/>
      <point x="263" y="1364"/>
      <point x="249" y="1280" type="qcurve" smooth="yes"/>
      <point x="222" y="1118" type="line"/>
    </contour>
    <contour>
      <point x="299" y="0" type="line"/>
      <point x="546" y="1490" type="line"/>
      <point x="1009" y="1490" type="line" smooth="yes"/>
      <point x="1134" y="1490"/>
      <point x="1297" y="1397"/>
      <point x="1365" y="1227"/>
      <point x="1345" y="1109" type="qcurve" smooth="yes"/>
      <point x="1331" y="1022"/>
      <point x="1253" y="876"/>
      <point x="1135" y="777"/>
      <point x="1060" y="759" type="qcurve"/>
      <point x="1060" y="755" type="line"/>
      <point x="1133" y="748"/>
      <point x="1246" y="647"/>
      <point x="1300" y="483"/>
      <point x="1282" y="379" type="qcurve" smooth="yes"/>
      <point x="1263" y="264"/>
      <point x="1139" y="94"/>
      <point x="943" y="0"/>
      <point x="815" y="0" type="qcurve" smooth="yes"/>
    </contour>
    <contour>
      <point x="353" y="46" type="line"/>
      <point x="820" y="46" type="line" smooth="yes"/>
      <point x="984" y="46"/>
      <point x="1212" y="233"/>
      <point x="1237" y="385" type="qcurve" smooth="yes"/>
      <point x="1254" y="488"/>
      <point x="1189" y="645"/>
      <point x="1042" y="734"/>
      <point x="937" y="734" type="qcurve" smooth="yes"/>
      <point x="467" y="734" type="line"/>
    </contour>
    <contour>
      <point x="475" y="780" type="line"/>
      <point x="941" y="780" type="line" smooth="yes"/>
      <point x="1043" y="780"/>
      <point x="1193" y="873"/>
      <point x="1285" y="1026"/>
      <point x="1300" y="1115" type="qcurve" smooth="yes"/>
      <point x="1326" y="1273"/>
      <point x="1167" y="1444"/>
      <point x="1004" y="1444" type="qcurve" smooth="yes"/>
      <point x="585" y="1444" type="line"/>
    </contour>
  </outline>
</glyph>
<glyph name="Btopbar" format="2">
  <advance width="1337"/>
  <unicode hex="0182"/>
  <outline>
    <contour>
      <point x="140" y="0" type="line"/>
      <point x="386" y="1490" type="line"/>
      <point x="1196" y="1490" type="line"/>
      <point x="1186" y="1442" type="line"/>
      <point x="424" y="1442" type="line"/>
      <point x="316" y="776" type="line"/>
      <point x="828" y="776" type="line"/>
      <point x="909" y="777"/>
      <point x="979" y="761"/>
      <point x="1036" y="729" type="curve" smooth="yes"/>
      <point x="1150" y="665"/>
      <point x="1205" y="548"/>
      <point x="1180" y="396" type="curve" smooth="yes"/>
      <point x="1167" y="313"/>
      <point x="1139" y="242"/>
      <point x="1097" y="183" type="curve" smooth="yes"/>
      <point x="1012" y="65"/>
      <point x="875" y="0"/>
      <point x="698" y="0" type="curve" smooth="yes"/>
    </contour>
    <contour>
      <point x="194" y="46" type="line"/>
      <point x="706" y="46" type="line"/>
      <point x="784" y="47"/>
      <point x="853" y="61"/>
      <point x="912" y="90" type="curve" smooth="yes"/>
      <point x="1031" y="146"/>
      <point x="1109" y="253"/>
      <point x="1134" y="398" type="curve" smooth="yes"/>
      <point x="1151" y="500"/>
      <point x="1131" y="581"/>
      <point x="1074" y="641" type="curve" smooth="yes"/>
      <point x="1017" y="700"/>
      <point x="931" y="730"/>
      <point x="818" y="730" type="curve" smooth="yes"/>
      <point x="306" y="730" type="line"/>
    </contour>
  </outline>
</glyph>
<glyph name="uni0182" format="2">
  <advance width="1337"/>
  <unicode hex="0182"/>
  <outline>
    <contour>
      <point x="140" y="0" type="line"/>
      <point x="386" y="1490" type="line"/>
      <point x="1196" y="1490" type="line"/>
      <point x="1186" y="1442" type="line"/>
      <point x="424" y="1442" type="line"/>
      <point x="316" y="776" type="line"/>
      <point x="828" y="776" type="line"/>
      <point x="950" y="777"/>
      <point x="1121" y="681"/>
      <point x="1199" y="510"/>
      <point x="1180" y="396" type="qcurve" smooth="yes"/>
      <point x="1160" y="271"/>
      <point x="1033" y="94"/>
      <point x="831" y="0"/>
      <point x="698" y="0" type="qcurve" smooth="yes"/>
    </contour>
    <contour>
      <point x="194" y="46" type="line"/>
      <point x="706" y="46" type="line"/>
      <point x="823" y="47"/>
      <point x="1001" y="132"/>
      <point x="1115" y="289"/>
      <point x="1134" y="398" type="qcurve"/>
      <point x="1159" y="551"/>
      <point x="988" y="730"/>
      <point x="818" y="730" type="qcurve" smooth="yes"/>
      <point x="306" y="730" type="line"/>
    </contour>
  </outline>
</glyph>
<glyph name="btopbar" format="2">
  <advance width="1191"/>
  <unicode hex="0183"/>
  <anchor x="737" y="0" name="m.uni0326"/>
  <anchor x="1155" y="1430" name="m.uni030F_1"/>
  <outline>
    <contour>
      <point x="369" y="1444" type="line"/>
      <point x="352" y="1490" type="line"/>
      <point x="1038" y="1490" type="line"/>
      <point x="1031" y="1444" type="line"/>
    </contour>
    <contour>
      <point x="537" y="-24" type="curve" smooth="yes"/>
      <point x="476" y="-24"/>
      <point x="423" y="-12"/>
      <point x="376" y="13" type="curve" smooth="yes"/>
      <point x="329" y="38"/>
      <point x="291" y="73"/>
      <point x="262" y="119" type="curve" smooth="yes"/>
      <point x="233" y="164"/>
      <point x="213" y="218"/>
      <point x="204" y="280" type="curve"/>
      <point x="198" y="280" type="line"/>
      <point x="151" y="0" type="line"/>
      <point x="105" y="0" type="line"/>
      <point x="352" y="1490" type="line"/>
      <point x="398" y="1490" type="line"/>
      <point x="289" y="832" type="line"/>
      <point x="294" y="832" type="line"/>
      <point x="323" y="894"/>
      <point x="360" y="948"/>
      <point x="405" y="993" type="curve" smooth="yes"/>
      <point x="449" y="1038"/>
      <point x="498" y="1073"/>
      <point x="553" y="1098" type="curve" smooth="yes"/>
      <point x="607" y="1122"/>
      <point x="663" y="1134"/>
      <point x="722" y="1134" type="curve" smooth="yes"/>
      <point x="797" y="1134"/>
      <point x="860" y="1115"/>
      <point x="912" y="1078" type="curve" smooth="yes"/>
      <point x="1016" y="1003"/>
      <point x="1072" y="869"/>
      <point x="1072" y="698" type="curve" smooth="yes"/>
      <point x="1072" y="615"/>
      <point x="1060" y="532"/>
      <point x="1036" y="447" type="curve" smooth="yes"/>
      <point x="1011" y="362"/>
      <point x="976" y="284"/>
      <point x="930" y="213" type="curve" smooth="yes"/>
      <point x="883" y="142"/>
      <point x="827" y="84"/>
      <point x="761" y="41" type="curve" smooth="yes"/>
      <point x="695" y="-2"/>
      <point x="620" y="-24"/>
    </contour>
    <contour>
      <point x="538" y="22" type="curve" smooth="yes"/>
      <point x="614" y="22"/>
      <point x="682" y="42"/>
      <point x="742" y="83" type="curve" smooth="yes"/>
      <point x="802" y="124"/>
      <point x="853" y="177"/>
      <point x="896" y="244" type="curve" smooth="yes"/>
      <point x="938" y="310"/>
      <point x="970" y="383"/>
      <point x="993" y="462" type="curve" smooth="yes"/>
      <point x="1015" y="541"/>
      <point x="1026" y="620"/>
      <point x="1026" y="697" type="curve" smooth="yes"/>
      <point x="1026" y="812"/>
      <point x="1000" y="906"/>
      <point x="947" y="979" type="curve" smooth="yes"/>
      <point x="894" y="1052"/>
      <point x="819" y="1088"/>
      <point x="721" y="1088" type="curve" smooth="yes"/>
      <point x="569" y="1088"/>
      <point x="447" y="1000"/>
      <point x="362" y="868" type="curve" smooth="yes"/>
      <point x="319" y="801"/>
      <point x="287" y="728"/>
      <point x="265" y="649" type="curve" smooth="yes"/>
      <point x="242" y="570"/>
      <point x="231" y="491"/>
      <point x="231" y="414" type="curve" smooth="yes"/>
      <point x="231" y="299"/>
      <point x="258" y="205"/>
      <point x="311" y="132" type="curve" smooth="yes"/>
      <point x="364" y="59"/>
      <point x="439" y="22"/>
    </contour>
  </outline>
</glyph>
<glyph name="Tonesix" format="2">
  <advance width="1290"/>
  <unicode hex="0184"/>
  <outline>
    <contour>
      <point x="540" y="1490" type="line"/>
      <point x="542" y="1442" type="line"/>
      <point x="162" y="1442" type="line"/>
      <point x="172" y="1490" type="line"/>
    </contour>
    <contour>
      <point x="416" y="776" type="line"/>
      <point x="948" y="776" type="line"/>
      <point x="1029" y="777"/>
      <point x="1099" y="761"/>
      <point x="1156" y="729" type="curve" smooth="yes"/>
      <point x="1270" y="665"/>
      <point x="1325" y="548"/>
      <point x="1300" y="396" type="curve" smooth="yes"/>
      <point x="1287" y="313"/>
      <point x="1259" y="242"/>
      <point x="1217" y="183" type="curve" smooth="yes"/>
      <point x="1132" y="64"/>
      <point x="995" y="0"/>
      <point x="818" y="0" type="curve" smooth="yes"/>
      <point x="260" y="0" type="line"/>
      <point x="508" y="1490" type="line"/>
      <point x="552" y="1490" type="line"/>
      <point x="316" y="46" type="line"/>
      <point x="828" y="46" type="line"/>
      <point x="905" y="47"/>
      <point x="974" y="61"/>
      <point x="1033" y="90" type="curve" smooth="yes"/>
      <point x="1151" y="146"/>
      <point x="1229" y="253"/>
      <point x="1254" y="398" type="curve" smooth="yes"/>
      <point x="1271" y="500"/>
      <point x="1251" y="581"/>
      <point x="1194" y="641" type="curve" smooth="yes"/>
      <point x="1137" y="700"/>
      <point x="1052" y="730"/>
      <point x="940" y="730" type="curve" smooth="yes"/>
      <point x="408" y="730" type="line"/>
    </contour>
  </outline>
</glyph>
<glyph name="uni0184" format="2">
  <advance width="1290"/>
  <unicode hex="0184"/>
  <outline>
    <contour>
      <point x="540" y="1490" type="line"/>
      <point x="542" y="1442" type="line"/>
      <point x="162" y="1442" type="line"/>
      <point x="172" y="1490" type="line"/>
    </contour>
    <contour>
      <point x="416" y="776" type="line"/>
      <point x="948" y="776" type="line"/>
      <point x="1070" y="777"/>
      <point x="1241" y="681"/>
      <point x="1319" y="510"/>
      <point x="1300" y="396" type="qcurve" smooth="yes"/>
      <point x="1280" y="272"/>
      <point x="1153" y="94"/>
      <point x="951" y="0"/>
      <point x="818" y="0" type="qcurve" smooth="yes"/>
      <point x="260" y="0" type="line"/>
      <point x="508" y="1490" type="line"/>
      <point x="552" y="1490" type="line"/>
      <point x="316" y="46" type="line"/>
      <point x="828" y="46" type="line"/>
      <point x="944" y="47"/>
      <point x="1121" y="132"/>
      <point x="1235" y="289"/>
      <point x="1254" y="398" type="qcurve"/>
      <point x="1279" y="551"/>
      <point x="1108" y="730"/>
      <point x="940" y="730" type="qcurve" smooth="yes"/>
      <point x="408" y="730" type="line"/>
    </contour>
  </outline>
</glyph>
<glyph name="tonesix" format="2">
  <advance width="1108"/>
  <unicode hex="0185"/>
  <outline>
    <contour>
      <point x="338" y="1536" type="line"/>
      <point x="382" y="1536" type="line"/>
      <point x="302" y="1048" type="line"/>
      <point x="258" y="1048" type="line"/>
      <point x="192" y="1286" type="line"/>
      <point x="194" y="1300" type="line"/>
    </contour>
    <contour>
      <point x="272" y="832" type="line"/>
      <point x="296" y="832" type="line"/>
      <point x="325" y="894"/>
      <point x="362" y="948"/>
      <point x="406" y="993" type="curve" smooth="yes"/>
      <point x="450" y="1038"/>
      <point x="499" y="1073"/>
      <point x="553" y="1098" type="curve" smooth="yes"/>
      <point x="607" y="1123"/>
      <point x="663" y="1135"/>
      <point x="722" y="1134" type="curve"/>
      <point x="810" y="1135"/>
      <point x="882" y="1110"/>
      <point x="939" y="1059" type="curve" smooth="yes"/>
      <point x="995" y="1008"/>
      <point x="1034" y="938"/>
      <point x="1055" y="851" type="curve" smooth="yes"/>
      <point x="1076" y="764"/>
      <point x="1077" y="665"/>
      <point x="1058" y="556" type="curve" smooth="yes"/>
      <point x="1039" y="447"/>
      <point x="1005" y="348"/>
      <point x="956" y="261" type="curve" smooth="yes"/>
      <point x="907" y="173"/>
      <point x="846" y="104"/>
      <point x="773" y="53" type="curve" smooth="yes"/>
      <point x="700" y="2"/>
      <point x="619" y="-23"/>
      <point x="530" y="-24" type="curve"/>
      <point x="471" y="-23"/>
      <point x="418" y="-11"/>
      <point x="373" y="14" type="curve" smooth="yes"/>
      <point x="327" y="39"/>
      <point x="290" y="74"/>
      <point x="261" y="119" type="curve" smooth="yes"/>
      <point x="232" y="164"/>
      <point x="212" y="218"/>
      <point x="202" y="280" type="curve"/>
      <point x="174" y="280" type="line"/>
    </contour>
    <contour>
      <point x="1010" y="556" type="curve" smooth="yes"/>
      <point x="1027" y="657"/>
      <point x="1027" y="747"/>
      <point x="1011" y="828" type="curve" smooth="yes"/>
      <point x="978" y="988"/>
      <point x="881" y="1088"/>
      <point x="722" y="1088" type="curve" smooth="yes"/>
      <point x="644" y="1088"/>
      <point x="572" y="1065"/>
      <point x="505" y="1018" type="curve" smooth="yes"/>
      <point x="438" y="971"/>
      <point x="382" y="908"/>
      <point x="336" y="828" type="curve" smooth="yes"/>
      <point x="290" y="747"/>
      <point x="259" y="657"/>
      <point x="242" y="556" type="curve" smooth="yes"/>
      <point x="226" y="455"/>
      <point x="226" y="365"/>
      <point x="242" y="284" type="curve" smooth="yes"/>
      <point x="274" y="123"/>
      <point x="371" y="24"/>
      <point x="530" y="24" type="curve" smooth="yes"/>
      <point x="609" y="24"/>
      <point x="682" y="47"/>
      <point x="749" y="94" type="curve" smooth="yes"/>
      <point x="815" y="140"/>
      <point x="871" y="203"/>
      <point x="917" y="284" type="curve" smooth="yes"/>
      <point x="963" y="365"/>
      <point x="994" y="455"/>
    </contour>
    <contour>
      <point x="350" y="1490" type="line"/>
      <point x="398" y="1490" type="line"/>
      <point x="290" y="832" type="line"/>
      <point x="232" y="558" type="line"/>
      <point x="196" y="280" type="line"/>
      <point x="150" y="0" type="line"/>
      <point x="104" y="0" type="line"/>
    </contour>
  </outline>
</glyph>
<glyph name="uni0185" format="2">
  <advance width="1108"/>
  <unicode hex="0185"/>
  <outline>
    <contour>
      <point x="338" y="1536" type="line"/>
      <point x="382" y="1536" type="line"/>
      <point x="302" y="1048" type="line"/>
      <point x="258" y="1048" type="line"/>
      <point x="192" y="1286" type="line"/>
      <point x="194" y="1300" type="line"/>
    </contour>
    <contour>
      <point x="272" y="832" type="line"/>
      <point x="296" y="832" type="line"/>
      <point x="340" y="925"/>
      <point x="472" y="1061"/>
      <point x="634" y="1135"/>
      <point x="722" y="1134" type="qcurve"/>
      <point x="854" y="1135"/>
      <point x="1023" y="982"/>
      <point x="1086" y="720"/>
      <point x="1058" y="556" type="qcurve" smooth="yes"/>
      <point x="1030" y="392"/>
      <point x="882" y="129"/>
      <point x="663" y="-23"/>
      <point x="530" y="-24" type="qcurve"/>
      <point x="441" y="-23"/>
      <point x="304" y="51"/>
      <point x="217" y="187"/>
      <point x="202" y="280" type="qcurve"/>
      <point x="174" y="280" type="line"/>
    </contour>
    <contour>
      <point x="1010" y="556" type="qcurve" smooth="yes"/>
      <point x="1035" y="707"/>
      <point x="986" y="948"/>
      <point x="841" y="1088"/>
      <point x="722" y="1088" type="qcurve" smooth="yes"/>
      <point x="605" y="1088"/>
      <point x="405" y="948"/>
      <point x="267" y="707"/>
      <point x="242" y="556" type="qcurve" smooth="yes"/>
      <point x="218" y="405"/>
      <point x="266" y="163"/>
      <point x="411" y="24"/>
      <point x="530" y="24" type="qcurve" smooth="yes"/>
      <point x="649" y="24"/>
      <point x="848" y="163"/>
      <point x="986" y="405"/>
    </contour>
    <contour>
      <point x="350" y="1490" type="line"/>
      <point x="398" y="1490" type="line"/>
      <point x="290" y="832" type="line"/>
      <point x="232" y="558" type="line"/>
      <point x="196" y="280" type="line"/>
      <point x="150" y="0" type="line"/>
      <point x="104" y="0" type="line"/>
    </contour>
  </outline>
</glyph>
<glyph name="Oopen" format="2">
  <advance width="1480"/>
  <unicode hex="0186"/>
  <anchor x="583" y="0" name="m.uni030F_1"/>
  <anchor x="849" y="1489" name="m.uni0327_3"/>
  <outline>
    <contour>
      <point x="869" y="1510" type="curve" smooth="yes"/>
      <point x="974" y="1510"/>
      <point x="1065" y="1486"/>
      <point x="1142" y="1438" type="curve" smooth="yes"/>
      <point x="1294" y="1342"/>
      <point x="1379" y="1163"/>
      <point x="1379" y="927" type="curve" smooth="yes"/>
      <point x="1379" y="812"/>
      <point x="1362" y="699"/>
      <point x="1327" y="587" type="curve" smooth="yes"/>
      <point x="1292" y="474"/>
      <point x="1241" y="372"/>
      <point x="1176" y="281" type="curve" smooth="yes"/>
      <point x="1110" y="190"/>
      <point x="1030" y="117"/>
      <point x="937" y="62" type="curve" smooth="yes"/>
      <point x="844" y="7"/>
      <point x="739" y="-20"/>
      <point x="622" y="-20" type="curve" smooth="yes"/>
      <point x="446" y="-20"/>
      <point x="323" y="47"/>
      <point x="244" y="144" type="curve" smooth="yes"/>
      <point x="165" y="241"/>
      <point x="129" y="361"/>
      <point x="129" y="466" type="curve"/>
      <point x="175" y="466" type="line"/>
      <point x="179" y="365"/>
      <point x="214" y="256"/>
      <point x="287" y="170" type="curve" smooth="yes"/>
      <point x="359" y="84"/>
      <point x="470" y="26"/>
      <point x="623" y="26" type="curve" smooth="yes"/>
      <point x="728" y="26"/>
      <point x="823" y="51"/>
      <point x="910" y="101" type="curve" smooth="yes"/>
      <point x="997" y="151"/>
      <point x="1072" y="219"/>
      <point x="1135" y="305" type="curve" smooth="yes"/>
      <point x="1198" y="390"/>
      <point x="1247" y="487"/>
      <point x="1282" y="594" type="curve" smooth="yes"/>
      <point x="1316" y="701"/>
      <point x="1333" y="812"/>
      <point x="1333" y="926" type="curve" smooth="yes"/>
      <point x="1333" y="1043"/>
      <point x="1313" y="1142"/>
      <point x="1272" y="1222" type="curve" smooth="yes"/>
      <point x="1190" y="1382"/>
      <point x="1043" y="1464"/>
      <point x="867" y="1464" type="curve" smooth="yes"/>
      <point x="712" y="1464"/>
      <point x="582" y="1407"/>
      <point x="480" y="1320" type="curve" smooth="yes"/>
      <point x="378" y="1233"/>
      <point x="305" y="1125"/>
      <point x="268" y="1024" type="curve"/>
      <point x="221" y="1024" type="line"/>
      <point x="257" y="1129"/>
      <point x="332" y="1249"/>
      <point x="441" y="1346" type="curve" smooth="yes"/>
      <point x="550" y="1443"/>
      <point x="694" y="1510"/>
    </contour>
  </outline>
</glyph>
<glyph name="Dhook" format="2">
  <advance width="1620"/>
  <unicode hex="018A"/>
  <anchor x="1059" y="0" name="m.uni0326"/>
  <anchor x="1245" y="1490" name="m.uni030F_1"/>
  <outline>
    <contour>
      <point x="178" y="1118" type="line"/>
      <point x="205" y="1280" type="line" smooth="yes"/>
      <point x="216" y="1348"/>
      <point x="242" y="1400"/>
      <point x="282" y="1436" type="curve" smooth="yes"/>
      <point x="321" y="1472"/>
      <point x="373" y="1490"/>
      <point x="436" y="1490" type="curve" smooth="yes"/>
      <point x="546" y="1490" type="line"/>
      <point x="538" y="1444" type="line"/>
      <point x="432" y="1444" type="line" smooth="yes"/>
      <point x="327" y="1444"/>
      <point x="270" y="1392"/>
      <point x="251" y="1280" type="curve" smooth="yes"/>
      <point x="224" y="1118" type="line"/>
    </contour>
    <contour>
      <point x="689" y="0" type="curve" smooth="yes"/>
      <point x="323" y="0" type="line"/>
      <point x="331" y="46" type="line"/>
      <point x="689" y="46" type="line" smooth="yes"/>
      <point x="827" y="46"/>
      <point x="949" y="74"/>
      <point x="1056" y="130" type="curve" smooth="yes"/>
      <point x="1269" y="242"/>
      <point x="1411" y="457"/>
      <point x="1459" y="750" type="curve" smooth="yes"/>
      <point x="1483" y="895"/>
      <point x="1481" y="1020"/>
      <point x="1452" y="1123" type="curve" smooth="yes"/>
      <point x="1394" y="1330"/>
      <point x="1233" y="1444"/>
      <point x="974" y="1444" type="curve" smooth="yes"/>
      <point x="562" y="1444" type="line"/>
      <point x="570" y="1490" type="line"/>
      <point x="974" y="1490" type="line" smooth="yes"/>
      <point x="1111" y="1490"/>
      <point x="1224" y="1461"/>
      <point x="1312" y="1402" type="curve" smooth="yes"/>
      <point x="1487" y="1284"/>
      <point x="1557" y="1059"/>
      <point x="1505" y="750" type="curve" smooth="yes"/>
      <point x="1479" y="592"/>
      <point x="1430" y="457"/>
      <point x="1357" y="345" type="curve" smooth="yes"/>
      <point x="1211" y="121"/>
      <point x="981" y="0"/>
    </contour>
    <contour>
      <point x="592" y="1490" type="line"/>
      <point x="345" y="0" type="line"/>
      <point x="299" y="0" type="line"/>
      <point x="546" y="1490" type="line"/>
    </contour>
  </outline>
</glyph>
<glyph name="Dtopbar" format="2">
  <advance width="1210"/>
  <unicode hex="018B"/>
  <outline>
    <contour>
      <point x="1000" y="0" type="line"/>
      <point x="442" y="0" type="line" smooth="yes"/>
      <point x="360" y="0"/>
      <point x="291" y="17"/>
      <point x="234" y="51" type="curve" smooth="yes"/>
      <point x="120" y="119"/>
      <point x="67" y="244"/>
      <point x="94" y="404" type="curve" smooth="yes"/>
      <point x="107" y="481"/>
      <point x="134" y="548"/>
      <point x="177" y="604" type="curve" smooth="yes"/>
      <point x="262" y="715"/>
      <point x="400" y="777"/>
      <point x="572" y="776" type="curve"/>
      <point x="1084" y="776" type="line"/>
      <point x="1192" y="1442" type="line"/>
      <point x="430" y="1442" type="line"/>
      <point x="440" y="1490" type="line"/>
      <point x="1248" y="1490" type="line"/>
    </contour>
    <contour>
      <point x="962" y="46" type="line"/>
      <point x="1074" y="730" type="line"/>
      <point x="562" y="730" type="line" smooth="yes"/>
      <point x="451" y="730"/>
      <point x="358" y="701"/>
      <point x="281" y="642" type="curve" smooth="yes"/>
      <point x="204" y="583"/>
      <point x="157" y="505"/>
      <point x="142" y="408" type="curve" smooth="yes"/>
      <point x="129" y="332"/>
      <point x="133" y="267"/>
      <point x="153" y="213" type="curve" smooth="yes"/>
      <point x="193" y="105"/>
      <point x="295" y="47"/>
      <point x="450" y="46" type="curve"/>
    </contour>
  </outline>
</glyph>
